<?xml version="1.0" standalone="no"?>
<!DOCTYPE svg PUBLIC "-//W3C//DTD SVG 1.1//EN" "http://www.w3.org/Graphics/SVG/1.1/DTD/svg11.dtd" >
<svg>
<metadata>
Created by FontForge 20090622 at Wed Aug 10 10:14:30 2016
 By deploy user
Copyright (c) 2012 by Doan BC doanbc1502@gmail.com. All rights reserved.
</metadata>
<defs>
<font id="VNF-Narziss" horiz-adv-x="1024" >
  <font-face 
    font-family="VNF-Narziss"
    font-weight="400"
    font-stretch="normal"
    units-per-em="2048"
    panose-1="2 0 5 6 0 0 0 2 0 4"
    ascent="1638"
    descent="-410"
    x-height="1038"
    cap-height="1434"
    bbox="-218 -471 2169 2219"
    underline-thickness="50"
    underline-position="-50"
    unicode-range="U+000D-U+FB02"
  />
<missing-glyph horiz-adv-x="532" 
 />
    <glyph glyph-name=".notdef" horiz-adv-x="532" 
 />
    <glyph glyph-name=".null" 
 />
    <glyph glyph-name=".null" 
 />
    <glyph glyph-name="nonmarkingreturn" unicode="&#xd;" 
 />
    <glyph glyph-name="space" horiz-adv-x="532" 
 />
    <glyph glyph-name="A" unicode="A" horiz-adv-x="1382" 
d="M348 6v-6h-348v6h8q36 0 64 18.5t50.5 49.5t40.5 72t34 85l438 1203h76l557 -1428h114v-6h-430v6h135l-237 608h-506l-139 -385q-17 -45 -19.5 -85.5t12.5 -71t48 -48.5t88 -18h14zM346 621h502l-258 665z" />
    <glyph glyph-name="B" unicode="B" horiz-adv-x="1153" 
d="M41 1427v7h551q108 0 192 -25.5t141.5 -72.5t87 -112.5t29.5 -146.5q0 -72 -28 -132.5t-79 -106.5t-122 -76t-156 -41q106 -3 190.5 -29.5t143 -72.5t90 -109.5t31.5 -140.5q0 -81 -39.5 -149t-108.5 -117t-162.5 -76t-201.5 -27h-559v6h129v1421h-129zM338 715v-709h237
q95 0 163 27t111.5 74.5t64 112.5t20.5 142q0 75 -21 139.5t-64 112t-109 74.5t-156 27h-246zM338 1427v-706h201q91 0 153 26t100.5 72.5t55 110.5t16.5 141q0 75 -17 140t-55 113t-98 75.5t-147 27.5h-209z" />
    <glyph glyph-name="C" unicode="C" horiz-adv-x="1190" 
d="M248 721q0 -152 35.5 -281t100.5 -223t156.5 -147.5t204.5 -53.5q71 0 133.5 21.5t110.5 62.5t80 102t41 140h8q-8 -79 -41.5 -145.5t-91 -114.5t-139.5 -75t-187 -27q-134 0 -244 57t-188.5 156t-122 231.5t-43.5 284.5q0 106 21.5 202.5t62 179t97.5 150t128.5 115
t155 73t176.5 25.5q66 0 111.5 -12t80.5 -26l65.5 -26t68.5 -12q34 0 53 21t19 55h6v-428h-6q-19 91 -48 168.5t-75 133t-113 87t-162 31.5q-123 0 -209 -57t-140.5 -155.5t-79.5 -230.5t-25 -282z" />
    <glyph glyph-name="D" unicode="D" horiz-adv-x="1305" 
d="M338 1427v-1421h203q128 0 225 54t161.5 149.5t97 224.5t32.5 279q0 145 -35.5 275t-102.5 227.5t-163 154.5t-217 57h-201zM557 1434q160 0 287.5 -51.5t216 -145.5t135.5 -224.5t47 -287.5q0 -159 -52.5 -292t-144.5 -229.5t-217.5 -150t-271.5 -53.5h-516v6h129v1421
h-129v7h516z" />
    <glyph glyph-name="E" unicode="E" horiz-adv-x="1155" 
d="M338 715v-709h330q90 0 151.5 19.5t102.5 61.5t65.5 108.5t40.5 160.5h4v-356h-991v6h129v1421h-129v7h971v-357h-4q-16 94 -40.5 160.5t-65.5 108.5t-102.5 61.5t-152.5 19.5h-309v-706h197q70 0 119 14.5t81 43t49.5 69.5t24.5 94h6v-448h-6q-7 53 -24.5 94t-49.5 69.5
t-81 43t-119 14.5h-197z" />
    <glyph glyph-name="F" unicode="F" horiz-adv-x="1083" 
d="M467 6v-6h-426v6h129v1421h-129v7h971v-357h-4q-16 94 -40.5 160.5t-65.5 108.5t-102.5 61.5t-152.5 19.5h-309v-720h197q70 0 119 14.5t81 42.5t49.5 69.5t24.5 94.5h6v-449h-6q-7 53 -24.5 94.5t-49.5 69.5t-81 42.5t-119 14.5h-197v-694h129z" />
    <glyph glyph-name="G" unicode="G" horiz-adv-x="1323" 
d="M680 -12q70 0 128.5 19.5t100.5 58t65 96.5t23 135v291h-151v6h436v-6h-119v-623h-8v27q0 77 -17 112t-61 35q-28 0 -52 -12t-48.5 -29.5l-52.5 -38t-63 -38t-79 -29.5t-102 -12q-134 0 -247 57t-196 156t-129.5 231.5t-46.5 284.5q0 106 21.5 202.5t62 179t97.5 150
t128.5 115t155 73t176.5 25.5q66 0 111.5 -12t80.5 -26l65.5 -26t68.5 -12q34 0 53 21t19 55h6v-428h-6q-19 91 -48 168.5t-75 133t-113 87t-162 31.5q-123 0 -209 -57t-140.5 -155.5t-79.5 -230.5t-25 -282q0 -152 26.5 -285t80 -233t134.5 -157.5t191 -57.5z" />
    <glyph glyph-name="H" unicode="H" horiz-adv-x="1374" 
d="M909 1427v7h424v-7h-127v-1421h127v-6h-424v6h129v703h-700v-703h127v-6h-424v6h129v1421h-129v7h424v-7h-127v-712h700v712h-129z" />
    <glyph glyph-name="I" unicode="I" horiz-adv-x="506" 
d="M41 1427v7h424v-7h-127v-1421h127v-6h-424v6h129v1421h-129z" />
    <glyph glyph-name="J" unicode="J" horiz-adv-x="682" 
d="M217 1427v7h424v-7h-127v-1021q0 -84 -12.5 -160.5t-42 -134.5t-78.5 -92.5t-121 -34.5q-53 0 -94 17.5t-68.5 47.5t-42 69.5t-14.5 84.5q0 30 9.5 55.5t25 44t37 29t45.5 10.5q52 0 80 -31t28 -78q0 -27 -9 -47.5t-24 -34.5t-34.5 -21t-40.5 -7q-26 0 -43 8t-23 8
q-10 0 -10 -10q0 -17 10 -41t31.5 -46.5t55 -38t81.5 -15.5q41 0 76 13t60.5 38t40 62.5t14.5 86.5t-8 90.5t-19.5 82.5t-25 84.5t-25 95.5t-19.5 116.5t-8 147.5v622h-129z" />
    <glyph glyph-name="K" unicode="K" horiz-adv-x="1280" 
d="M840 1427v7h348v-7h-8q-36 0 -72 -18.5t-72 -49t-72 -69.5l-73 -80l-268 -313l540 -891h107v-6h-441v6h138l-457 758l-172 -203v-555h127v-6h-424v6h129v1421h-129v7h424v-7h-127v-856l545 641q37 42 58 80.5t19.5 68.5t-27 48t-79.5 18h-14z" />
    <glyph glyph-name="L" unicode="L" horiz-adv-x="1094" 
d="M338 6h330q90 0 151.5 19.5t102.5 61.5t65.5 108.5t40.5 160.5h4v-356h-991v6h129v1421h-129v7h426v-7h-129v-1421z" />
    <glyph glyph-name="M" unicode="M" horiz-adv-x="1524" 
d="M1483 1434v-7h-127v-1421h127v-6h-420v6h129v1401l-444 -1407h-70l-500 1405v-1143q0 -68 11.5 -116.5t31 -79.5t44.5 -45.5t52 -14.5h11v-6h-287v6q26 0 49.5 14.5t41 45.5t28 79.5t10.5 116.5v1165h-129v7h303l447 -1274l401 1274h291z" />
    <glyph glyph-name="N" unicode="N" horiz-adv-x="1317" 
d="M178 1413v-1151q0 -68 11.5 -116.5t31 -79.5t44.5 -45.5t52 -14.5h11v-6h-287v6q28 0 51.5 14.5t40.5 45.5t27 79.5t10 116.5v1165h-129v7h315l793 -1358v1095q0 69 -11.5 117.5t-31 79t-44.5 45t-52 14.5h-11v7h287v-7q-28 0 -51.5 -14.5t-41 -45t-27 -79t-9.5 -117.5
v-1171h-143z" />
    <glyph glyph-name="O" unicode="O" horiz-adv-x="1442" 
d="M721 1454q160 0 283.5 -55t206.5 -152t126 -231t43 -291q0 -106 -22 -202.5t-62.5 -179.5t-99 -151t-131.5 -115.5t-160 -73.5t-184 -26q-161 0 -284 55.5t-206.5 153t-126.5 231.5t-43 292q0 106 22 202.5t63 179t99.5 150t131.5 115t160 73t184 25.5zM721 -14
q128 0 218 57.5t146.5 156t82.5 231t26 282.5q0 145 -28.5 277.5t-87 234t-147.5 161.5t-210 60q-128 0 -218 -57t-146.5 -155.5t-82.5 -230.5t-26 -282q0 -145 28.5 -278t86.5 -234.5t147 -162t211 -60.5z" />
    <glyph glyph-name="P" unicode="P" horiz-adv-x="1153" 
d="M41 1427v7h588q112 0 201.5 -27t152 -76t96 -116t33.5 -148t-39.5 -151t-108.5 -121.5t-162.5 -81t-201.5 -29.5h-262v-678h127v-6h-424v6h129v1421h-129zM338 690h237q95 0 163 29t111.5 79.5t64 118t20.5 144.5q0 75 -21 141.5t-64 116.5t-109 79t-156 29h-246v-737z
" />
    <glyph glyph-name="Q" unicode="Q" horiz-adv-x="1442" 
d="M872 4q-35 -8 -74 -12t-77 -4q-161 0 -284 54.5t-206.5 151.5t-126.5 230t-43 291q0 159 48.5 294.5t135.5 234t208.5 154.5t267.5 56q160 0 283.5 -54t206.5 -150t126 -229t43 -290q0 -113 -25 -214.5t-71 -187.5t-111.5 -153.5t-146.5 -112.5q6 -48 6 -108
q0 -93 16 -138.5t62 -45.5q34 0 54 29.5t20 72.5v43h6v-43q0 -33 -8 -66t-26.5 -60t-48.5 -43.5t-73 -16.5q-51 0 -82.5 19.5t-49 55t-24 85t-6.5 108.5v49zM248 727q0 -96 12.5 -187.5t37.5 -172.5t63.5 -148.5t90.5 -116.5t118 -77t147 -29v45q0 33 8 66t26.5 60t48 43.5
t72.5 16.5q62 0 96 -30t48 -82q47 48 80.5 113t55.5 142.5t32 165.5t10 183q0 97 -12.5 188.5t-38 172t-64.5 148t-91.5 116t-119 75.5t-147.5 27q-128 0 -218 -56t-146.5 -153.5t-82.5 -228.5t-26 -281zM723 -4q81 0 149 24q0 63 -18 93t-55 30q-34 0 -55 -29.5t-21 -72.5
v-45z" />
    <glyph glyph-name="R" unicode="R" horiz-adv-x="1249" 
d="M1051 248q0 -93 15.5 -139t61.5 -46q35 0 54.5 30t19.5 73v43h6v-43q0 -33 -8 -66t-26.5 -60t-48 -43.5t-72.5 -16.5q-51 0 -82.5 19.5t-49 55t-24 85t-6.5 108.5q0 102 -12 184.5t-46 141t-95.5 90.5t-159.5 32h-240v-690h127v-6h-424v6h129v1421h-129v7h588
q112 0 201.5 -26t152 -73.5t96 -114t33.5 -147.5q0 -75 -33 -139t-91.5 -113t-138 -80.5t-173.5 -40.5q97 -8 168 -42.5t117 -93t68 -138.5t22 -178zM338 702h237q95 0 163 28t111.5 77.5t64 116t20.5 143.5q0 75 -21 140.5t-64 114t-109 77t-156 28.5h-246v-725z" />
    <glyph glyph-name="S" unicode="S" horiz-adv-x="1051" 
d="M541 -12q76 0 134.5 23t97.5 63.5t59 95.5t20 119q0 84 -33 142t-87 99t-123 70.5l-141 57.5t-141 59.5t-123 76t-87 108t-33 155.5q0 90 32 163.5t90.5 125.5t142 80t186.5 28q66 0 113 -12t84 -26l69.5 -26t70.5 -12q35 0 53.5 21t18.5 55h6v-428h-6q-19 91 -50 168.5
t-79 133t-116.5 87t-163.5 31.5q-77 0 -136 -23.5t-99 -63t-60.5 -92.5t-20.5 -112q0 -85 33 -143t87 -99t123.5 -70.5l141.5 -57.5t141.5 -59t123.5 -75.5t87 -107.5t33 -154q0 -90 -35.5 -165t-96 -129t-142 -84.5t-174.5 -30.5q-56 0 -99 8t-76.5 20.5t-61 26.5l-53 26.5
t-52 20.5t-58.5 8q-35 0 -53 -21t-18 -53h-9v428h9q17 -99 57 -182.5t100.5 -144.5t139.5 -95t174 -34z" />
    <glyph glyph-name="T" unicode="T" horiz-adv-x="1237" 
d="M457 1427q-95 0 -163.5 -18.5t-114 -60t-70 -107.5t-31.5 -160h-6v428h6q0 -34 18.5 -54.5t53.5 -20.5h937q35 0 53.5 20.5t18.5 54.5h6v-428h-6q-8 94 -32 160t-69.5 107.5t-114 60t-163.5 18.5h-78v-1421h127v-6h-423v6h129v1421h-78z" />
    <glyph glyph-name="U" unicode="U" horiz-adv-x="1374" 
d="M1171 485q0 -112 -40 -204.5t-109 -159t-161.5 -103t-196.5 -36.5q-107 0 -197.5 37t-156.5 102t-103 153.5t-37 192.5v960h-129v7h424v-7h-127v-950q0 -90 32 -163t88 -125t133 -80.5t167 -28.5q85 0 159 26t128.5 77.5t86 127.5t31.5 176v715q0 118 -39.5 171.5
t-119.5 53.5h-9v7h348v-7h-8q-80 0 -122 -53.5t-42 -171.5v-717z" />
    <glyph glyph-name="V" unicode="V" horiz-adv-x="1341" 
d="M993 1427v7h348v-7h-8q-36 0 -64.5 -18t-51 -49t-40 -72t-32.5 -86l-418 -1202h-76l-536 1427h-115v7h430v-7h-135l475 -1275l367 1052q17 45 19.5 85.5t-12.5 71t-48.5 48.5t-87.5 18h-15z" />
    <glyph glyph-name="W" unicode="W" horiz-adv-x="1905" 
d="M1546 1427v7h348v-7h-8q-36 0 -65.5 -18t-53.5 -48.5t-42 -71.5t-31 -87l-336 -1202h-76l-332 1126l-338 -1126h-75l-412 1427h-115v7h426v-7h-135l354 -1253l291 969l-84 284h-114v7h415v-7h-135l369 -1257l289 1034q13 46 15.5 86.5t-10.5 71t-44.5 48t-85.5 17.5h-15z
" />
    <glyph glyph-name="X" unicode="X" horiz-adv-x="1319" 
d="M367 6v-6h-347v6h9q35 0 69 19t67.5 50.5t66.5 72l67 83.5l299 435l-481 761h-107v7h436v-7h-137l396 -634l282 411q31 45 48 85.5t14 71t-29 48.5t-80 18h-14v7h348v-7h-8q-36 0 -71.5 -18.5t-69 -49.5t-66.5 -71.5t-64 -85.5l-286 -418l493 -778h107v-6h-437v6h138
l-408 653l-295 -430q-32 -45 -49.5 -85.5t-14.5 -71t29 -48.5t80 -18h15z" />
    <glyph glyph-name="Y" unicode="Y" horiz-adv-x="1329" 
d="M981 1427v7h348v-7h-8q-36 0 -71 -18.5t-68.5 -49.5t-66.5 -71.5t-64 -85.5l-318 -479v-717h127v-6h-424v6h129v694l-459 727h-106v7h436v-7h-137l434 -692l309 469q31 45 48.5 85.5t14.5 71t-29 48.5t-81 18h-14z" />
    <glyph glyph-name="Z" unicode="Z" horiz-adv-x="1245" 
d="M950 1427h-458q-91 0 -152.5 -19.5t-102.5 -61.5t-65.5 -108.5t-40.5 -160.5h-4v357h1014l-869 -1428h506q91 0 152.5 19.5t102.5 61.5t65.5 108.5t40.5 160.5h4v-356h-1061z" />
    <glyph glyph-name="Agrave" unicode="&#xc0;" horiz-adv-x="1382" 
d="M348 6v-6h-348v6h8q36 0 64 18.5t50.5 49.5t40.5 72t34 85l438 1203h76l557 -1428h114v-6h-430v6h135l-237 608h-506l-139 -385q-17 -45 -19.5 -85.5t12.5 -71t48 -48.5t88 -18h14zM346 621h502l-258 665zM489 1735q-9 3 -16.5 9.5t-7.5 14.5q0 10 5 14.5t13 4.5
q7 0 11.5 -1t9.5 -3q35 -15 74.5 -36.5l85 -46.5l98 -52t112.5 -54l-2 -6q-121 57 -216 92t-167 64z" />
    <glyph glyph-name="Aacute" unicode="&#xc1;" horiz-adv-x="1382" 
d="M348 6v-6h-348v6h8q36 0 64 18.5t50.5 49.5t40.5 72t34 85l438 1203h76l557 -1428h114v-6h-430v6h135l-237 608h-506l-139 -385q-17 -45 -19.5 -85.5t12.5 -71t48 -48.5t88 -18h14zM346 621h502l-258 665zM870 1735q-71 -29 -166 -64t-217 -92l-2 6q61 27 113 54l98 52
l85.5 46.5t74.5 36.5q5 2 9.5 3t11.5 1q8 0 13 -4.5t5 -14.5q0 -8 -7.5 -14.5t-17.5 -9.5z" />
    <glyph glyph-name="Acircumflex" unicode="&#xc2;" horiz-adv-x="1382" 
d="M348 6v-6h-348v6h8q36 0 64 18.5t50.5 49.5t40.5 72t34 85l438 1203h76l557 -1428h114v-6h-430v6h135l-237 608h-506l-139 -385q-17 -45 -19.5 -85.5t12.5 -71t48 -48.5t88 -18h14zM346 621h502l-258 665zM690 1788q28 -24 47.5 -43l41 -41t52.5 -51t82 -72l-4 -4
q-52 44 -84.5 68l-56.5 40.5l-45.5 31t-52.5 38.5q-31 -24 -52.5 -38.5l-46 -31t-57 -40.5t-84.5 -68l-4 4q51 43 81 71.5l51.5 50.5l41 41t49.5 44q10 8 21.5 8t19.5 -8z" />
    <glyph glyph-name="uni1EA6" unicode="&#x1ea6;" horiz-adv-x="1382" 
d="M348 6v-6h-348v6h8q36 0 64 18.5t50.5 49.5t40.5 72t34 85l438 1203h76l557 -1428h114v-6h-430v6h135l-237 608h-506l-139 -385q-17 -45 -19.5 -85.5t12.5 -71t48 -48.5t88 -18h14zM346 621h502l-258 665zM690 1788q28 -24 47.5 -43l41 -41t52.5 -51t82 -72l-4 -4
q-52 44 -84.5 68l-56.5 40.5l-45.5 31t-52.5 38.5q-31 -24 -52.5 -38.5l-46 -31t-57 -40.5t-84.5 -68l-4 4q51 43 81 71.5l51.5 50.5l41 41t49.5 44q10 8 21.5 8t19.5 -8zM498 1960q-9 3 -16.5 9.5t-7.5 14.5q0 10 5 14.5t13 4.5q7 0 11.5 -1t9.5 -3q35 -15 74.5 -36.5
l85 -46.5l98 -52t112.5 -54l-2 -6q-121 57 -216 92t-167 64z" />
    <glyph glyph-name="uni1EA4" unicode="&#x1ea4;" horiz-adv-x="1382" 
d="M334 6q-55 0 -88 18t-48 48.5t-12.5 71t19.5 85.5l139 385h506l237 -608h-135v-6h430v6h-114l-557 1428h-76l-438 -1203q-16 -44 -34 -85t-40.5 -72t-50.5 -49.5t-64 -18.5h-8v-6h348v6h-14zM590 1286l258 -665h-502zM690 1788q-8 8 -19.5 8t-21.5 -8q-30 -25 -49.5 -44
l-41 -41l-51.5 -50.5t-81 -71.5l4 -4q52 44 84.5 68t57 40.5l46 31t52.5 38.5q31 -24 52.5 -38.5l45.5 -31l56.5 -40.5t84.5 -68l4 4q-51 43 -82 72t-52.5 51l-41 41t-47.5 43zM852 1960q-72 -29 -167 -64t-216 -92l-2 6q60 27 112.5 54l98 52l85 46.5t74.5 36.5q5 2 9.5 3
t11.5 1q8 0 13 -4.5t5 -14.5q0 -8 -7.5 -14.5t-16.5 -9.5z" />
    <glyph glyph-name="uni1EAA" unicode="&#x1eaa;" horiz-adv-x="1382" 
d="M348 6v-6h-348v6h8q36 0 64 18.5t50.5 49.5t40.5 72t34 85l438 1203h76l557 -1428h114v-6h-430v6h135l-237 608h-506l-139 -385q-17 -45 -19.5 -85.5t12.5 -71t48 -48.5t88 -18h14zM346 621h502l-258 665zM690 1788q28 -24 47.5 -43l41 -41t52.5 -51t82 -72l-4 -4
q-52 44 -84.5 68l-56.5 40.5l-45.5 31t-52.5 38.5q-31 -24 -52.5 -38.5l-46 -31t-57 -40.5t-84.5 -68l-4 4q51 43 81 71.5l51.5 50.5l41 41t49.5 44q10 8 21.5 8t19.5 -8zM845 1917q63 0 104.5 30t73.5 101h7q-17 -39 -36 -69t-42.5 -50.5t-53.5 -31t-69 -10.5
q-44 0 -76.5 10.5t-59 27t-49 35l-44.5 35t-47 27t-56 10.5q-63 0 -104.5 -30t-73.5 -101h-6q17 39 35.5 69t42.5 51t54 31.5t69 10.5q34 0 61 -11t50.5 -27t46 -35t47.5 -35t55.5 -27t70.5 -11z" />
    <glyph glyph-name="uni1EA8" unicode="&#x1ea8;" horiz-adv-x="1382" 
d="M348 6v-6h-348v6h8q36 0 64 18.5t50.5 49.5t40.5 72t34 85l438 1203h76l557 -1428h114v-6h-430v6h135l-237 608h-506l-139 -385q-17 -45 -19.5 -85.5t12.5 -71t48 -48.5t88 -18h14zM346 621h502l-258 665zM690 1788q28 -24 47.5 -43l41 -41t52.5 -51t82 -72l-4 -4
q-52 44 -84.5 68l-56.5 40.5l-45.5 31t-52.5 38.5q-31 -24 -52.5 -38.5l-46 -31t-57 -40.5t-84.5 -68l-4 4q51 43 81 71.5l51.5 50.5l41 41t49.5 44q10 8 21.5 8t19.5 -8zM889 1683q-6 18 -9.5 33.5t-3.5 27.5q0 26 9 45.5t23 35.5t29.5 30.5t29.5 30.5t23 36t9 47
q0 44 -28.5 71t-71.5 27q-23 0 -41 -5t-30.5 -12.5t-20 -15t-8.5 -11.5h-7q14 23 41.5 38t67.5 15q63 0 99 -31t36 -84q0 -29 -14.5 -49t-35.5 -36.5l-43.5 -33t-38 -38t-19.5 -50.5t12 -71h-8z" />
    <glyph glyph-name="uni1EAC" unicode="&#x1eac;" horiz-adv-x="1382" 
d="M348 6v-6h-348v6h8q36 0 64 18.5t50.5 49.5t40.5 72t34 85l438 1203h76l557 -1428h114v-6h-430v6h135l-237 608h-506l-139 -385q-17 -45 -19.5 -85.5t12.5 -71t48 -48.5t88 -18h14zM346 621h502l-258 665zM690 1788q28 -24 47.5 -43l41 -41t52.5 -51t82 -72l-4 -4
q-52 44 -84.5 68l-56.5 40.5l-45.5 31t-52.5 38.5q-31 -24 -52.5 -38.5l-46 -31t-57 -40.5t-84.5 -68l-4 4q51 43 81 71.5l51.5 50.5l41 41t49.5 44q10 8 21.5 8t19.5 -8zM774 -303q0 -23 -8 -42t-21.5 -33t-32 -22t-39.5 -8q-43 0 -70.5 29t-27.5 74q0 23 8 42.5t21.5 33.5
t31 22t37.5 8q45 0 73 -29t28 -75z" />
    <glyph glyph-name="Atilde" unicode="&#xc3;" horiz-adv-x="1382" 
d="M348 6v-6h-348v6h8q36 0 64 18.5t50.5 49.5t40.5 72t34 85l438 1203h76l557 -1428h114v-6h-430v6h135l-237 608h-506l-139 -385q-17 -45 -19.5 -85.5t12.5 -71t48 -48.5t88 -18h14zM346 621h502l-258 665zM866 1638q63 0 104.5 30t73.5 101h7q-17 -39 -36 -69
t-42.5 -50.5t-53.5 -31t-69 -10.5q-44 0 -76.5 10.5t-59 27t-49 35l-44.5 35t-47 27t-56 10.5q-63 0 -104.5 -30t-73.5 -101h-6q17 39 35.5 69t42.5 51t54 31.5t69 10.5q34 0 61 -11t50.5 -27t46 -35t47.5 -35t55.5 -27t70.5 -11z" />
    <glyph glyph-name="Adieresis" unicode="&#xc4;" horiz-adv-x="1382" 
d="M348 6v-6h-348v6h8q36 0 64 18.5t50.5 49.5t40.5 72t34 85l438 1203h76l557 -1428h114v-6h-430v6h135l-237 608h-506l-139 -385q-17 -45 -19.5 -85.5t12.5 -71t48 -48.5t88 -18h14zM346 621h502l-258 665zM610 1673q0 -45 -29 -74.5t-71 -29.5q-43 0 -70.5 28.5
t-27.5 73.5q0 47 29 77t69 30q45 0 72.5 -29t27.5 -76zM936 1673q0 -45 -29 -74.5t-71 -29.5q-44 0 -71.5 28.5t-27.5 73.5q0 47 29 77t70 30q45 0 72.5 -29t27.5 -76z" />
    <glyph glyph-name="Abreve" unicode="&#x102;" horiz-adv-x="1382" 
d="M348 6v-6h-348v6h8q36 0 64 18.5t50.5 49.5t40.5 72t34 85l438 1203h76l557 -1428h114v-6h-430v6h135l-237 608h-506l-139 -385q-17 -45 -19.5 -85.5t12.5 -71t48 -48.5t88 -18h14zM346 621h502l-258 665zM670 1610q53 0 101.5 10.5t89 32t72 54t50.5 77.5h6
q-42 -99 -121.5 -151t-197.5 -52q-119 0 -198.5 52t-121.5 151h6q19 -45 51 -77.5t72.5 -54t89 -32t101.5 -10.5z" />
    <glyph glyph-name="uni1EB0" unicode="&#x1eb0;" horiz-adv-x="1382" 
d="M348 6v-6h-348v6h8q36 0 64 18.5t50.5 49.5t40.5 72t34 85l438 1203h76l557 -1428h114v-6h-430v6h135l-237 608h-506l-139 -385q-17 -45 -19.5 -85.5t12.5 -71t48 -48.5t88 -18h14zM346 621h502l-258 665zM670 1610q53 0 101.5 10.5t89 32t72 54t50.5 77.5h6
q-42 -99 -121.5 -151t-197.5 -52q-119 0 -198.5 52t-121.5 151h6q19 -45 51 -77.5t72.5 -54t89 -32t101.5 -10.5zM411 2012q-9 3 -16.5 9.5t-7.5 14.5q0 10 5 14.5t13 4.5q7 0 11.5 -1t9.5 -3q35 -15 74.5 -36.5l85 -46.5l98 -52t112.5 -54l-2 -6q-121 57 -216 92t-167 64z
" />
    <glyph glyph-name="uni1EAE" unicode="&#x1eae;" horiz-adv-x="1382" 
d="M348 6v-6h-348v6h8q36 0 64 18.5t50.5 49.5t40.5 72t34 85l438 1203h76l557 -1428h114v-6h-430v6h135l-237 608h-506l-139 -385q-17 -45 -19.5 -85.5t12.5 -71t48 -48.5t88 -18h14zM346 621h502l-258 665zM670 1610q53 0 101.5 10.5t89 32t72 54t50.5 77.5h6
q-42 -99 -121.5 -151t-197.5 -52q-119 0 -198.5 52t-121.5 151h6q19 -45 51 -77.5t72.5 -54t89 -32t101.5 -10.5zM900 2012q-71 -29 -166 -64t-217 -92l-2 6q61 27 113 54l98 52l85.5 46.5t74.5 36.5q5 2 9.5 3t11.5 1q8 0 13 -4.5t5 -14.5q0 -8 -7.5 -14.5t-17.5 -9.5z" />
    <glyph glyph-name="uni1EB4" unicode="&#x1eb4;" horiz-adv-x="1382" 
d="M348 6v-6h-348v6h8q36 0 64 18.5t50.5 49.5t40.5 72t34 85l438 1203h76l557 -1428h114v-6h-430v6h135l-237 608h-506l-139 -385q-17 -45 -19.5 -85.5t12.5 -71t48 -48.5t88 -18h14zM346 621h502l-258 665zM670 1610q53 0 101.5 10.5t89 32t72 54t50.5 77.5h6
q-42 -99 -121.5 -151t-197.5 -52q-119 0 -198.5 52t-121.5 151h6q19 -45 51 -77.5t72.5 -54t89 -32t101.5 -10.5zM886 1917q63 0 104.5 30t73.5 101h7q-17 -39 -36 -69t-42.5 -50.5t-53.5 -31t-69 -10.5q-43 0 -76 10.5t-59.5 27t-49 35l-44.5 35t-47 27t-56 10.5
q-63 0 -104.5 -30t-73.5 -101h-6q17 39 35.5 69t42.5 51t54 31.5t69 10.5q34 0 61 -11t50.5 -27t46 -35t47.5 -35t55.5 -27t70.5 -11z" />
    <glyph glyph-name="uni1EB2" unicode="&#x1eb2;" horiz-adv-x="1382" 
d="M348 6v-6h-348v6h8q36 0 64 18.5t50.5 49.5t40.5 72t34 85l438 1203h76l557 -1428h114v-6h-430v6h135l-237 608h-506l-139 -385q-17 -45 -19.5 -85.5t12.5 -71t48 -48.5t88 -18h14zM346 621h502l-258 665zM670 1610q53 0 101.5 10.5t89 32t72 54t50.5 77.5h6
q-42 -99 -121.5 -151t-197.5 -52q-119 0 -198.5 52t-121.5 151h6q19 -45 51 -77.5t72.5 -54t89 -32t101.5 -10.5zM666 1826q-6 18 -9.5 33.5t-3.5 27.5q0 26 9 45.5t23 35.5t29.5 30.5t29.5 30.5t23 36t9 47q0 44 -28.5 71t-71.5 27q-23 0 -41 -5t-30.5 -12.5t-20 -15
t-8.5 -11.5h-7q14 23 41.5 38t67.5 15q63 0 99 -31t36 -84q0 -29 -14.5 -49t-35.5 -36.5l-43.5 -33t-38 -38t-19.5 -50.5t12 -71h-8z" />
    <glyph glyph-name="uni1EB6" unicode="&#x1eb6;" horiz-adv-x="1382" 
d="M348 6v-6h-348v6h8q36 0 64 18.5t50.5 49.5t40.5 72t34 85l438 1203h76l557 -1428h114v-6h-430v6h135l-237 608h-506l-139 -385q-17 -45 -19.5 -85.5t12.5 -71t48 -48.5t88 -18h14zM346 621h502l-258 665zM670 1610q53 0 101.5 10.5t89 32t72 54t50.5 77.5h6
q-42 -99 -121.5 -151t-197.5 -52q-119 0 -198.5 52t-121.5 151h6q19 -45 51 -77.5t72.5 -54t89 -32t101.5 -10.5zM774 -303q0 -23 -8 -42t-21.5 -33t-32 -22t-39.5 -8q-43 0 -70.5 29t-27.5 74q0 23 8 42.5t21.5 33.5t31 22t37.5 8q45 0 73 -29t28 -75z" />
    <glyph glyph-name="Aring" unicode="&#xc5;" horiz-adv-x="1382" 
d="M348 6v-6h-348v6h8q36 0 64 18.5t50.5 49.5t40.5 72t34 85l438 1203h76l557 -1428h114v-6h-430v6h135l-237 608h-506l-139 -385q-17 -45 -19.5 -85.5t12.5 -71t48 -48.5t88 -18h14zM346 621h502l-258 665zM479 1731q0 40 15 75t40.5 61t60.5 41t75 15t75 -15t61 -41
t41 -61t15 -75t-15 -75t-41 -60.5t-61 -40.5t-75 -15t-75 15t-60.5 40.5t-40.5 60.5t-15 75zM512 1731q0 -38 10 -71.5t29.5 -59t49.5 -40t69 -14.5t68.5 14.5t50 40t30.5 59t10 71.5q0 37 -10 71t-30.5 59.5t-50 40.5t-68.5 15t-69 -15t-49.5 -40.5t-29.5 -59.5t-10 -71z
" />
    <glyph glyph-name="uni1EA2" unicode="&#x1ea2;" horiz-adv-x="1382" 
d="M348 6v-6h-348v6h8q36 0 64 18.5t50.5 49.5t40.5 72t34 85l438 1203h76l557 -1428h114v-6h-430v6h135l-237 608h-506l-139 -385q-17 -45 -19.5 -85.5t12.5 -71t48 -48.5t88 -18h14zM346 621h502l-258 665zM666 1500q-6 18 -9.5 33.5t-3.5 27.5q0 26 9 45.5t23 35.5
t29.5 30.5t29.5 30.5t23 36t9 47q0 44 -28.5 71t-71.5 27q-23 0 -41 -5t-30.5 -12.5t-20 -15t-8.5 -11.5h-7q14 23 41.5 38t67.5 15q63 0 99 -31t36 -84q0 -29 -14.5 -49t-35.5 -36.5l-43.5 -33t-38 -38t-19.5 -50.5t12 -71h-8z" />
    <glyph glyph-name="uni1EA0" unicode="&#x1ea0;" horiz-adv-x="1382" 
d="M348 6v-6h-348v6h8q36 0 64 18.5t50.5 49.5t40.5 72t34 85l438 1203h76l557 -1428h114v-6h-430v6h135l-237 608h-506l-139 -385q-17 -45 -19.5 -85.5t12.5 -71t48 -48.5t88 -18h14zM346 621h502l-258 665zM774 -303q0 -23 -8 -42t-21.5 -33t-32 -22t-39.5 -8
q-43 0 -70.5 29t-27.5 74q0 23 8 42.5t21.5 33.5t31 22t37.5 8q45 0 73 -29t28 -75z" />
    <glyph glyph-name="AE" unicode="&#xc6;" horiz-adv-x="2013" 
d="M899 0v6h129v709h-440l-299 -486q-29 -45 -42 -85.5t-7 -71t34 -48.5t82 -18h15v-6h-346v6h8q36 0 69 18.5t64 49.5t59.5 72t55.5 85l739 1196h-180v7h1030v-357h-4q-16 94 -40.5 160.5t-65.5 108.5t-102.5 61.5t-152.5 19.5h-309v-706h197q70 0 119 14.5t81 43
t49.5 69.5t24.5 94h6v-448h-6q-7 53 -24.5 94t-49.5 69.5t-81 43t-119 14.5h-197v-709h330q90 0 151.5 19.5t102.5 61.5t65.5 108.5t40.5 160.5h4v-356h-991zM1028 1427l-436 -706h436v706z" />
    <glyph glyph-name="AEacute" unicode="&#x1fc;" horiz-adv-x="2028" 
d="M899 0v6h129v709h-440l-299 -486q-29 -45 -42 -85.5t-7 -71t34 -48.5t82 -18h15v-6h-346v6h8q36 0 69 18.5t64 49.5t59.5 72t55.5 85l739 1196h-180v7h1030v-357h-4q-16 94 -40.5 160.5t-65.5 108.5t-102.5 61.5t-152.5 19.5h-309v-706h197q70 0 119 14.5t81 43
t49.5 69.5t24.5 94h6v-448h-6q-7 53 -24.5 94t-49.5 69.5t-81 43t-119 14.5h-197v-709h330q90 0 151.5 19.5t102.5 61.5t65.5 108.5t40.5 160.5h4v-356h-991zM1028 1427l-436 -706h436v706zM1442 1831l-166.5 -64t-216.5 -92l-2 6q60 27 112.5 54l98 52l85 46.5t74.5 36.5
q5 2 10 3t11 1q8 0 13 -4.5t5 -14.5q0 -8 -7.5 -14.5t-16.5 -9.5z" />
    <glyph glyph-name="uni01E2" unicode="&#x1e2;" horiz-adv-x="2028" 
d="M899 0v6h129v709h-440l-299 -486q-29 -45 -42 -85.5t-7 -71t34 -48.5t82 -18h15v-6h-346v6h8q36 0 69 18.5t64 49.5t59.5 72t55.5 85l739 1196h-180v7h1030v-357h-4q-16 94 -40.5 160.5t-65.5 108.5t-102.5 61.5t-152.5 19.5h-309v-706h197q70 0 119 14.5t81 43
t49.5 69.5t24.5 94h6v-448h-6q-7 53 -24.5 94t-49.5 69.5t-81 43t-119 14.5h-197v-709h330q90 0 151.5 19.5t102.5 61.5t65.5 108.5t40.5 160.5h4v-356h-991zM1028 1427l-436 -706h436v706zM1698 1759q-70 0 -113 -1.5t-74 -3.5t-57.5 -3.5t-62.5 -1.5q-39 0 -65.5 1.5
t-56.5 3.5t-71 3.5t-108 1.5v6q67 0 108 1.5t71 3.5t56.5 3.5t65.5 1.5q36 0 62.5 -1.5t57.5 -3.5t74 -3.5t113 -1.5v-6z" />
    <glyph glyph-name="Ccedilla" unicode="&#xc7;" horiz-adv-x="1190" 
d="M657 -20q-88 1 -167 27t-145 73t-118.5 113.5t-89.5 147.5t-56.5 174t-19.5 194q0 106 21.5 202.5t62 179t97.5 150t128.5 115t155 73t176.5 25.5q66 0 111.5 -12t80.5 -26l65.5 -26t68.5 -12q34 0 53 21t19 55h6v-428h-6q-19 91 -48 168.5t-75 133t-113 87t-162 31.5
q-123 0 -209 -57t-140.5 -155.5t-79.5 -230.5t-25 -282q0 -152 35.5 -281t100.5 -223t156.5 -147.5t204.5 -53.5q71 0 133.5 21.5t110.5 62.5t80 102t41 140h8q-8 -79 -41 -145t-90 -114t-138 -75t-185 -28l-132 -138l11 5.5t25 9.5t39.5 9.5t54.5 4.5q37 0 70 -7
t57.5 -21.5t38.5 -37t14 -53.5t-15 -57t-41 -44.5t-62.5 -29t-78.5 -10.5t-73.5 9.5t-52.5 24.5t-31.5 32.5t-10.5 33.5q0 17 12 30t29 13q20 0 31.5 -11.5t11.5 -27.5q0 -17 -12.5 -27t-26.5 -10q-11 0 -16.5 4.5t-7.5 4.5q-4 0 -4 -4q0 -7 8.5 -18.5t25 -22t41.5 -18
t58 -7.5q83 0 124.5 36t41.5 93q0 60 -40.5 89.5t-111.5 29.5q-29 0 -50 -5t-34 -11q-16 -7 -25 -15h-12z" />
    <glyph glyph-name="Dcroat" unicode="&#x110;" horiz-adv-x="1305" 
d="M557 1434q160 0 287.5 -51.5t216 -145.5t135.5 -224.5t47 -287.5q0 -159 -52.5 -292t-144.5 -229.5t-217.5 -150t-271.5 -53.5h-516v6h129v703h-125v6h125v712h-129v7h516zM338 709v-703h203q128 0 225 54t161.5 149.5t97 224.5t32.5 279q0 145 -35.5 275t-102.5 227.5
t-163 154.5t-217 57h-201v-712h336v-6h-336z" />
    <glyph glyph-name="Egrave" unicode="&#xc8;" horiz-adv-x="1155" 
d="M338 715v-709h330q90 0 151.5 19.5t102.5 61.5t65.5 108.5t40.5 160.5h4v-356h-991v6h129v1421h-129v7h971v-357h-4q-16 94 -40.5 160.5t-65.5 108.5t-102.5 61.5t-152.5 19.5h-309v-706h197q70 0 119 14.5t81 43t49.5 69.5t24.5 94h6v-448h-6q-7 53 -24.5 94t-49.5 69.5
t-81 43t-119 14.5h-197zM377 1735q-9 3 -17 9.5t-8 14.5q0 19 19 19q6 0 10.5 -1t9.5 -3q35 -15 74.5 -36.5l85.5 -46.5l98 -52t113 -54l-2 -6q-122 57 -217 92t-166 64z" />
    <glyph glyph-name="Eacute" unicode="&#xc9;" horiz-adv-x="1155" 
d="M338 715v-709h330q90 0 151.5 19.5t102.5 61.5t65.5 108.5t40.5 160.5h4v-356h-991v6h129v1421h-129v7h971v-357h-4q-16 94 -40.5 160.5t-65.5 108.5t-102.5 61.5t-152.5 19.5h-309v-706h197q70 0 119 14.5t81 43t49.5 69.5t24.5 94h6v-448h-6q-7 53 -24.5 94t-49.5 69.5
t-81 43t-119 14.5h-197zM758 1735q-71 -29 -166 -64t-217 -92l-2 6q61 27 113 54l97.5 52l85 46.5t74.5 36.5q5 2 10 3t11 1q8 0 13 -4.5t5 -14.5q0 -8 -7.5 -14.5t-16.5 -9.5z" />
    <glyph glyph-name="uni1EC0" unicode="&#x1ec0;" horiz-adv-x="1155" 
d="M338 715v-709h330q90 0 151.5 19.5t102.5 61.5t65.5 108.5t40.5 160.5h4v-356h-991v6h129v1421h-129v7h971v-357h-4q-16 94 -40.5 160.5t-65.5 108.5t-102.5 61.5t-152.5 19.5h-309v-706h197q70 0 119 14.5t81 43t49.5 69.5t24.5 94h6v-448h-6q-7 53 -24.5 94t-49.5 69.5
t-81 43t-119 14.5h-197zM594 1788q28 -24 47.5 -43l41 -41t52.5 -51t82 -72l-4 -4q-52 44 -84.5 68t-57 40.5l-46 31t-52.5 38.5q-30 -24 -52 -38.5l-46 -31l-56.5 -40.5t-84.5 -68l-4 4q51 43 81 71.5l51.5 50.5l41 41t49.5 44q9 8 21 8t20 -8zM398 1960q-9 3 -16.5 9.5
t-7.5 14.5q0 10 5 14.5t13 4.5q7 0 11.5 -1t9.5 -3q35 -15 74.5 -36.5l85 -46.5l98 -52t112.5 -54l-2 -6q-121 57 -216 92t-167 64z" />
    <glyph glyph-name="uni1EC4" unicode="&#x1ec4;" horiz-adv-x="1155" 
d="M338 715v-709h330q90 0 151.5 19.5t102.5 61.5t65.5 108.5t40.5 160.5h4v-356h-991v6h129v1421h-129v7h971v-357h-4q-16 94 -40.5 160.5t-65.5 108.5t-102.5 61.5t-152.5 19.5h-309v-706h197q70 0 119 14.5t81 43t49.5 69.5t24.5 94h6v-448h-6q-7 53 -24.5 94t-49.5 69.5
t-81 43t-119 14.5h-197zM594 1788q28 -24 47.5 -43l41 -41t52.5 -51t82 -72l-4 -4q-52 44 -84.5 68t-57 40.5l-46 31t-52.5 38.5q-30 -24 -52 -38.5l-46 -31l-56.5 -40.5t-84.5 -68l-4 4q51 43 81 71.5l51.5 50.5l41 41t49.5 44q9 8 21 8t20 -8zM745 1917q63 0 104.5 30
t73.5 101h7q-17 -39 -36 -69t-42.5 -50.5t-53.5 -31t-69 -10.5q-44 0 -76.5 10.5t-59 27t-49 35l-44.5 35t-47 27t-56 10.5q-63 0 -104.5 -30t-73.5 -101h-6q17 39 35.5 69t42.5 51t54 31.5t69 10.5q34 0 61 -11t50.5 -27t46 -35t47.5 -35t55.5 -27t70.5 -11z" />
    <glyph glyph-name="uni1EC2" unicode="&#x1ec2;" horiz-adv-x="1155" 
d="M338 715v-709h330q90 0 151.5 19.5t102.5 61.5t65.5 108.5t40.5 160.5h4v-356h-991v6h129v1421h-129v7h971v-357h-4q-16 94 -40.5 160.5t-65.5 108.5t-102.5 61.5t-152.5 19.5h-309v-706h197q70 0 119 14.5t81 43t49.5 69.5t24.5 94h6v-448h-6q-7 53 -24.5 94t-49.5 69.5
t-81 43t-119 14.5h-197zM594 1788q28 -24 47.5 -43l41 -41t52.5 -51t82 -72l-4 -4q-52 44 -84.5 68t-57 40.5l-46 31t-52.5 38.5q-30 -24 -52 -38.5l-46 -31l-56.5 -40.5t-84.5 -68l-4 4q51 43 81 71.5l51.5 50.5l41 41t49.5 44q9 8 21 8t20 -8zM790 1683q-6 18 -9.5 33.5
t-3.5 27.5q0 26 9 45.5t23 35.5t29.5 30.5t29.5 30.5t23 36t9 47q0 44 -28.5 71t-71.5 27q-23 0 -41 -5t-30.5 -12.5t-20 -15t-8.5 -11.5h-7q14 23 41.5 38t67.5 15q63 0 99 -31t36 -84q0 -29 -14.5 -49t-35.5 -36.5l-43.5 -33t-38 -38t-19.5 -50.5t12 -71h-8z" />
    <glyph glyph-name="uni1EC6" unicode="&#x1ec6;" horiz-adv-x="1155" 
d="M338 715v-709h330q90 0 151.5 19.5t102.5 61.5t65.5 108.5t40.5 160.5h4v-356h-991v6h129v1421h-129v7h971v-357h-4q-16 94 -40.5 160.5t-65.5 108.5t-102.5 61.5t-152.5 19.5h-309v-706h197q70 0 119 14.5t81 43t49.5 69.5t24.5 94h6v-448h-6q-7 53 -24.5 94t-49.5 69.5
t-81 43t-119 14.5h-197zM594 1788q28 -24 47.5 -43l41 -41t52.5 -51t82 -72l-4 -4q-52 44 -84.5 68t-57 40.5l-46 31t-52.5 38.5q-30 -24 -52 -38.5l-46 -31l-56.5 -40.5t-84.5 -68l-4 4q51 43 81 71.5l51.5 50.5l41 41t49.5 44q9 8 21 8t20 -8zM677 -303q0 -23 -8 -42
t-21.5 -33t-32 -22t-39.5 -8q-43 0 -70.5 29t-27.5 74q0 23 8 42.5t21.5 33.5t31 22t37.5 8q45 0 73 -29t28 -75z" />
    <glyph glyph-name="uni1EBC" unicode="&#x1ebc;" horiz-adv-x="1155" 
d="M338 715v-709h330q90 0 151.5 19.5t102.5 61.5t65.5 108.5t40.5 160.5h4v-356h-991v6h129v1421h-129v7h971v-357h-4q-16 94 -40.5 160.5t-65.5 108.5t-102.5 61.5t-152.5 19.5h-309v-706h197q70 0 119 14.5t81 43t49.5 69.5t24.5 94h6v-448h-6q-7 53 -24.5 94t-49.5 69.5
t-81 43t-119 14.5h-197zM751 1638q63 0 104.5 30t73.5 101h7q-17 -39 -36 -69t-42.5 -50.5t-53.5 -31t-69 -10.5q-44 0 -76.5 10.5t-59 27t-49 35l-44.5 35t-47 27t-56 10.5q-63 0 -104.5 -30t-73.5 -101h-6q17 39 35.5 69t42.5 51t54 31.5t69 10.5q34 0 61 -11t50.5 -27
t46 -35t47.5 -35t55.5 -27t70.5 -11z" />
    <glyph glyph-name="Edieresis" unicode="&#xcb;" horiz-adv-x="1155" 
d="M338 715v-709h330q90 0 151.5 19.5t102.5 61.5t65.5 108.5t40.5 160.5h4v-356h-991v6h129v1421h-129v7h971v-357h-4q-16 94 -40.5 160.5t-65.5 108.5t-102.5 61.5t-152.5 19.5h-309v-706h197q70 0 119 14.5t81 43t49.5 69.5t24.5 94h6v-448h-6q-7 53 -24.5 94t-49.5 69.5
t-81 43t-119 14.5h-197zM514 1673q0 -45 -29 -74.5t-71 -29.5q-44 0 -71.5 28.5t-27.5 73.5q0 47 29 77t70 30q45 0 72.5 -29t27.5 -76zM840 1673q0 -22 -8 -41t-21.5 -33t-32 -22t-39.5 -8q-43 0 -70.5 28.5t-27.5 73.5q0 47 29 77t69 30q45 0 73 -29t28 -76z" />
    <glyph glyph-name="uni1EBA" unicode="&#x1eba;" horiz-adv-x="1155" 
d="M338 715v-709h330q90 0 151.5 19.5t102.5 61.5t65.5 108.5t40.5 160.5h4v-356h-991v6h129v1421h-129v7h971v-357h-4q-16 94 -40.5 160.5t-65.5 108.5t-102.5 61.5t-152.5 19.5h-309v-706h197q70 0 119 14.5t81 43t49.5 69.5t24.5 94h6v-448h-6q-7 53 -24.5 94t-49.5 69.5
t-81 43t-119 14.5h-197zM552 1500q-6 18 -9.5 33.5t-3.5 27.5q0 26 9 45.5t23 35.5t29.5 30.5t29.5 30.5t23 36t9 47q0 44 -28.5 71t-71.5 27q-23 0 -41 -5t-30.5 -12.5t-20 -15t-8.5 -11.5h-7q14 23 41.5 38t67.5 15q63 0 99 -31t36 -84q0 -29 -14.5 -49t-35.5 -36.5
l-43.5 -33t-38 -38t-19.5 -50.5t12 -71h-8z" />
    <glyph glyph-name="uni1EB8" unicode="&#x1eb8;" horiz-adv-x="1155" 
d="M338 715v-709h330q90 0 151.5 19.5t102.5 61.5t65.5 108.5t40.5 160.5h4v-356h-991v6h129v1421h-129v7h971v-357h-4q-16 94 -40.5 160.5t-65.5 108.5t-102.5 61.5t-152.5 19.5h-309v-706h197q70 0 119 14.5t81 43t49.5 69.5t24.5 94h6v-448h-6q-7 53 -24.5 94t-49.5 69.5
t-81 43t-119 14.5h-197zM677 -303q0 -23 -8 -42t-21.5 -33t-32 -22t-39.5 -8q-43 0 -70.5 29t-27.5 74q0 23 8 42.5t21.5 33.5t31 22t37.5 8q45 0 73 -29t28 -75z" />
    <glyph glyph-name="Igrave" unicode="&#xcc;" horiz-adv-x="506" 
d="M41 1427v7h424v-7h-127v-1421h127v-6h-424v6h129v1421h-129zM74 1735q-10 3 -17.5 9.5t-7.5 14.5q0 19 19 19q6 0 10.5 -1t9.5 -3q35 -15 74.5 -36.5l85.5 -46.5l98 -52t113 -54l-2 -6q-122 57 -217 92t-166 64z" />
    <glyph glyph-name="Iacute" unicode="&#xcd;" horiz-adv-x="506" 
d="M41 1427v7h424v-7h-127v-1421h127v-6h-424v6h129v1421h-129zM434 1735q-71 -29 -166 -64t-217 -92l-2 6q61 27 113 54l98 52l85.5 46.5t74.5 36.5q5 2 9.5 3t10.5 1q19 0 19 -19q0 -8 -8 -14.5t-17 -9.5z" />
    <glyph glyph-name="Icircumflex" unicode="&#xce;" horiz-adv-x="506" 
d="M41 1427v7h424v-7h-127v-1421h127v-6h-424v6h129v1421h-129zM274 1788q28 -24 47.5 -43l41.5 -41l52.5 -51t82.5 -72l-4 -4l-60.5 49l-45.5 34.5l-35.5 25l-30.5 20.5l-31.5 21.5t-36.5 27.5q-31 -24 -52.5 -38.5l-45.5 -31l-57 -40.5t-85 -68l-4 4q51 43 81.5 71.5
t52 50.5l40.5 41t49 44q10 8 21.5 8t19.5 -8z" />
    <glyph glyph-name="Itilde" unicode="&#x128;" horiz-adv-x="506" 
d="M41 1427v7h424v-7h-127v-1421h127v-6h-424v6h129v1421h-129zM440 1638q63 0 104.5 30t73.5 101h7q-17 -39 -36 -69t-42.5 -50.5t-53.5 -31t-69 -10.5q-43 0 -76 10.5t-59.5 27t-49 35l-44.5 35t-47 27t-56 10.5q-63 0 -104.5 -30t-73.5 -101h-6q17 39 35.5 69t42.5 51
t54 31.5t69 10.5q34 0 61 -11t50.5 -27t46 -35t47.5 -35t55.5 -27t70.5 -11z" />
    <glyph glyph-name="Idieresis" unicode="&#xcf;" horiz-adv-x="506" 
d="M41 1427v7h424v-7h-127v-1421h127v-6h-424v6h129v1421h-129zM190 1673q0 -45 -29 -74.5t-71 -29.5q-43 0 -70.5 28.5t-27.5 73.5q0 47 29 77t69 30q45 0 72.5 -29t27.5 -76zM516 1673q0 -45 -29 -74.5t-71 -29.5q-44 0 -71.5 28.5t-27.5 73.5q0 47 29 77t70 30
q45 0 72.5 -29t27.5 -76z" />
    <glyph glyph-name="uni1EC8" unicode="&#x1ec8;" horiz-adv-x="506" 
d="M41 1427v7h424v-7h-127v-1421h127v-6h-424v6h129v1421h-129zM249 1500q-6 18 -9.5 33.5t-3.5 27.5q0 26 9 45.5t23 35.5t29.5 30.5t29.5 30.5t23 36t9 47q0 44 -28.5 71t-71.5 27q-23 0 -41 -5t-30.5 -12.5t-20 -15t-8.5 -11.5h-7q14 23 41.5 38t67.5 15q63 0 99 -31
t36 -84q0 -29 -14.5 -49t-35.5 -36.5l-43.5 -33t-38 -38t-19.5 -50.5t12 -71h-8z" />
    <glyph glyph-name="uni1ECA" unicode="&#x1eca;" horiz-adv-x="506" 
d="M41 1427v7h424v-7h-127v-1421h127v-6h-424v6h129v1421h-129zM353 -303q0 -23 -8 -42t-21.5 -33t-32 -22t-39.5 -8q-43 0 -70.5 29t-27.5 74q0 23 8 42.5t21.5 33.5t31 22t37.5 8q45 0 73 -29t28 -75z" />
    <glyph glyph-name="IJ" unicode="&#x132;" horiz-adv-x="506" 
d="M41 1427v7h424v-7h-127v-1421h127v-6h-424v6h129v1421h-129zM745 1427v7h424v-7h-127v-1021q0 -84 -12.5 -160.5t-42 -134.5t-78.5 -92.5t-121 -34.5q-53 0 -94 17.5t-68.5 47.5t-42 69.5t-14.5 84.5q0 30 9.5 55.5t25 44t37 29t45.5 10.5q52 0 80 -31t28 -78
q0 -27 -9 -47.5t-24 -34.5t-34.5 -21t-40.5 -7q-26 0 -43 8t-23 8q-10 0 -10 -10q0 -17 10 -41t31.5 -46.5t55 -38t81.5 -15.5q41 0 76 13t60.5 38t40 62.5t14.5 86.5t-8 90.5t-19.5 82.5t-25 84.5t-25 95.5t-19.5 116.5t-8 147.5v622h-129z" />
    <glyph glyph-name="Ntilde" unicode="&#xd1;" horiz-adv-x="1317" 
d="M178 1413v-1151q0 -68 11.5 -116.5t31 -79.5t44.5 -45.5t52 -14.5h11v-6h-287v6q28 0 51.5 14.5t40.5 45.5t27 79.5t10 116.5v1165h-129v7h315l793 -1358v1095q0 69 -11.5 117.5t-31 79t-44.5 45t-52 14.5h-11v7h287v-7q-28 0 -51.5 -14.5t-41 -45t-27 -79t-9.5 -117.5
v-1171h-143zM850 1638q63 0 104.5 30t73.5 101h6q-17 -39 -35.5 -69t-42 -50.5t-53.5 -31t-69 -10.5q-44 0 -77 10.5t-59.5 27t-48.5 35t-44.5 35t-47 27t-55.5 10.5q-63 0 -104.5 -30t-73.5 -101h-7q17 39 36 69t42.5 51t53.5 31.5t69 10.5q34 0 61 -11t50.5 -27t46 -35
t48 -35t56 -27t70.5 -11z" />
    <glyph glyph-name="Ograve" unicode="&#xd2;" horiz-adv-x="1442" 
d="M721 1454q160 0 283.5 -55t206.5 -152t126 -231t43 -291q0 -106 -22 -202.5t-62.5 -179.5t-99 -151t-131.5 -115.5t-160 -73.5t-184 -26q-161 0 -284 55.5t-206.5 153t-126.5 231.5t-43 292q0 106 22 202.5t63 179t99.5 150t131.5 115t160 73t184 25.5zM721 -14
q128 0 218 57.5t146.5 156t82.5 231t26 282.5q0 145 -28.5 277.5t-87 234t-147.5 161.5t-210 60q-128 0 -218 -57t-146.5 -155.5t-82.5 -230.5t-26 -282q0 -145 28.5 -278t86.5 -234.5t147 -162t211 -60.5zM541 1735q-10 3 -17.5 9.5t-7.5 14.5q0 19 19 19q6 0 10.5 -1
t9.5 -3q35 -15 74.5 -36.5l85.5 -46.5l98 -52t113 -54l-2 -6q-122 57 -217 92t-166 64z" />
    <glyph glyph-name="Oacute" unicode="&#xd3;" horiz-adv-x="1442" 
d="M721 1454q160 0 283.5 -55t206.5 -152t126 -231t43 -291q0 -106 -22 -202.5t-62.5 -179.5t-99 -151t-131.5 -115.5t-160 -73.5t-184 -26q-161 0 -284 55.5t-206.5 153t-126.5 231.5t-43 292q0 106 22 202.5t63 179t99.5 150t131.5 115t160 73t184 25.5zM721 -14
q128 0 218 57.5t146.5 156t82.5 231t26 282.5q0 145 -28.5 277.5t-87 234t-147.5 161.5t-210 60q-128 0 -218 -57t-146.5 -155.5t-82.5 -230.5t-26 -282q0 -145 28.5 -278t86.5 -234.5t147 -162t211 -60.5zM901 1735q-71 -29 -166 -64t-217 -92l-2 6q61 27 113 54l98 52
l85.5 46.5t74.5 36.5q5 2 9.5 3t10.5 1q19 0 19 -19q0 -8 -8 -14.5t-17 -9.5z" />
    <glyph glyph-name="Ocircumflex" unicode="&#xd4;" horiz-adv-x="1442" 
d="M721 1454q160 0 283.5 -55t206.5 -152t126 -231t43 -291q0 -106 -22 -202.5t-62.5 -179.5t-99 -151t-131.5 -115.5t-160 -73.5t-184 -26q-161 0 -284 55.5t-206.5 153t-126.5 231.5t-43 292q0 106 22 202.5t63 179t99.5 150t131.5 115t160 73t184 25.5zM721 -14
q128 0 218 57.5t146.5 156t82.5 231t26 282.5q0 145 -28.5 277.5t-87 234t-147.5 161.5t-210 60q-128 0 -218 -57t-146.5 -155.5t-82.5 -230.5t-26 -282q0 -145 28.5 -278t86.5 -234.5t147 -162t211 -60.5zM741 1788q28 -24 47.5 -43l41.5 -41l52.5 -51t82.5 -72l-4 -4
l-60.5 49l-45.5 34.5l-35.5 25l-30.5 20.5l-31.5 21.5t-36.5 27.5q-31 -24 -52.5 -38.5l-45.5 -31l-57 -40.5t-85 -68l-4 4q51 43 81.5 71.5t52 50.5l40.5 41t49 44q10 8 21.5 8t19.5 -8z" />
    <glyph glyph-name="uni1ED2" unicode="&#x1ed2;" horiz-adv-x="1442" 
d="M721 1454q160 0 283.5 -55t206.5 -152t126 -231t43 -291q0 -106 -22 -202.5t-62.5 -179.5t-99 -151t-131.5 -115.5t-160 -73.5t-184 -26q-161 0 -284 55.5t-206.5 153t-126.5 231.5t-43 292q0 106 22 202.5t63 179t99.5 150t131.5 115t160 73t184 25.5zM721 -14
q128 0 218 57.5t146.5 156t82.5 231t26 282.5q0 145 -28.5 277.5t-87 234t-147.5 161.5t-210 60q-128 0 -218 -57t-146.5 -155.5t-82.5 -230.5t-26 -282q0 -145 28.5 -278t86.5 -234.5t147 -162t211 -60.5zM741 1788q28 -24 47.5 -43l41.5 -41l52.5 -51t82.5 -72l-4 -4
l-60.5 49l-45.5 34.5l-35.5 25l-30.5 20.5l-31.5 21.5t-36.5 27.5q-31 -24 -52.5 -38.5l-45.5 -31l-57 -40.5t-85 -68l-4 4q51 43 81.5 71.5t52 50.5l40.5 41t49 44q10 8 21.5 8t19.5 -8zM548 1960q-9 3 -16.5 9.5t-7.5 14.5q0 10 5 14.5t13 4.5q7 0 11.5 -1t9.5 -3
q35 -15 74.5 -36.5l85 -46.5l98 -52t112.5 -54l-2 -6q-121 57 -216 92t-167 64z" />
    <glyph glyph-name="uni1ED0" unicode="&#x1ed0;" horiz-adv-x="1442" 
d="M721 1454q-97 0 -184 -25.5t-160 -73t-131.5 -115t-99.5 -150t-63 -179t-22 -202.5q0 -158 43 -292t126.5 -231.5t206.5 -153t284 -55.5q97 0 184 26t160 73.5t131.5 115.5t99 151t62.5 179.5t22 202.5q0 157 -43 291t-126 231t-206.5 152t-283.5 55zM721 -14
q-122 0 -211 60.5t-147 162t-86.5 234.5t-28.5 278q0 150 26 282t82.5 230.5t146.5 155.5t218 57q121 0 210 -60t147.5 -161.5t87 -234t28.5 -277.5q0 -150 -26 -282.5t-82.5 -231t-146.5 -156t-218 -57.5zM741 1788q-8 8 -19.5 8t-21.5 -8q-30 -25 -49 -44l-40.5 -41
t-52 -50.5t-81.5 -71.5l4 -4q52 44 85 68l57 40.5l45.5 31t52.5 38.5q20 -16 36.5 -27.5l31.5 -21.5l30.5 -20.5l35.5 -25l45.5 -34.5l60.5 -49l4 4q-52 43 -82.5 72l-52.5 51l-41.5 41t-47.5 43zM902 1960q-72 -29 -167 -64t-216 -92l-2 6q60 27 112.5 54l98 52l85 46.5
t74.5 36.5q5 2 9.5 3t11.5 1q8 0 13 -4.5t5 -14.5q0 -8 -7.5 -14.5t-16.5 -9.5z" />
    <glyph glyph-name="uni1ED6" unicode="&#x1ed6;" horiz-adv-x="1442" 
d="M721 1454q160 0 283.5 -55t206.5 -152t126 -231t43 -291q0 -106 -22 -202.5t-62.5 -179.5t-99 -151t-131.5 -115.5t-160 -73.5t-184 -26q-161 0 -284 55.5t-206.5 153t-126.5 231.5t-43 292q0 106 22 202.5t63 179t99.5 150t131.5 115t160 73t184 25.5zM721 -14
q128 0 218 57.5t146.5 156t82.5 231t26 282.5q0 145 -28.5 277.5t-87 234t-147.5 161.5t-210 60q-128 0 -218 -57t-146.5 -155.5t-82.5 -230.5t-26 -282q0 -145 28.5 -278t86.5 -234.5t147 -162t211 -60.5zM741 1788q28 -24 47.5 -43l41.5 -41l52.5 -51t82.5 -72l-4 -4
l-60.5 49l-45.5 34.5l-35.5 25l-30.5 20.5l-31.5 21.5t-36.5 27.5q-31 -24 -52.5 -38.5l-45.5 -31l-57 -40.5t-85 -68l-4 4q51 43 81.5 71.5t52 50.5l40.5 41t49 44q10 8 21.5 8t19.5 -8zM895 1917q63 0 104.5 30t73.5 101h7q-17 -39 -36 -69t-42.5 -50.5t-53.5 -31
t-69 -10.5q-44 0 -76.5 10.5t-59 27t-49 35l-44.5 35t-47 27t-56 10.5q-63 0 -104.5 -30t-73.5 -101h-6q17 39 35.5 69t42.5 51t54 31.5t69 10.5q34 0 61 -11t50.5 -27t46 -35t47.5 -35t55.5 -27t70.5 -11z" />
    <glyph glyph-name="uni1ED4" unicode="&#x1ed4;" horiz-adv-x="1442" 
d="M721 1454q160 0 283.5 -55t206.5 -152t126 -231t43 -291q0 -106 -22 -202.5t-62.5 -179.5t-99 -151t-131.5 -115.5t-160 -73.5t-184 -26q-161 0 -284 55.5t-206.5 153t-126.5 231.5t-43 292q0 106 22 202.5t63 179t99.5 150t131.5 115t160 73t184 25.5zM721 -14
q128 0 218 57.5t146.5 156t82.5 231t26 282.5q0 145 -28.5 277.5t-87 234t-147.5 161.5t-210 60q-128 0 -218 -57t-146.5 -155.5t-82.5 -230.5t-26 -282q0 -145 28.5 -278t86.5 -234.5t147 -162t211 -60.5zM741 1788q28 -24 47.5 -43l41.5 -41l52.5 -51t82.5 -72l-4 -4
l-60.5 49l-45.5 34.5l-35.5 25l-30.5 20.5l-31.5 21.5t-36.5 27.5q-31 -24 -52.5 -38.5l-45.5 -31l-57 -40.5t-85 -68l-4 4q51 43 81.5 71.5t52 50.5l40.5 41t49 44q10 8 21.5 8t19.5 -8zM930 1683q-6 18 -9.5 33.5t-3.5 27.5q0 26 9 45.5t23 35.5t29.5 30.5t29.5 30.5
t23 36t9 47q0 44 -28.5 71t-71.5 27q-23 0 -41 -5t-30.5 -12.5t-20 -15t-8.5 -11.5h-7q14 23 41.5 38t67.5 15q63 0 99 -31t36 -84q0 -29 -14.5 -49t-35.5 -36.5l-43.5 -33t-38 -38t-19.5 -50.5t12 -71h-8z" />
    <glyph glyph-name="uni1ED8" unicode="&#x1ed8;" horiz-adv-x="1442" 
d="M721 1454q160 0 283.5 -55t206.5 -152t126 -231t43 -291q0 -106 -22 -202.5t-62.5 -179.5t-99 -151t-131.5 -115.5t-160 -73.5t-184 -26q-161 0 -284 55.5t-206.5 153t-126.5 231.5t-43 292q0 106 22 202.5t63 179t99.5 150t131.5 115t160 73t184 25.5zM721 -14
q128 0 218 57.5t146.5 156t82.5 231t26 282.5q0 145 -28.5 277.5t-87 234t-147.5 161.5t-210 60q-128 0 -218 -57t-146.5 -155.5t-82.5 -230.5t-26 -282q0 -145 28.5 -278t86.5 -234.5t147 -162t211 -60.5zM741 1788q28 -24 47.5 -43l41.5 -41l52.5 -51t82.5 -72l-4 -4
l-60.5 49l-45.5 34.5l-35.5 25l-30.5 20.5l-31.5 21.5t-36.5 27.5q-31 -24 -52.5 -38.5l-45.5 -31l-57 -40.5t-85 -68l-4 4q51 43 81.5 71.5t52 50.5l40.5 41t49 44q10 8 21.5 8t19.5 -8zM823 -303q0 -23 -8 -42t-21.5 -33t-32 -22t-39.5 -8q-43 0 -70.5 29t-27.5 74
q0 23 8 42.5t21.5 33.5t31 22t37.5 8q45 0 73 -29t28 -75z" />
    <glyph glyph-name="Otilde" unicode="&#xd5;" horiz-adv-x="1442" 
d="M721 1454q160 0 283.5 -55t206.5 -152t126 -231t43 -291q0 -106 -22 -202.5t-62.5 -179.5t-99 -151t-131.5 -115.5t-160 -73.5t-184 -26q-161 0 -284 55.5t-206.5 153t-126.5 231.5t-43 292q0 106 22 202.5t63 179t99.5 150t131.5 115t160 73t184 25.5zM721 -14
q128 0 218 57.5t146.5 156t82.5 231t26 282.5q0 145 -28.5 277.5t-87 234t-147.5 161.5t-210 60q-128 0 -218 -57t-146.5 -155.5t-82.5 -230.5t-26 -282q0 -145 28.5 -278t86.5 -234.5t147 -162t211 -60.5zM895 1638q63 0 104.5 30t73.5 101h6q-17 -39 -35.5 -69t-42 -50.5
t-53.5 -31t-69 -10.5q-44 0 -76.5 10.5t-59 27t-49 35l-44.5 35t-47 27t-56 10.5q-63 0 -104.5 -30t-73.5 -101h-7q17 39 36 69t42.5 51t53.5 31.5t69 10.5q34 0 61 -11t50.5 -27t46 -35t48 -35t56 -27t70.5 -11z" />
    <glyph glyph-name="Odieresis" unicode="&#xd6;" horiz-adv-x="1442" 
d="M721 1454q160 0 283.5 -55t206.5 -152t126 -231t43 -291q0 -106 -22 -202.5t-62.5 -179.5t-99 -151t-131.5 -115.5t-160 -73.5t-184 -26q-161 0 -284 55.5t-206.5 153t-126.5 231.5t-43 292q0 106 22 202.5t63 179t99.5 150t131.5 115t160 73t184 25.5zM721 -14
q128 0 218 57.5t146.5 156t82.5 231t26 282.5q0 145 -28.5 277.5t-87 234t-147.5 161.5t-210 60q-128 0 -218 -57t-146.5 -155.5t-82.5 -230.5t-26 -282q0 -145 28.5 -278t86.5 -234.5t147 -162t211 -60.5zM662 1673q0 -45 -29.5 -74.5t-71.5 -29.5q-43 0 -70.5 28.5
t-27.5 73.5q0 47 29 77t69 30q45 0 73 -29t28 -76zM987 1673q0 -45 -29 -74.5t-71 -29.5q-44 0 -71.5 28.5t-27.5 73.5q0 23 8 42.5t21.5 34t31.5 22.5t38 8q45 0 72.5 -29t27.5 -76z" />
    <glyph glyph-name="uni1ECE" unicode="&#x1ece;" horiz-adv-x="1442" 
d="M721 1454q160 0 283.5 -55t206.5 -152t126 -231t43 -291q0 -106 -22 -202.5t-62.5 -179.5t-99 -151t-131.5 -115.5t-160 -73.5t-184 -26q-161 0 -284 55.5t-206.5 153t-126.5 231.5t-43 292q0 106 22 202.5t63 179t99.5 150t131.5 115t160 73t184 25.5zM721 -14
q128 0 218 57.5t146.5 156t82.5 231t26 282.5q0 145 -28.5 277.5t-87 234t-147.5 161.5t-210 60q-128 0 -218 -57t-146.5 -155.5t-82.5 -230.5t-26 -282q0 -145 28.5 -278t86.5 -234.5t147 -162t211 -60.5zM696 1500q-6 18 -9.5 33.5t-3.5 27.5q0 26 9 45.5t23 35.5
t29.5 30.5t29.5 30.5t23 36t9 47q0 44 -28.5 71t-71.5 27q-23 0 -41 -5t-30.5 -12.5t-20 -15t-8.5 -11.5h-7q14 23 41.5 38t67.5 15q63 0 99 -31t36 -84q0 -29 -14.5 -49t-35.5 -36.5l-43.5 -33t-38 -38t-19.5 -50.5t12 -71h-8z" />
    <glyph glyph-name="uni1ECC" unicode="&#x1ecc;" horiz-adv-x="1442" 
d="M721 1454q160 0 283.5 -55t206.5 -152t126 -231t43 -291q0 -106 -22 -202.5t-62.5 -179.5t-99 -151t-131.5 -115.5t-160 -73.5t-184 -26q-161 0 -284 55.5t-206.5 153t-126.5 231.5t-43 292q0 106 22 202.5t63 179t99.5 150t131.5 115t160 73t184 25.5zM721 -14
q128 0 218 57.5t146.5 156t82.5 231t26 282.5q0 145 -28.5 277.5t-87 234t-147.5 161.5t-210 60q-128 0 -218 -57t-146.5 -155.5t-82.5 -230.5t-26 -282q0 -145 28.5 -278t86.5 -234.5t147 -162t211 -60.5zM803 -303q0 -23 -8 -42t-21.5 -33t-32 -22t-39.5 -8
q-43 0 -70.5 29t-27.5 74q0 23 8 42.5t21.5 33.5t31 22t37.5 8q45 0 73 -29t28 -75z" />
    <glyph glyph-name="Ohorn" unicode="&#x1a0;" horiz-adv-x="1442" 
d="M721 1454q145 0 259 -44.5t196 -125.5q43 14 72.5 38.5t48.5 52t27.5 54.5t8.5 46q0 10 -10 10q-5 0 -21 -8.5t-40 -8.5q-20 0 -38.5 7t-32.5 20t-23 32.5t-9 45.5q0 43 28 73.5t75 30.5q25 0 45.5 -9.5t34.5 -26.5t22 -39.5t8 -47.5q0 -36 -11.5 -77.5t-35.5 -80.5
t-60 -70.5t-85 -47.5q99 -99 149.5 -240.5t50.5 -312.5q0 -106 -22 -202.5t-62.5 -179.5t-99 -151t-131.5 -115.5t-160 -73.5t-184 -26q-161 0 -284 55.5t-206.5 153t-126.5 231.5t-43 292q0 106 22 202.5t63 179t99.5 150t131.5 115t160 73t184 25.5zM721 -14
q128 0 218 57.5t146.5 156t82.5 231t26 282.5q0 145 -28.5 277.5t-87 234t-147.5 161.5t-210 60q-128 0 -218 -57t-146.5 -155.5t-82.5 -230.5t-26 -282q0 -145 28.5 -278t86.5 -234.5t147 -162t211 -60.5z" />
    <glyph glyph-name="uni1EDC" unicode="&#x1edc;" horiz-adv-x="1442" 
d="M541 1735q-10 3 -17.5 9.5t-7.5 14.5q0 19 19 19q6 0 10.5 -1t9.5 -3q35 -15 74.5 -36.5l85.5 -46.5l98 -52t113 -54l-2 -6q-122 57 -217 92t-166 64zM721 1454q145 0 259 -44.5t196 -125.5q43 14 72.5 38.5t48.5 52t27.5 54.5t8.5 46q0 10 -10 10q-5 0 -21 -8.5
t-40 -8.5q-20 0 -38.5 7t-32.5 20t-23 32.5t-9 45.5q0 43 28 73.5t75 30.5q25 0 45.5 -9.5t34.5 -26.5t22 -39.5t8 -47.5q0 -36 -11.5 -77.5t-35.5 -80.5t-60 -70.5t-85 -47.5q99 -99 149.5 -240.5t50.5 -312.5q0 -106 -22 -202.5t-62.5 -179.5t-99 -151t-131.5 -115.5
t-160 -73.5t-184 -26q-161 0 -284 55.5t-206.5 153t-126.5 231.5t-43 292q0 106 22 202.5t63 179t99.5 150t131.5 115t160 73t184 25.5zM721 -14q128 0 218 57.5t146.5 156t82.5 231t26 282.5q0 145 -28.5 277.5t-87 234t-147.5 161.5t-210 60q-128 0 -218 -57
t-146.5 -155.5t-82.5 -230.5t-26 -282q0 -145 28.5 -278t86.5 -234.5t147 -162t211 -60.5z" />
    <glyph glyph-name="uni1EDA" unicode="&#x1eda;" horiz-adv-x="1442" 
d="M901 1735q-71 -29 -166 -64t-217 -92l-2 6q61 27 113 54l98 52l85.5 46.5t74.5 36.5q5 2 9.5 3t10.5 1q19 0 19 -19q0 -8 -8 -14.5t-17 -9.5zM721 1454q145 0 259 -44.5t196 -125.5q43 14 72.5 38.5t48.5 52t27.5 54.5t8.5 46q0 10 -10 10q-5 0 -21 -8.5t-40 -8.5
q-20 0 -38.5 7t-32.5 20t-23 32.5t-9 45.5q0 43 28 73.5t75 30.5q25 0 45.5 -9.5t34.5 -26.5t22 -39.5t8 -47.5q0 -36 -11.5 -77.5t-35.5 -80.5t-60 -70.5t-85 -47.5q99 -99 149.5 -240.5t50.5 -312.5q0 -106 -22 -202.5t-62.5 -179.5t-99 -151t-131.5 -115.5t-160 -73.5
t-184 -26q-161 0 -284 55.5t-206.5 153t-126.5 231.5t-43 292q0 106 22 202.5t63 179t99.5 150t131.5 115t160 73t184 25.5zM721 -14q128 0 218 57.5t146.5 156t82.5 231t26 282.5q0 145 -28.5 277.5t-87 234t-147.5 161.5t-210 60q-128 0 -218 -57t-146.5 -155.5
t-82.5 -230.5t-26 -282q0 -145 28.5 -278t86.5 -234.5t147 -162t211 -60.5z" />
    <glyph glyph-name="uni1EE0" unicode="&#x1ee0;" horiz-adv-x="1442" 
d="M895 1638q63 0 104.5 30t73.5 101h6q-17 -39 -35.5 -69t-42 -50.5t-53.5 -31t-69 -10.5q-44 0 -76.5 10.5t-59 27t-49 35l-44.5 35t-47 27t-56 10.5q-63 0 -104.5 -30t-73.5 -101h-7q17 39 36 69t42.5 51t53.5 31.5t69 10.5q34 0 61 -11t50.5 -27t46 -35t48 -35t56 -27
t70.5 -11zM721 1454q145 0 259 -44.5t196 -125.5q43 14 72.5 38.5t48.5 52t27.5 54.5t8.5 46q0 10 -10 10q-5 0 -21 -8.5t-40 -8.5q-20 0 -38.5 7t-32.5 20t-23 32.5t-9 45.5q0 43 28 73.5t75 30.5q25 0 45.5 -9.5t34.5 -26.5t22 -39.5t8 -47.5q0 -36 -11.5 -77.5
t-35.5 -80.5t-60 -70.5t-85 -47.5q99 -99 149.5 -240.5t50.5 -312.5q0 -106 -22 -202.5t-62.5 -179.5t-99 -151t-131.5 -115.5t-160 -73.5t-184 -26q-161 0 -284 55.5t-206.5 153t-126.5 231.5t-43 292q0 106 22 202.5t63 179t99.5 150t131.5 115t160 73t184 25.5zM721 -14
q128 0 218 57.5t146.5 156t82.5 231t26 282.5q0 145 -28.5 277.5t-87 234t-147.5 161.5t-210 60q-128 0 -218 -57t-146.5 -155.5t-82.5 -230.5t-26 -282q0 -145 28.5 -278t86.5 -234.5t147 -162t211 -60.5z" />
    <glyph glyph-name="uni1EDE" unicode="&#x1ede;" horiz-adv-x="1442" 
d="M721 1454q145 0 259 -44.5t196 -125.5q43 14 72.5 38.5t48.5 52t27.5 54.5t8.5 46q0 10 -10 10q-5 0 -21 -8.5t-40 -8.5q-20 0 -38.5 7t-32.5 20t-23 32.5t-9 45.5q0 43 28 73.5t75 30.5q25 0 45.5 -9.5t34.5 -26.5t22 -39.5t8 -47.5q0 -36 -11.5 -77.5t-35.5 -80.5
t-60 -70.5t-85 -47.5q99 -99 149.5 -240.5t50.5 -312.5q0 -106 -22 -202.5t-62.5 -179.5t-99 -151t-131.5 -115.5t-160 -73.5t-184 -26q-161 0 -284 55.5t-206.5 153t-126.5 231.5t-43 292q0 106 22 202.5t63 179t99.5 150t131.5 115t160 73t184 25.5zM721 -14
q128 0 218 57.5t146.5 156t82.5 231t26 282.5q0 145 -28.5 277.5t-87 234t-147.5 161.5t-210 60q-128 0 -218 -57t-146.5 -155.5t-82.5 -230.5t-26 -282q0 -145 28.5 -278t86.5 -234.5t147 -162t211 -60.5zM696 1500q-6 18 -9.5 33.5t-3.5 27.5q0 26 9 45.5t23 35.5
t29.5 30.5t29.5 30.5t23 36t9 47q0 44 -28.5 71t-71.5 27q-23 0 -41 -5t-30.5 -12.5t-20 -15t-8.5 -11.5h-7q14 23 41.5 38t67.5 15q63 0 99 -31t36 -84q0 -29 -14.5 -49t-35.5 -36.5l-43.5 -33t-38 -38t-19.5 -50.5t12 -71h-8z" />
    <glyph glyph-name="uni1EE2" unicode="&#x1ee2;" horiz-adv-x="1442" 
d="M721 1454q145 0 259 -44.5t196 -125.5q43 14 72.5 38.5t48.5 52t27.5 54.5t8.5 46q0 10 -10 10q-5 0 -21 -8.5t-40 -8.5q-20 0 -38.5 7t-32.5 20t-23 32.5t-9 45.5q0 43 28 73.5t75 30.5q25 0 45.5 -9.5t34.5 -26.5t22 -39.5t8 -47.5q0 -36 -11.5 -77.5t-35.5 -80.5
t-60 -70.5t-85 -47.5q99 -99 149.5 -240.5t50.5 -312.5q0 -106 -22 -202.5t-62.5 -179.5t-99 -151t-131.5 -115.5t-160 -73.5t-184 -26q-161 0 -284 55.5t-206.5 153t-126.5 231.5t-43 292q0 106 22 202.5t63 179t99.5 150t131.5 115t160 73t184 25.5zM721 -14
q128 0 218 57.5t146.5 156t82.5 231t26 282.5q0 145 -28.5 277.5t-87 234t-147.5 161.5t-210 60q-128 0 -218 -57t-146.5 -155.5t-82.5 -230.5t-26 -282q0 -145 28.5 -278t86.5 -234.5t147 -162t211 -60.5zM803 -303q0 -23 -8 -42t-21.5 -33t-32 -22t-39.5 -8
q-43 0 -70.5 29t-27.5 74q0 23 8 42.5t21.5 33.5t31 22t37.5 8q45 0 73 -29t28 -75z" />
    <glyph glyph-name="Oslash" unicode="&#xd8;" horiz-adv-x="1442" 
d="M1196 1516l-96 -170q69 -47 121.5 -112t87.5 -144.5t53 -171.5t18 -193q0 -106 -22 -202.5t-62.5 -179.5t-99 -151t-131.5 -115.5t-160 -73.5t-184 -26q-106 0 -195 24t-161 69l-103 -176h-6l55 95.5l49 84.5q-74 46 -129.5 111.5t-93.5 146.5t-57 176.5t-19 200.5
q0 106 22 202.5t63 179t99.5 150t131.5 115t160 73t184 25.5q112 0 205.5 -27.5t169.5 -76.5l44.5 78l51.5 88h4zM248 721q0 -84 9.5 -165t28 -154.5t47.5 -138t68 -116.5l65 114l53.5 95l46.5 83.5l45 80.5l48.5 85.5l57.5 99.5l55 93.5l48 82l47 79.5l51 86l59.5 100.5
l73.5 123.5q-59 81 -141.5 128.5t-188.5 47.5q-128 0 -218 -57t-146.5 -155.5t-82.5 -230.5t-26 -282zM721 -14q128 0 218 57.5t146.5 156t82.5 231t26 282.5q0 80 -8.5 157t-26 147.5t-44 133.5t-62.5 115l-69 -123l-55 -99.5l-47 -85l-44 -79l-46 -82l-53 -92.5
l-58.5 -100l-51 -86l-48 -81l-50 -84l-57 -96l-68.5 -117q57 -72 135 -113.5t180 -41.5z" />
    <glyph glyph-name="OE" unicode="&#x152;" horiz-adv-x="2017" 
d="M924 1427q111 -32 196.5 -96.5t143 -155.5t87 -205.5t29.5 -244.5v-4h43q70 0 119 14.5t81.5 43t50 69.5t24.5 94h6v-448h-6q-7 53 -24.5 94t-50 69.5t-81.5 43t-119 14.5h-43q-2 -130 -35.5 -245t-94 -207t-146.5 -158.5t-191 -98.5h617q91 0 152.5 19.5t102 61.5
t65 108.5t40.5 160.5h4v-356h-919q-29 0 -64 -3.5t-70 -8t-66.5 -8t-53.5 -3.5q-161 0 -284 55.5t-206.5 153t-126.5 231.5t-43 292q0 106 22 202.5t63 179t99.5 150t131.5 115t160 73t184 25.5q24 0 59 -3t72.5 -7t74.5 -7t66 -3h881v-357h-4q-16 94 -40.5 160.5
t-65.5 108.5t-102.5 61.5t-152.5 19.5h-585zM721 -14q128 0 218 57.5t146.5 156t82.5 231t26 282.5q0 145 -28.5 277.5t-87 234t-147.5 161.5t-210 60q-128 0 -218 -57t-146.5 -155.5t-82.5 -230.5t-26 -282q0 -145 28.5 -278t86.5 -234.5t147 -162t211 -60.5z" />
    <glyph glyph-name="Ugrave" unicode="&#xd9;" horiz-adv-x="1374" 
d="M1171 485q0 -112 -40 -204.5t-109 -159t-161.5 -103t-196.5 -36.5q-107 0 -197.5 37t-156.5 102t-103 153.5t-37 192.5v960h-129v7h424v-7h-127v-950q0 -90 32 -163t88 -125t133 -80.5t167 -28.5q85 0 159 26t128.5 77.5t86 127.5t31.5 176v715q0 118 -39.5 171.5
t-119.5 53.5h-9v7h348v-7h-8q-80 0 -122 -53.5t-42 -171.5v-717zM506 1735q-9 3 -17 9.5t-8 14.5q0 19 19 19q6 0 10.5 -1t9.5 -3q35 -15 74.5 -36.5l85.5 -46.5l98 -52t113 -54l-2 -6q-122 57 -217 92t-166 64z" />
    <glyph glyph-name="Uacute" unicode="&#xda;" horiz-adv-x="1374" 
d="M1171 485q0 -112 -40 -204.5t-109 -159t-161.5 -103t-196.5 -36.5q-107 0 -197.5 37t-156.5 102t-103 153.5t-37 192.5v960h-129v7h424v-7h-127v-950q0 -90 32 -163t88 -125t133 -80.5t167 -28.5q85 0 159 26t128.5 77.5t86 127.5t31.5 176v715q0 118 -39.5 171.5
t-119.5 53.5h-9v7h348v-7h-8q-80 0 -122 -53.5t-42 -171.5v-717zM928 1735q-71 -29 -166 -64t-217 -92l-2 6q61 27 113 54l97.5 52l85 46.5t74.5 36.5q5 2 10 3t11 1q8 0 13 -4.5t5 -14.5q0 -8 -7.5 -14.5t-16.5 -9.5z" />
    <glyph glyph-name="Ucircumflex" unicode="&#xdb;" horiz-adv-x="1374" 
d="M1171 485q0 -112 -40 -204.5t-109 -159t-161.5 -103t-196.5 -36.5q-107 0 -197.5 37t-156.5 102t-103 153.5t-37 192.5v960h-129v7h424v-7h-127v-950q0 -90 32 -163t88 -125t133 -80.5t167 -28.5q85 0 159 26t128.5 77.5t86 127.5t31.5 176v715q0 118 -39.5 171.5
t-119.5 53.5h-9v7h348v-7h-8q-80 0 -122 -53.5t-42 -171.5v-717zM748 1788q28 -24 47 -43l41 -41l53 -51t82 -72l-4 -4l-60.5 49l-45.5 34.5l-35.5 25l-30.5 20.5l-31.5 21.5t-36.5 27.5q-31 -24 -52.5 -38.5l-45.5 -31l-57 -40.5t-85 -68l-4 4q52 43 82 71.5l51.5 50.5
l41 41t49.5 44q9 8 21 8t20 -8z" />
    <glyph glyph-name="Utilde" unicode="&#x168;" horiz-adv-x="1374" 
d="M1171 485q0 -112 -40 -204.5t-109 -159t-161.5 -103t-196.5 -36.5q-107 0 -197.5 37t-156.5 102t-103 153.5t-37 192.5v960h-129v7h424v-7h-127v-950q0 -90 32 -163t88 -125t133 -80.5t167 -28.5q85 0 159 26t128.5 77.5t86 127.5t31.5 176v715q0 118 -39.5 171.5
t-119.5 53.5h-9v7h348v-7h-8q-80 0 -122 -53.5t-42 -171.5v-717zM861 1638q63 0 104.5 30t73.5 101h7q-17 -39 -36 -69t-42.5 -50.5t-53.5 -31t-69 -10.5q-44 0 -76.5 10.5t-59 27t-49 35l-44.5 35t-47 27t-56 10.5q-63 0 -104.5 -30t-73.5 -101h-6q17 39 35.5 69t42.5 51
t54 31.5t69 10.5q34 0 61 -11t50.5 -27t46 -35t47.5 -35t55.5 -27t70.5 -11z" />
    <glyph glyph-name="Udieresis" unicode="&#xdc;" horiz-adv-x="1374" 
d="M1171 485q0 -112 -40 -204.5t-109 -159t-161.5 -103t-196.5 -36.5q-107 0 -197.5 37t-156.5 102t-103 153.5t-37 192.5v960h-129v7h424v-7h-127v-950q0 -90 32 -163t88 -125t133 -80.5t167 -28.5q85 0 159 26t128.5 77.5t86 127.5t31.5 176v715q0 118 -39.5 171.5
t-119.5 53.5h-9v7h348v-7h-8q-80 0 -122 -53.5t-42 -171.5v-717zM647 1673q0 -45 -29 -74.5t-71 -29.5q-44 0 -71 28.5t-27 73.5q0 47 29 77t69 30q45 0 72.5 -29t27.5 -76zM973 1673q0 -22 -8 -41t-21.5 -33t-32 -22t-39.5 -8q-43 0 -70.5 28.5t-27.5 73.5q0 47 29 77
t69 30q45 0 73 -29t28 -76z" />
    <glyph glyph-name="uni1EE6" unicode="&#x1ee6;" horiz-adv-x="1374" 
d="M1171 485q0 -112 -40 -204.5t-109 -159t-161.5 -103t-196.5 -36.5q-107 0 -197.5 37t-156.5 102t-103 153.5t-37 192.5v960h-129v7h424v-7h-127v-950q0 -90 32 -163t88 -125t133 -80.5t167 -28.5q85 0 159 26t128.5 77.5t86 127.5t31.5 176v715q0 118 -39.5 171.5
t-119.5 53.5h-9v7h348v-7h-8q-80 0 -122 -53.5t-42 -171.5v-717zM662 1500q-6 18 -9.5 33.5t-3.5 27.5q0 26 9 45.5t23 35.5t29.5 30.5t29.5 30.5t23 36t9 47q0 44 -28.5 71t-71.5 27q-23 0 -41 -5t-30.5 -12.5t-20 -15t-8.5 -11.5h-7q14 23 41.5 38t67.5 15q63 0 99 -31
t36 -84q0 -29 -14.5 -49t-35.5 -36.5l-43.5 -33t-38 -38t-19.5 -50.5t12 -71h-8z" />
    <glyph glyph-name="uni1EE4" unicode="&#x1ee4;" horiz-adv-x="1374" 
d="M1171 485q0 -112 -40 -204.5t-109 -159t-161.5 -103t-196.5 -36.5q-107 0 -197.5 37t-156.5 102t-103 153.5t-37 192.5v960h-129v7h424v-7h-127v-950q0 -90 32 -163t88 -125t133 -80.5t167 -28.5q85 0 159 26t128.5 77.5t86 127.5t31.5 176v715q0 118 -39.5 171.5
t-119.5 53.5h-9v7h348v-7h-8q-80 0 -122 -53.5t-42 -171.5v-717zM787 -303q0 -23 -8 -42t-21.5 -33t-32 -22t-39.5 -8q-43 0 -70.5 29t-27.5 74q0 23 8 42.5t21.5 33.5t31 22t37.5 8q45 0 73 -29t28 -75z" />
    <glyph glyph-name="Uhorn" unicode="&#x1af;" horiz-adv-x="1374" 
d="M1171 485q0 -112 -40 -204.5t-109 -159t-161.5 -103t-196.5 -36.5q-107 0 -197.5 37t-156.5 102t-103 153.5t-37 192.5v960h-129v7h424v-7h-127v-950q0 -90 32 -163t88 -125t133 -80.5t167 -28.5q85 0 159 26t128.5 77.5t86 127.5t31.5 176v715q0 118 -39.5 171.5
t-119.5 53.5h-9v7h176v-152q44 14 74.5 39t50 53t28.5 55t9 46q0 10 -10 10q-5 0 -21 -8.5t-40 -8.5q-20 0 -38.5 7t-32.5 20t-23 32.5t-9 45.5q0 43 28 73.5t75 30.5q25 0 45.5 -9.5t34.5 -26.5t22 -39.5t8 -47.5q0 -37 -12 -79t-37 -81t-62.5 -71t-89.5 -47v-791v0z" />
    <glyph glyph-name="uni1EEA" unicode="&#x1eea;" horiz-adv-x="1374" 
d="M506 1735q-9 3 -17 9.5t-8 14.5q0 19 19 19q6 0 10.5 -1t9.5 -3q35 -15 74.5 -36.5l85.5 -46.5l98 -52t113 -54l-2 -6q-122 57 -217 92t-166 64zM1171 485q0 -112 -40 -204.5t-109 -159t-161.5 -103t-196.5 -36.5q-107 0 -197.5 37t-156.5 102t-103 153.5t-37 192.5v960
h-129v7h424v-7h-127v-950q0 -90 32 -163t88 -125t133 -80.5t167 -28.5q85 0 159 26t128.5 77.5t86 127.5t31.5 176v715q0 118 -39.5 171.5t-119.5 53.5h-9v7h176v-152q44 14 74.5 39t50 53t28.5 55t9 46q0 10 -10 10q-5 0 -21 -8.5t-40 -8.5q-20 0 -38.5 7t-32.5 20
t-23 32.5t-9 45.5q0 43 28 73.5t75 30.5q25 0 45.5 -9.5t34.5 -26.5t22 -39.5t8 -47.5q0 -37 -12 -79t-37 -81t-62.5 -71t-89.5 -47v-791z" />
    <glyph glyph-name="uni1EE8" unicode="&#x1ee8;" horiz-adv-x="1374" 
d="M928 1735q-71 -29 -166 -64t-217 -92l-2 6q61 27 113 54l97.5 52l85 46.5t74.5 36.5q5 2 10 3t11 1q8 0 13 -4.5t5 -14.5q0 -8 -7.5 -14.5t-16.5 -9.5zM1171 485q0 -112 -40 -204.5t-109 -159t-161.5 -103t-196.5 -36.5q-107 0 -197.5 37t-156.5 102t-103 153.5
t-37 192.5v960h-129v7h424v-7h-127v-950q0 -90 32 -163t88 -125t133 -80.5t167 -28.5q85 0 159 26t128.5 77.5t86 127.5t31.5 176v715q0 118 -39.5 171.5t-119.5 53.5h-9v7h176v-152q44 14 74.5 39t50 53t28.5 55t9 46q0 10 -10 10q-5 0 -21 -8.5t-40 -8.5q-20 0 -38.5 7
t-32.5 20t-23 32.5t-9 45.5q0 43 28 73.5t75 30.5q25 0 45.5 -9.5t34.5 -26.5t22 -39.5t8 -47.5q0 -37 -12 -79t-37 -81t-62.5 -71t-89.5 -47v-791z" />
    <glyph glyph-name="uni1EEE" unicode="&#x1eee;" horiz-adv-x="1374" 
d="M1171 485q0 -112 -40 -204.5t-109 -159t-161.5 -103t-196.5 -36.5q-107 0 -197.5 37t-156.5 102t-103 153.5t-37 192.5v960h-129v7h424v-7h-127v-950q0 -90 32 -163t88 -125t133 -80.5t167 -28.5q85 0 159 26t128.5 77.5t86 127.5t31.5 176v715q0 118 -39.5 171.5
t-119.5 53.5h-9v7h176v-152q44 14 74.5 39t50 53t28.5 55t9 46q0 10 -10 10q-5 0 -21 -8.5t-40 -8.5q-20 0 -38.5 7t-32.5 20t-23 32.5t-9 45.5q0 43 28 73.5t75 30.5q25 0 45.5 -9.5t34.5 -26.5t22 -39.5t8 -47.5q0 -37 -12 -79t-37 -81t-62.5 -71t-89.5 -47v-791z
M861 1638q63 0 104.5 30t73.5 101h7q-17 -39 -36 -69t-42.5 -50.5t-53.5 -31t-69 -10.5q-44 0 -76.5 10.5t-59 27t-49 35l-44.5 35t-47 27t-56 10.5q-63 0 -104.5 -30t-73.5 -101h-6q17 39 35.5 69t42.5 51t54 31.5t69 10.5q34 0 61 -11t50.5 -27t46 -35t47.5 -35t55.5 -27
t70.5 -11z" />
    <glyph glyph-name="uni1EEC" unicode="&#x1eec;" horiz-adv-x="1374" 
d="M1171 485q0 -112 -40 -204.5t-109 -159t-161.5 -103t-196.5 -36.5q-107 0 -197.5 37t-156.5 102t-103 153.5t-37 192.5v960h-129v7h424v-7h-127v-950q0 -90 32 -163t88 -125t133 -80.5t167 -28.5q85 0 159 26t128.5 77.5t86 127.5t31.5 176v715q0 118 -39.5 171.5
t-119.5 53.5h-9v7h176v-152q44 14 74.5 39t50 53t28.5 55t9 46q0 10 -10 10q-5 0 -21 -8.5t-40 -8.5q-20 0 -38.5 7t-32.5 20t-23 32.5t-9 45.5q0 43 28 73.5t75 30.5q25 0 45.5 -9.5t34.5 -26.5t22 -39.5t8 -47.5q0 -37 -12 -79t-37 -81t-62.5 -71t-89.5 -47v-791z
M662 1500q-6 18 -9.5 33.5t-3.5 27.5q0 26 9 45.5t23 35.5t29.5 30.5t29.5 30.5t23 36t9 47q0 44 -28.5 71t-71.5 27q-23 0 -41 -5t-30.5 -12.5t-20 -15t-8.5 -11.5h-7q14 23 41.5 38t67.5 15q63 0 99 -31t36 -84q0 -29 -14.5 -49t-35.5 -36.5l-43.5 -33t-38 -38
t-19.5 -50.5t12 -71h-8z" />
    <glyph glyph-name="uni1EF0" unicode="&#x1ef0;" horiz-adv-x="1374" 
d="M1171 485q0 -112 -40 -204.5t-109 -159t-161.5 -103t-196.5 -36.5q-107 0 -197.5 37t-156.5 102t-103 153.5t-37 192.5v960h-129v7h424v-7h-127v-950q0 -90 32 -163t88 -125t133 -80.5t167 -28.5q85 0 159 26t128.5 77.5t86 127.5t31.5 176v715q0 118 -39.5 171.5
t-119.5 53.5h-9v7h176v-152q44 14 74.5 39t50 53t28.5 55t9 46q0 10 -10 10q-5 0 -21 -8.5t-40 -8.5q-20 0 -38.5 7t-32.5 20t-23 32.5t-9 45.5q0 43 28 73.5t75 30.5q25 0 45.5 -9.5t34.5 -26.5t22 -39.5t8 -47.5q0 -37 -12 -79t-37 -81t-62.5 -71t-89.5 -47v-791z
M787 -303q0 -23 -8 -42t-21.5 -33t-32 -22t-39.5 -8q-43 0 -70.5 29t-27.5 74q0 23 8 42.5t21.5 33.5t31 22t37.5 8q45 0 73 -29t28 -75z" />
    <glyph glyph-name="Ygrave" unicode="&#x1ef2;" horiz-adv-x="1329" 
d="M981 1427v7h348v-7h-8q-36 0 -71 -18.5t-68.5 -49.5t-66.5 -71.5t-64 -85.5l-318 -479v-717h127v-6h-424v6h129v694l-459 727h-106v7h436v-7h-137l434 -692l309 469q31 45 48.5 85.5t14.5 71t-29 48.5t-81 18h-14zM1039 1735q-9 3 -16.5 9.5t-7.5 14.5q0 10 5 14.5
t13 4.5q7 0 11.5 -1t9.5 -3q35 -15 74.5 -36.5l85 -46.5l98 -52t112.5 -54l-2 -6q-121 57 -216 92t-167 64z" />
    <glyph glyph-name="Yacute" unicode="&#xdd;" horiz-adv-x="1329" 
d="M981 1427v7h348v-7h-8q-36 0 -71 -18.5t-68.5 -49.5t-66.5 -71.5t-64 -85.5l-318 -479v-717h127v-6h-424v6h129v694l-459 727h-106v7h436v-7h-137l434 -692l309 469q31 45 48.5 85.5t14.5 71t-29 48.5t-81 18h-14zM893 1735q-71 -29 -166 -64t-217 -92l-2 6
q121 54 210.5 106t160.5 83q5 2 9.5 3t10.5 1q8 0 13.5 -4.5t5.5 -14.5q0 -8 -8 -14.5t-17 -9.5z" />
    <glyph glyph-name="uni1EF8" unicode="&#x1ef8;" horiz-adv-x="1329" 
d="M981 1427v7h348v-7h-8q-36 0 -71 -18.5t-68.5 -49.5t-66.5 -71.5t-64 -85.5l-318 -479v-717h127v-6h-424v6h129v694l-459 727h-106v7h436v-7h-137l434 -692l309 469q31 45 48.5 85.5t14.5 71t-29 48.5t-81 18h-14zM838 1638q63 0 104.5 30t73.5 101h7q-17 -39 -36 -69
t-42.5 -50.5t-53.5 -31t-69 -10.5q-44 0 -76.5 10.5t-59 27t-49 35l-44.5 35t-47 27t-56 10.5q-63 0 -104.5 -30t-73.5 -101h-6q17 39 35.5 69t42.5 51t54 31.5t69 10.5q34 0 61 -11t50.5 -27t46 -35t47.5 -35t55.5 -27t70.5 -11z" />
    <glyph glyph-name="Ydieresis" unicode="&#x178;" horiz-adv-x="1329" 
d="M981 1427v7h348v-7h-8q-36 0 -71 -18.5t-68.5 -49.5t-66.5 -71.5t-64 -85.5l-318 -479v-717h127v-6h-424v6h129v694l-459 727h-106v7h436v-7h-137l434 -692l309 469q31 45 48.5 85.5t14.5 71t-29 48.5t-81 18h-14zM629 1673q0 -22 -8 -41t-21.5 -33t-32 -22t-39.5 -8
q-43 0 -70.5 28.5t-27.5 73.5q0 47 29 77t69 30q45 0 73 -29t28 -76zM954 1673q0 -45 -29 -74.5t-71 -29.5q-43 0 -70.5 28.5t-27.5 73.5q0 47 29 77t69 30q45 0 72.5 -29t27.5 -76z" />
    <glyph glyph-name="uni1EF6" unicode="&#x1ef6;" horiz-adv-x="1329" 
d="M981 1427v7h348v-7h-8q-36 0 -71 -18.5t-68.5 -49.5t-66.5 -71.5t-64 -85.5l-318 -479v-717h127v-6h-424v6h129v694l-459 727h-106v7h436v-7h-137l434 -692l309 469q31 45 48.5 85.5t14.5 71t-29 48.5t-81 18h-14zM639 1500q-6 18 -9.5 33.5t-3.5 27.5q0 26 9 45.5
t23 35.5t29.5 30.5t29.5 30.5t23 36t9 47q0 44 -28.5 71t-71.5 27q-23 0 -41 -5t-30.5 -12.5t-20 -15t-8.5 -11.5h-7q14 23 41.5 38t67.5 15q63 0 99 -31t36 -84q0 -29 -14.5 -49t-35.5 -36.5l-43.5 -33t-38 -38t-19.5 -50.5t12 -71h-8z" />
    <glyph glyph-name="uni1EF4" unicode="&#x1ef4;" horiz-adv-x="1329" 
d="M981 1427v7h348v-7h-8q-36 0 -71 -18.5t-68.5 -49.5t-66.5 -71.5t-64 -85.5l-318 -479v-717h127v-6h-424v6h129v694l-459 727h-106v7h436v-7h-137l434 -692l309 469q31 45 48.5 85.5t14.5 71t-29 48.5t-81 18h-14zM758 -303q0 -23 -8 -42t-21.5 -33t-32 -22t-39.5 -8
q-43 0 -70.5 29t-27.5 74q0 23 8 42.5t21.5 33.5t31 22t37.5 8q45 0 73 -29t28 -75z" />
    <glyph glyph-name="Eth" unicode="&#xd0;" horiz-adv-x="1305" 
d="M557 1434q160 0 287.5 -51.5t216 -145.5t135.5 -224.5t47 -287.5q0 -159 -52.5 -292t-144.5 -229.5t-217.5 -150t-271.5 -53.5h-516v6h129v703h-125v6h125v712h-129v7h516zM338 709v-703h203q128 0 225 54t161.5 149.5t97 224.5t32.5 279q0 145 -35.5 275t-102.5 227.5
t-163 154.5t-217 57h-201v-712h336v-6h-336z" />
    <glyph glyph-name="Thorn" unicode="&#xde;" horiz-adv-x="1153" 
d="M467 1427h-129v-282h291q112 0 201.5 -27t152 -76t96 -116t33.5 -148t-39.5 -151t-108.5 -121.5t-162.5 -81t-201.5 -29.5h-262v-389h127v-6h-424v6h129v1421h-129v7h426v-7zM338 401h237q95 0 163 29t111.5 79.5t64 118t20.5 144.5q0 75 -21 141.5t-64 116.5t-109 79.5
t-156 29.5h-246v-738z" />
    <glyph glyph-name="a" unicode="a" horiz-adv-x="1042" 
d="M236 885q19 0 37.5 -7t32.5 -20t23 -33t9 -45q0 -43 -29.5 -73.5t-79.5 -30.5q-22 0 -41 8.5t-33 24.5t-22 37t-8 47q0 46 22.5 94t66 87t107.5 64t146 25q89 0 159 -28.5t118.5 -81t74 -125.5t25.5 -162v-523q0 -49 25.5 -72.5t60.5 -23.5q38 0 64.5 26.5t31.5 69.5h6
q-2 -22 -12 -50.5t-31 -53.5t-52.5 -42t-76.5 -17q-80 0 -122 47t-50 149q-15 -34 -44.5 -68.5t-70.5 -63t-93 -46.5t-113 -18q-55 0 -104.5 16t-87.5 47.5t-60.5 77.5t-22.5 106q0 73 26.5 121t69.5 81t98.5 55t113 42t113 42t98.5 55.5t69.5 82.5t26.5 123q0 110 -69 167
t-202 57q-68 0 -118.5 -21t-85 -49.5t-51.5 -58t-17 -45.5q0 -11 10 -11q5 0 21 8.5t41 8.5zM686 694q-29 -47 -72 -78.5t-90.5 -57.5l-95 -51.5t-85.5 -60t-61.5 -83.5t-23.5 -121q0 -47 14.5 -85t41.5 -64.5t64.5 -41t82.5 -14.5q51 0 93 17t71 46t45 66.5t16 79.5v448z
" />
    <glyph glyph-name="b" unicode="b" horiz-adv-x="1120" 
d="M541 1034q-58 0 -105 -18t-80.5 -51.5t-52 -81.5t-18.5 -109v-520q0 -65 19 -113.5t52 -80.5t79 -48t100 -16q80 0 140.5 40t101 111t61 167.5t20.5 209.5q0 112 -21 206t-61.5 161.5t-99.5 105t-135 37.5zM0 1427v7h285v-551q18 38 46 71.5t65.5 58t84.5 38.5t103 14
q102 0 184 -41t140 -112t89 -168t31 -209q0 -113 -37 -213.5t-100.5 -175.5t-150 -118.5t-185.5 -43.5q-78 0 -131 21t-92 46.5l-70 46.5t-65 21q-22 0 -37 -9t-28 -30.5t-25 -57t-27 -88.5h-10q12 42 23.5 77.5t20 69.5t14 70t5.5 80v1196h-133z" />
    <glyph glyph-name="c" unicode="c" horiz-adv-x="965" 
d="M627 8q48 0 93.5 16t82 47t61 75.5t31.5 101.5h8q-6 -59 -32 -108t-70.5 -84.5t-106 -55.5t-139.5 -20q-102 0 -187 42t-146.5 115t-95.5 171t-34 210t37 211.5t102 174t153 118t191 43.5q83 0 144 -22.5t100.5 -59t58.5 -82.5t19 -92q0 -26 -8 -48t-22 -39t-33 -26.5
t-41 -9.5q-50 0 -79.5 30.5t-29.5 74.5q0 25 9 44.5t23 32.5t32.5 20t37.5 7q25 0 41 -8t21 -8q10 0 10 10q0 16 -14 44t-44.5 55t-78.5 47t-115 20q-80 0 -143.5 -36.5t-108 -105t-68.5 -166t-24 -219.5q0 -112 26 -207.5t73.5 -165t115 -108.5t150.5 -39z" />
    <glyph glyph-name="d" unicode="d" horiz-adv-x="1182" 
d="M537 -20q-102 0 -184.5 41t-140.5 112t-89 168t-31 209q0 113 35 214t97.5 176.5t147 120t183.5 44.5q51 0 94.5 -13t79.5 -35.5t63 -53t44 -66.5v530h-134v7h285v-1291q0 -49 26.5 -72.5t61.5 -23.5q34 0 60.5 26.5t29.5 69.5h6q-2 -22 -12.5 -50.5t-31.5 -53.5t-54 -42
t-78 -17q-69 0 -109.5 46.5t-49.5 137.5q-17 -39 -45 -72.5t-66 -58t-85.5 -39t-102.5 -14.5zM580 8q57 0 104.5 18.5t81 52.5t52 82.5t18.5 108.5v521q0 59 -18.5 105.5t-51 79t-77.5 49.5t-99 17q-80 0 -141 -39t-102.5 -109t-63 -165.5t-21.5 -208.5q0 -112 21 -206
t61.5 -162t100 -106t135.5 -38z" />
    <glyph glyph-name="e" unicode="e" 
d="M266 602q-2 -23 -2 -47v-47q0 -92 20.5 -181t64.5 -159t113 -113t167 -43q53 0 100 15.5t84 45.5t61 74t31 101h8q-6 -59 -32.5 -108t-71.5 -84.5t-107.5 -55.5t-140.5 -20q-103 0 -189 42t-148.5 115t-97 171t-34.5 210t34 211.5t95.5 174t146.5 118t187 43.5
q90 0 162.5 -32.5t123 -93t76.5 -146t23 -191.5h-674zM555 1059q-65 0 -115 -35t-86 -96t-58 -143.5t-30 -176.5h490q1 106 -9 190t-34 142t-63 88.5t-95 30.5z" />
    <glyph glyph-name="f" unicode="f" horiz-adv-x="588" 
d="M317 6h127v-6h-413v6h129v1026h-129v6h129v49q0 88 17.5 159.5t52 122.5t85 78.5t115.5 27.5q56 0 97.5 -16.5t68.5 -45.5t40 -67.5t13 -81.5q0 -27 -8.5 -50t-23.5 -40.5t-34.5 -27t-41.5 -9.5q-48 0 -76.5 28.5t-28.5 71.5q0 25 8.5 45t22.5 33.5t33 20.5t39 7
q24 0 40 -8t21 -8q10 0 10 10q0 16 -9 39t-30 44t-55.5 35.5t-85.5 14.5q-46 0 -84.5 -16t-66 -45t-43 -68.5t-15.5 -87.5q0 -63 13 -113t28 -102h287v-6h-285q10 -32 19.5 -67t17 -77t12 -92.5t4.5 -113.5v-676z" />
    <glyph glyph-name="g" unicode="g" horiz-adv-x="1036" 
d="M82 -49q0 47 17.5 82.5t44.5 60t59 38.5t61 18q-57 18 -92 51.5t-35 95.5q0 33 15.5 59.5t41 47t59 34t69.5 19.5q-91 38 -144 109.5t-53 170.5q0 71 28.5 130.5t79 102.5t120.5 67t153 24q30 0 52.5 -2.5t43 -6t42 -6t50.5 -2.5q33 0 64.5 9t56.5 25t40 36.5t15 44.5
q0 10 -10 10q-5 0 -21 -8t-40 -8q-19 0 -37.5 6.5t-33 19.5t-23.5 32t-9 44q0 44 29.5 73.5t79.5 29.5q22 0 42.5 -8t36 -22t25 -35t9.5 -46q0 -41 -16.5 -79t-48 -67.5t-77.5 -48.5t-104 -22q96 -38 149 -110t53 -175q0 -71 -28.5 -130.5t-79 -102.5t-120 -67.5
t-152.5 -24.5q-30 0 -54.5 3t-46.5 6t-41.5 6t-38.5 3q-25 0 -47.5 -6t-39 -17t-26.5 -27.5t-10 -37.5q0 -38 33.5 -57.5t89 -27.5t126 -10t144 -6t144 -14t126 -35t89 -69t33.5 -115q0 -65 -36 -122t-102 -100t-158.5 -68t-205.5 -25q-108 0 -182.5 21.5t-121 56.5t-67 80
t-20.5 92zM827 -68q0 36 -14 66t-45.5 52.5t-83.5 38t-127 24.5q-36 4 -74.5 7.5l-74.5 6.5t-67.5 4.5t-53.5 1.5q-46 0 -82.5 -13.5t-62 -37.5t-39 -57.5t-13.5 -73.5q0 -45 20 -88.5t65.5 -77.5t118.5 -55t179 -21q88 0 154 16.5t110.5 46.5t67 71t22.5 89zM717 739
q0 69 -11.5 127t-36.5 100t-65.5 65.5t-97.5 23.5q-62 0 -105 -22.5t-69 -64t-37.5 -99t-11.5 -126.5q0 -68 11.5 -126t36.5 -100.5t65 -66.5t98 -24q62 0 104.5 23t69 64.5t38 99t11.5 126.5z" />
    <glyph glyph-name="h" unicode="h" horiz-adv-x="1090" 
d="M774 815q0 103 -54.5 158t-148.5 55q-58 0 -105 -25t-80 -65t-51 -91.5t-18 -103.5v-737h127v-6h-413v6h129v1421h-129v7h286v-592q14 37 41.5 76t68 70t93 51t115.5 20q76 0 132.5 -27.5t93.5 -78.5t55 -123t18 -160v-664h125v-6h-414v6h129v809z" />
    <glyph glyph-name="i" unicode="i" horiz-adv-x="455" 
d="M317 6h127v-6h-413v6h129v1026h-129v6h286v-1032zM334 1339q0 -22 -8 -41t-21.5 -33t-32 -22t-39.5 -8q-43 0 -70.5 28.5t-27.5 73.5q0 47 29 77t69 30q45 0 73 -29t28 -76z" />
    <glyph glyph-name="j" unicode="j" horiz-adv-x="442" 
d="M319 1339q0 -45 -29 -74.5t-71 -29.5q-43 0 -70.5 28.5t-27.5 73.5q0 47 29 77t69 30q45 0 72.5 -29t27.5 -76zM145 1032h-129v6h287v-972q0 -79 -17 -152.5t-50 -130.5t-82 -91t-113 -34q-40 0 -75 11.5t-60.5 33.5t-40.5 53.5t-15 71.5q0 28 9 52.5t24.5 41.5t35.5 27
t42 10q50 0 76 -29.5t26 -72.5q0 -26 -9 -45.5t-23 -32.5t-32.5 -20t-37.5 -7q-25 0 -40.5 8.5t-20.5 8.5q-11 0 -11 -11q0 -14 11 -30.5t31 -31t48 -24.5t62 -10q35 0 71 14t65.5 39.5t48 62.5t18.5 83t-7.5 86.5t-18.5 80.5l-23.5 83t-23.5 94t-18.5 113t-7.5 141v573z
" />
    <glyph glyph-name="k" unicode="k" horiz-adv-x="1071" 
d="M664 1032v6h348v-6h-8q-36 0 -72.5 -18.5t-72.5 -49t-72.5 -69.5l-73.5 -80l-140 -156l381 -653h107v-6h-424v6h137l-307 531l-150 -170v-361h127v-6h-413v6h129v1421h-129v7h286v-1057l388 440q37 42 58 80.5t20.5 68.5t-26 48t-79.5 18h-14z" />
    <glyph glyph-name="l" unicode="l" horiz-adv-x="475" 
d="M317 6h127v-6h-413v6h129v1421h-129v7h286v-1428z" />
    <glyph glyph-name="m" unicode="m" horiz-adv-x="1622" 
d="M1307 815q0 103 -47 158t-134 55q-55 0 -98.5 -22.5t-74 -60t-46.5 -86.5t-16 -101v-752h127v-6h-414v6h129v809q0 103 -46.5 158t-133.5 55q-55 0 -99 -22.5t-74.5 -60t-46.5 -86.5t-16 -101v-752h127v-6h-413v6h129v1026h-129v6h286v-182q15 37 41.5 73t64 65t86 47
t107.5 18q112 0 178.5 -62t86.5 -174q17 52 45 95.5t67 75t88.5 48.5t108.5 17q72 0 124 -27.5t86 -78.5t50 -123t16 -160v-664h125v-6h-413v6h129v809z" />
    <glyph glyph-name="n" unicode="n" horiz-adv-x="1090" 
d="M774 815q0 103 -54.5 158t-148.5 55q-58 0 -105 -25t-80 -65t-51 -91.5t-18 -103.5v-737h127v-6h-413v6h129v1026h-129v6h286v-196q14 37 41.5 76t68 70t93 51t115.5 20q76 0 132.5 -27.5t93.5 -78.5t55 -123t18 -160v-664h125v-6h-414v6h129v809z" />
    <glyph glyph-name="o" unicode="o" horiz-adv-x="1141" 
d="M879 518q0 112 -19 209.5t-57 170t-95 114t-133 41.5q-80 0 -139 -40t-97.5 -110.5t-57.5 -167t-19 -209.5q0 -112 19 -210t56.5 -170.5t94.5 -114t133 -41.5q80 0 139 40t98 111t58 167.5t19 209.5zM1049 528q0 -113 -38.5 -212.5t-104.5 -173.5t-154 -117t-187 -43
q-102 0 -188.5 41.5t-150 113.5t-99 169.5t-35.5 209.5q0 113 38.5 212t104 173t153.5 117t187 43q102 0 189 -41t150.5 -113t99 -169.5t35.5 -209.5z" />
    <glyph glyph-name="p" unicode="p" horiz-adv-x="1133" 
d="M553 1036q-58 0 -105 -18t-80.5 -52t-52 -82.5t-18.5 -109.5v-500q0 -59 18 -105.5t51 -79t78 -49.5t99 -17q80 0 141 37.5t102.5 105t62.5 162t21 207.5q0 112 -21 204.5t-61.5 158.5t-99.5 102t-135 36zM297 -293h127v-6h-414v6h129v1325h-129v6h287v-157
q17 38 45 71.5t66 58.5t85.5 39.5t102.5 14.5q102 0 184 -39t140 -108.5t89 -165t31 -207.5q0 -113 -35 -212t-97 -173t-146.5 -117t-183.5 -43q-51 0 -95 12.5t-79.5 35t-62.5 53.5t-44 67v-461z" />
    <glyph glyph-name="q" unicode="q" horiz-adv-x="1130" 
d="M580 31q57 0 104.5 18t81 51.5t52 81.5t18.5 109v500q0 65 -19 113.5t-52.5 80.5t-79 48t-99.5 16q-80 0 -140.5 -39t-101.5 -108t-61.5 -164t-20.5 -208q0 -112 21 -204t61.5 -157.5t100 -101.5t135.5 -36zM836 -293v475q-18 -38 -46.5 -71.5t-66 -58t-84.5 -38.5
t-102 -14q-102 0 -184.5 39t-140.5 108.5t-89 165t-31 207.5q0 113 37 211.5t100.5 172t150 115.5t185.5 42q78 0 131 -21t92 -46.5l70 -46.5t66 -21q21 0 36 9t28 30t25 56.5t27 88.5h11q-12 -42 -23.5 -77t-20.5 -69t-14.5 -70t-5.5 -81v-1106h133v-6h-418v6h134z" />
    <glyph glyph-name="r" unicode="r" horiz-adv-x="862" 
d="M557 995q-45 0 -88 -26t-76.5 -73.5t-54.5 -114.5t-21 -148v-627h127v-6h-413v6h129v1026h-129v6h286v-264q24 58 56 109t83 89t125.5 60.5t182.5 22.5v-328h-6q-12 81 -30.5 133t-43 82t-56.5 41.5t-71 11.5z" />
    <glyph glyph-name="s" unicode="s" horiz-adv-x="905" 
d="M463 -12q58 0 102.5 16.5t74.5 46t45 69.5t15 87q0 60 -26 101.5t-68.5 71t-96.5 51t-111 42t-111 44t-96.5 56.5t-68.5 79.5t-26 113.5t25.5 121.5t73 93.5t114.5 60.5t150 21.5q53 0 90.5 -8.5t67.5 -19l56 -19t56 -8.5q28 0 42.5 15t14.5 40h7v-326h-7
q-15 68 -39.5 126t-63 101t-93.5 67t-131 24q-58 0 -102.5 -17t-75 -46t-46.5 -67t-16 -81q0 -61 26 -102.5t68.5 -71t96.5 -51t111 -42t111 -43.5t96.5 -56t68.5 -79.5t26 -113.5q0 -66 -28.5 -122t-77 -96.5t-114 -63.5t-140.5 -23q-68 0 -111.5 12.5t-77.5 28l-64 28
t-69 12.5q-28 0 -42.5 -15t-14.5 -40h-6v326h6q14 -73 46.5 -136t81 -109t112 -72.5t139.5 -26.5z" />
    <glyph glyph-name="t" unicode="t" horiz-adv-x="668" 
d="M133 1038v213l156 78v-291h338v-6h-338v-762q0 -114 46.5 -171.5t145.5 -57.5q28 0 55.5 9.5t49.5 26.5t36.5 41.5t18.5 53.5h6q-4 -36 -24.5 -70.5t-53.5 -61.5t-76.5 -43.5t-91.5 -16.5q-70 0 -120.5 22t-83.5 62.5t-48.5 97.5t-15.5 127v743h-133v6h133z" />
    <glyph glyph-name="u" unicode="u" horiz-adv-x="1104" 
d="M297 223q0 -103 54.5 -158t148.5 -55q58 0 105 23.5t80 61.5t51 87.5t18 102.5v747h-127v6h282v-895q0 -49 26.5 -72.5t61.5 -23.5q34 0 60.5 26.5t29.5 69.5h7q-2 -22 -12.5 -50.5t-32 -53.5t-54 -42t-77.5 -17q-70 0 -113 56t-51 150q-14 -38 -41.5 -74.5t-68 -66
t-93 -47.5t-115.5 -18q-76 0 -132.5 27.5t-93.5 78.5t-55 122.5t-18 160.5v663h-127v6h287v-815z" />
    <glyph glyph-name="v" unicode="v" horiz-adv-x="1092" 
d="M743 1032v6h349v-6h-9q-36 0 -64.5 -18t-51 -49t-40 -72t-32.5 -86l-297 -807h-76l-407 1032h-115v6h416v-6h-135l354 -909l252 686q17 45 19.5 85.5t-12.5 71t-48.5 48.5t-87.5 18h-15z" />
    <glyph glyph-name="w" unicode="w" horiz-adv-x="1540" 
d="M1192 1032v6h348v-6h-8q-36 0 -64.5 -18t-51.5 -49t-40.5 -72t-32.5 -86l-256 -807h-75l-236 729l-248 -729h-75l-338 1032h-115v6h414v-6h-135l286 -899l207 610l-92 289h-115v6h406v-6h-135l286 -893l213 670q17 45 19.5 85.5t-12.5 71t-48 48.5t-88 18h-14z" />
    <glyph glyph-name="x" unicode="x" horiz-adv-x="1112" 
d="M387 6v-6h-346v6h8q35 0 68 19t65.5 50.5t64.5 72l66 83.5l181 246l-377 555h-107v6h424v-6h-137l307 -452l168 229q32 45 48.5 85.5t12 71t-32 48.5t-81.5 18h-14v6h348v-6h-9q-36 0 -69 -19t-65 -50.5t-64 -72l-66 -83.5l-172 -234l387 -567h107v-6h-424v6h137
l-317 465l-176 -242q-32 -45 -48.5 -85.5t-13 -71t30.5 -48.5t82 -18h14z" />
    <glyph glyph-name="y" unicode="y" horiz-adv-x="1042" 
d="M596 43l-481 989h-115v6h418v-6h-142l390 -796l211 573q17 45 21 85.5t-9 71t-45 48.5t-86 18h-15v6h349v-6h-9q-36 0 -64.5 -18.5t-52 -50t-43.5 -72t-38 -84.5l-291 -791q-31 -84 -61 -144t-63 -98t-72 -55.5t-87 -17.5q-50 0 -87 16.5t-61 44.5t-36 66t-12 80
q0 28 9 52.5t24 41.5t35 27t42 10q50 0 76.5 -29.5t26.5 -72.5q0 -26 -9 -45.5t-23.5 -32.5t-33 -20t-37.5 -7q-24 0 -40 8t-21 8q-10 0 -10 -10q0 -16 8 -38.5t26.5 -43t48.5 -35t74 -14.5q48 0 86 18t70 56t61 96t58 139z" />
    <glyph glyph-name="z" unicode="z" horiz-adv-x="995" 
d="M586 6q84 0 139.5 24.5t91.5 65.5t56.5 96t33.5 117h6v-309h-852l670 1032h-297q-84 0 -139.5 -24.5t-91.5 -65.5t-56.5 -96.5t-33.5 -116.5h-7v309h799l-667 -1032h348z" />
    <glyph glyph-name="agrave" unicode="&#xe0;" horiz-adv-x="1042" 
d="M236 885q19 0 37.5 -7t32.5 -20t23 -33t9 -45q0 -43 -29.5 -73.5t-79.5 -30.5q-22 0 -41 8.5t-33 24.5t-22 37t-8 47q0 46 22.5 94t66 87t107.5 64t146 25q89 0 159 -28.5t118.5 -81t74 -125.5t25.5 -162v-523q0 -49 25.5 -72.5t60.5 -23.5q38 0 64.5 26.5t31.5 69.5h6
q-2 -22 -12 -50.5t-31 -53.5t-52.5 -42t-76.5 -17q-80 0 -122 47t-50 149q-15 -34 -44.5 -68.5t-70.5 -63t-93 -46.5t-113 -18q-55 0 -104.5 16t-87.5 47.5t-60.5 77.5t-22.5 106q0 73 26.5 121t69.5 81t98.5 55t113 42t113 42t98.5 55.5t69.5 82.5t26.5 123q0 110 -69 167
t-202 57q-68 0 -118.5 -21t-85 -49.5t-51.5 -58t-17 -45.5q0 -11 10 -11q5 0 21 8.5t41 8.5zM686 694q-29 -47 -72 -78.5t-90.5 -57.5l-95 -51.5t-85.5 -60t-61.5 -83.5t-23.5 -121q0 -47 14.5 -85t41.5 -64.5t64.5 -41t82.5 -14.5q51 0 93 17t71 46t45 66.5t16 79.5v448z
M340 1442q-9 3 -17 9.5t-8 14.5q0 10 5.5 14.5t13.5 4.5q6 0 10.5 -1t9.5 -3q36 -15 75.5 -36.5l85 -46.5l97.5 -52t113 -54l-2 -6q-122 57 -217 92t-166 64z" />
    <glyph glyph-name="aacute" unicode="&#xe1;" horiz-adv-x="1042" 
d="M236 885q19 0 37.5 -7t32.5 -20t23 -33t9 -45q0 -43 -29.5 -73.5t-79.5 -30.5q-22 0 -41 8.5t-33 24.5t-22 37t-8 47q0 46 22.5 94t66 87t107.5 64t146 25q89 0 159 -28.5t118.5 -81t74 -125.5t25.5 -162v-523q0 -49 25.5 -72.5t60.5 -23.5q38 0 64.5 26.5t31.5 69.5h6
q-2 -22 -12 -50.5t-31 -53.5t-52.5 -42t-76.5 -17q-80 0 -122 47t-50 149q-15 -34 -44.5 -68.5t-70.5 -63t-93 -46.5t-113 -18q-55 0 -104.5 16t-87.5 47.5t-60.5 77.5t-22.5 106q0 73 26.5 121t69.5 81t98.5 55t113 42t113 42t98.5 55.5t69.5 82.5t26.5 123q0 110 -69 167
t-202 57q-68 0 -118.5 -21t-85 -49.5t-51.5 -58t-17 -45.5q0 -11 10 -11q5 0 21 8.5t41 8.5zM686 694q-29 -47 -72 -78.5t-90.5 -57.5l-95 -51.5t-85.5 -60t-61.5 -83.5t-23.5 -121q0 -47 14.5 -85t41.5 -64.5t64.5 -41t82.5 -14.5q51 0 93 17t71 46t45 66.5t16 79.5v448z
M717 1442q-71 -29 -166 -64t-217 -92l-2 6q61 27 113 54l97.5 52l85 46.5t74.5 36.5q5 2 10 3t11 1q8 0 13 -4.5t5 -14.5q0 -8 -7.5 -14.5t-16.5 -9.5z" />
    <glyph glyph-name="acircumflex" unicode="&#xe2;" horiz-adv-x="1042" 
d="M236 885q19 0 37.5 -7t32.5 -20t23 -33t9 -45q0 -43 -29.5 -73.5t-79.5 -30.5q-22 0 -41 8.5t-33 24.5t-22 37t-8 47q0 46 22.5 94t66 87t107.5 64t146 25q89 0 159 -28.5t118.5 -81t74 -125.5t25.5 -162v-523q0 -49 25.5 -72.5t60.5 -23.5q38 0 64.5 26.5t31.5 69.5h6
q-2 -22 -12 -50.5t-31 -53.5t-52.5 -42t-76.5 -17q-80 0 -122 47t-50 149q-15 -34 -44.5 -68.5t-70.5 -63t-93 -46.5t-113 -18q-55 0 -104.5 16t-87.5 47.5t-60.5 77.5t-22.5 106q0 73 26.5 121t69.5 81t98.5 55t113 42t113 42t98.5 55.5t69.5 82.5t26.5 123q0 110 -69 167
t-202 57q-68 0 -118.5 -21t-85 -49.5t-51.5 -58t-17 -45.5q0 -11 10 -11q5 0 21 8.5t41 8.5zM686 694q-29 -47 -72 -78.5t-90.5 -57.5l-95 -51.5t-85.5 -60t-61.5 -83.5t-23.5 -121q0 -47 14.5 -85t41.5 -64.5t64.5 -41t82.5 -14.5q51 0 93 17t71 46t45 66.5t16 79.5v448z
M541 1495q28 -24 47 -43l41 -41l53 -51t82 -72l-4 -4q-52 44 -84.5 68t-57 40.5l-46 31t-52.5 38.5q-31 -24 -52.5 -38.5l-45.5 -31l-56.5 -40.5t-84.5 -68l-5 4q52 43 82 71.5l51.5 50.5l41 41.5t49.5 43.5q9 8 21 8t20 -8z" />
    <glyph glyph-name="uni1EA7" unicode="&#x1ea7;" horiz-adv-x="1042" 
d="M236 885q19 0 37.5 -7t32.5 -20t23 -33t9 -45q0 -43 -29.5 -73.5t-79.5 -30.5q-22 0 -41 8.5t-33 24.5t-22 37t-8 47q0 46 22.5 94t66 87t107.5 64t146 25q89 0 159 -28.5t118.5 -81t74 -125.5t25.5 -162v-523q0 -49 25.5 -72.5t60.5 -23.5q38 0 64.5 26.5t31.5 69.5h6
q-2 -22 -12 -50.5t-31 -53.5t-52.5 -42t-76.5 -17q-80 0 -122 47t-50 149q-15 -34 -44.5 -68.5t-70.5 -63t-93 -46.5t-113 -18q-55 0 -104.5 16t-87.5 47.5t-60.5 77.5t-22.5 106q0 73 26.5 121t69.5 81t98.5 55t113 42t113 42t98.5 55.5t69.5 82.5t26.5 123q0 110 -69 167
t-202 57q-68 0 -118.5 -21t-85 -49.5t-51.5 -58t-17 -45.5q0 -11 10 -11q5 0 21 8.5t41 8.5zM686 694q-29 -47 -72 -78.5t-90.5 -57.5l-95 -51.5t-85.5 -60t-61.5 -83.5t-23.5 -121q0 -47 14.5 -85t41.5 -64.5t64.5 -41t82.5 -14.5q51 0 93 17t71 46t45 66.5t16 79.5v448z
M541 1495q28 -24 47 -43l41 -41l53 -51t82 -72l-4 -4q-52 44 -84.5 68t-57 40.5l-46 31t-52.5 38.5q-31 -24 -52.5 -38.5l-45.5 -31l-56.5 -40.5t-84.5 -68l-5 4q52 43 82 71.5l51.5 50.5l41 41.5t49.5 43.5q9 8 21 8t20 -8zM341 1704q-9 3 -16.5 9.5t-7.5 14.5q0 10 5 14.5
t13 4.5q6 0 11 -1t10 -3q35 -15 74.5 -36.5l85 -46.5l98 -52t112.5 -54l-2 -6q-122 57 -216.5 92z" />
    <glyph glyph-name="uni1EA5" unicode="&#x1ea5;" horiz-adv-x="1042" 
d="M236 885q19 0 37.5 -7t32.5 -20t23 -33t9 -45q0 -43 -29.5 -73.5t-79.5 -30.5q-22 0 -41 8.5t-33 24.5t-22 37t-8 47q0 46 22.5 94t66 87t107.5 64t146 25q89 0 159 -28.5t118.5 -81t74 -125.5t25.5 -162v-523q0 -49 25.5 -72.5t60.5 -23.5q38 0 64.5 26.5t31.5 69.5h6
q-2 -22 -12 -50.5t-31 -53.5t-52.5 -42t-76.5 -17q-80 0 -122 47t-50 149q-15 -34 -44.5 -68.5t-70.5 -63t-93 -46.5t-113 -18q-55 0 -104.5 16t-87.5 47.5t-60.5 77.5t-22.5 106q0 73 26.5 121t69.5 81t98.5 55t113 42t113 42t98.5 55.5t69.5 82.5t26.5 123q0 110 -69 167
t-202 57q-68 0 -118.5 -21t-85 -49.5t-51.5 -58t-17 -45.5q0 -11 10 -11q5 0 21 8.5t41 8.5zM686 694q-29 -47 -72 -78.5t-90.5 -57.5l-95 -51.5t-85.5 -60t-61.5 -83.5t-23.5 -121q0 -47 14.5 -85t41.5 -64.5t64.5 -41t82.5 -14.5q51 0 93 17t71 46t45 66.5t16 79.5v448z
M541 1495q28 -24 47 -43l41 -41l53 -51t82 -72l-4 -4q-52 44 -84.5 68t-57 40.5l-46 31t-52.5 38.5q-31 -24 -52.5 -38.5l-45.5 -31l-56.5 -40.5t-84.5 -68l-5 4q52 43 82 71.5l51.5 50.5l41 41.5t49.5 43.5q9 8 21 8t20 -8zM702 1704l-166.5 -64t-216.5 -92l-2 6
q60 27 112.5 54l98 52l85 46.5t74.5 36.5q5 2 10 3t11 1q8 0 13 -4.5t5 -14.5q0 -8 -7.5 -14.5t-16.5 -9.5z" />
    <glyph glyph-name="uni1EAB" unicode="&#x1eab;" horiz-adv-x="1042" 
d="M236 885q19 0 37.5 -7t32.5 -20t23 -33t9 -45q0 -43 -29.5 -73.5t-79.5 -30.5q-22 0 -41 8.5t-33 24.5t-22 37t-8 47q0 46 22.5 94t66 87t107.5 64t146 25q89 0 159 -28.5t118.5 -81t74 -125.5t25.5 -162v-523q0 -49 25.5 -72.5t60.5 -23.5q38 0 64.5 26.5t31.5 69.5h6
q-2 -22 -12 -50.5t-31 -53.5t-52.5 -42t-76.5 -17q-80 0 -122 47t-50 149q-15 -34 -44.5 -68.5t-70.5 -63t-93 -46.5t-113 -18q-55 0 -104.5 16t-87.5 47.5t-60.5 77.5t-22.5 106q0 73 26.5 121t69.5 81t98.5 55t113 42t113 42t98.5 55.5t69.5 82.5t26.5 123q0 110 -69 167
t-202 57q-68 0 -118.5 -21t-85 -49.5t-51.5 -58t-17 -45.5q0 -11 10 -11q5 0 21 8.5t41 8.5zM686 694q-29 -47 -72 -78.5t-90.5 -57.5l-95 -51.5t-85.5 -60t-61.5 -83.5t-23.5 -121q0 -47 14.5 -85t41.5 -64.5t64.5 -41t82.5 -14.5q51 0 93 17t71 46t45 66.5t16 79.5v448z
M541 1495q28 -24 47 -43l41 -41l53 -51t82 -72l-4 -4q-52 44 -84.5 68t-57 40.5l-46 31t-52.5 38.5q-31 -24 -52.5 -38.5l-45.5 -31l-56.5 -40.5t-84.5 -68l-5 4q52 43 82 71.5l51.5 50.5l41 41.5t49.5 43.5q9 8 21 8t20 -8zM695 1661q63 0 104.5 29.5t73.5 101.5h6
q-17 -39 -35.5 -69.5t-42 -51t-53.5 -31t-69 -10.5q-44 0 -76.5 10.5t-59 27t-49 35l-44.5 35t-47 27t-56 10.5q-63 0 -104.5 -30t-73.5 -101h-6q17 39 35.5 69.5t42 51t53.5 31t69 10.5q34 0 61 -10.5t50.5 -27t46 -35t48 -35t56 -27t70.5 -10.5z" />
    <glyph glyph-name="uni1EA9" unicode="&#x1ea9;" horiz-adv-x="1042" 
d="M236 885q19 0 37.5 -7t32.5 -20t23 -33t9 -45q0 -43 -29.5 -73.5t-79.5 -30.5q-22 0 -41 8.5t-33 24.5t-22 37t-8 47q0 46 22.5 94t66 87t107.5 64t146 25q89 0 159 -28.5t118.5 -81t74 -125.5t25.5 -162v-523q0 -49 25.5 -72.5t60.5 -23.5q38 0 64.5 26.5t31.5 69.5h6
q-2 -22 -12 -50.5t-31 -53.5t-52.5 -42t-76.5 -17q-80 0 -122 47t-50 149q-15 -34 -44.5 -68.5t-70.5 -63t-93 -46.5t-113 -18q-55 0 -104.5 16t-87.5 47.5t-60.5 77.5t-22.5 106q0 73 26.5 121t69.5 81t98.5 55t113 42t113 42t98.5 55.5t69.5 82.5t26.5 123q0 110 -69 167
t-202 57q-68 0 -118.5 -21t-85 -49.5t-51.5 -58t-17 -45.5q0 -11 10 -11q5 0 21 8.5t41 8.5zM686 694q-29 -47 -72 -78.5t-90.5 -57.5l-95 -51.5t-85.5 -60t-61.5 -83.5t-23.5 -121q0 -47 14.5 -85t41.5 -64.5t64.5 -41t82.5 -14.5q51 0 93 17t71 46t45 66.5t16 79.5v448z
M541 1495q28 -24 47 -43l41 -41l53 -51t82 -72l-4 -4q-52 44 -84.5 68t-57 40.5l-46 31t-52.5 38.5q-31 -24 -52.5 -38.5l-45.5 -31l-56.5 -40.5t-84.5 -68l-5 4q52 43 82 71.5l51.5 50.5l41 41.5t49.5 43.5q9 8 21 8t20 -8zM681 1487q-6 18 -9.5 33.5t-3.5 27.5
q0 26 9 45.5t23 35.5t29.5 30.5t29.5 30.5t23 36t9 47q0 44 -28.5 71t-71.5 27q-23 0 -41 -5t-30.5 -12.5t-20 -15t-8.5 -11.5h-7q14 23 41.5 38t67.5 15q63 0 99 -31t36 -84q0 -29 -14.5 -49t-35.5 -36.5l-43.5 -33t-38 -38t-19.5 -50.5t12 -71h-8z" />
    <glyph glyph-name="uni1EAD" unicode="&#x1ead;" horiz-adv-x="1042" 
d="M658 -303q0 -23 -8 -42t-21.5 -33t-32 -22t-39.5 -8q-43 0 -70.5 29t-27.5 74q0 23 8 42.5t21.5 33.5t31 22t37.5 8q45 0 73 -29t28 -75zM236 885q19 0 37.5 -7t32.5 -20t23 -33t9 -45q0 -43 -29.5 -73.5t-79.5 -30.5q-22 0 -41 8.5t-33 24.5t-22 37t-8 47q0 46 22.5 94
t66 87t107.5 64t146 25q89 0 159 -28.5t118.5 -81t74 -125.5t25.5 -162v-523q0 -49 25.5 -72.5t60.5 -23.5q38 0 64.5 26.5t31.5 69.5h6q-2 -22 -12 -50.5t-31 -53.5t-52.5 -42t-76.5 -17q-80 0 -122 47t-50 149q-15 -34 -44.5 -68.5t-70.5 -63t-93 -46.5t-113 -18
q-55 0 -104.5 16t-87.5 47.5t-60.5 77.5t-22.5 106q0 73 26.5 121t69.5 81t98.5 55t113 42t113 42t98.5 55.5t69.5 82.5t26.5 123q0 110 -69 167t-202 57q-68 0 -118.5 -21t-85 -49.5t-51.5 -58t-17 -45.5q0 -11 10 -11q5 0 21 8.5t41 8.5zM686 694q-29 -47 -72 -78.5
t-90.5 -57.5l-95 -51.5t-85.5 -60t-61.5 -83.5t-23.5 -121q0 -47 14.5 -85t41.5 -64.5t64.5 -41t82.5 -14.5q51 0 93 17t71 46t45 66.5t16 79.5v448zM541 1495q28 -24 47 -43l41 -41l53 -51t82 -72l-4 -4q-52 44 -84.5 68t-57 40.5l-46 31t-52.5 38.5q-31 -24 -52.5 -38.5
l-45.5 -31l-56.5 -40.5t-84.5 -68l-5 4q52 43 82 71.5l51.5 50.5l41 41.5t49.5 43.5q9 8 21 8t20 -8z" />
    <glyph glyph-name="atilde" unicode="&#xe3;" horiz-adv-x="1042" 
d="M236 885q19 0 37.5 -7t32.5 -20t23 -33t9 -45q0 -43 -29.5 -73.5t-79.5 -30.5q-22 0 -41 8.5t-33 24.5t-22 37t-8 47q0 46 22.5 94t66 87t107.5 64t146 25q89 0 159 -28.5t118.5 -81t74 -125.5t25.5 -162v-523q0 -49 25.5 -72.5t60.5 -23.5q38 0 64.5 26.5t31.5 69.5h6
q-2 -22 -12 -50.5t-31 -53.5t-52.5 -42t-76.5 -17q-80 0 -122 47t-50 149q-15 -34 -44.5 -68.5t-70.5 -63t-93 -46.5t-113 -18q-55 0 -104.5 16t-87.5 47.5t-60.5 77.5t-22.5 106q0 73 26.5 121t69.5 81t98.5 55t113 42t113 42t98.5 55.5t69.5 82.5t26.5 123q0 110 -69 167
t-202 57q-68 0 -118.5 -21t-85 -49.5t-51.5 -58t-17 -45.5q0 -11 10 -11q5 0 21 8.5t41 8.5zM686 694q-29 -47 -72 -78.5t-90.5 -57.5l-95 -51.5t-85.5 -60t-61.5 -83.5t-23.5 -121q0 -47 14.5 -85t41.5 -64.5t64.5 -41t82.5 -14.5q51 0 93 17t71 46t45 66.5t16 79.5v448z
M717 1346q63 0 104.5 29.5t73.5 101.5h6q-17 -39 -35.5 -69.5t-42.5 -51t-54 -31t-69 -10.5q-44 0 -76.5 10.5t-59 27t-48.5 35t-44.5 35t-47 27t-55.5 10.5q-63 0 -105 -30t-74 -101h-6q17 39 36 69.5t42.5 51t53.5 31t69 10.5q34 0 61 -10.5t50.5 -27t46 -35t48 -35
t56 -27t70.5 -10.5z" />
    <glyph glyph-name="adieresis" unicode="&#xe4;" horiz-adv-x="1042" 
d="M236 885q19 0 37.5 -7t32.5 -20t23 -33t9 -45q0 -43 -29.5 -73.5t-79.5 -30.5q-22 0 -41 8.5t-33 24.5t-22 37t-8 47q0 46 22.5 94t66 87t107.5 64t146 25q89 0 159 -28.5t118.5 -81t74 -125.5t25.5 -162v-523q0 -49 25.5 -72.5t60.5 -23.5q38 0 64.5 26.5t31.5 69.5h6
q-2 -22 -12 -50.5t-31 -53.5t-52.5 -42t-76.5 -17q-80 0 -122 47t-50 149q-15 -34 -44.5 -68.5t-70.5 -63t-93 -46.5t-113 -18q-55 0 -104.5 16t-87.5 47.5t-60.5 77.5t-22.5 106q0 73 26.5 121t69.5 81t98.5 55t113 42t113 42t98.5 55.5t69.5 82.5t26.5 123q0 110 -69 167
t-202 57q-68 0 -118.5 -21t-85 -49.5t-51.5 -58t-17 -45.5q0 -11 10 -11q5 0 21 8.5t41 8.5zM686 694q-29 -47 -72 -78.5t-90.5 -57.5l-95 -51.5t-85.5 -60t-61.5 -83.5t-23.5 -121q0 -47 14.5 -85t41.5 -64.5t64.5 -41t82.5 -14.5q51 0 93 17t71 46t45 66.5t16 79.5v448z
M467 1339q0 -45 -29 -74.5t-71 -29.5q-44 0 -71.5 28.5t-27.5 73.5q0 47 29 77t70 30q45 0 72.5 -29t27.5 -76zM793 1339q0 -22 -8 -41t-21.5 -33t-32 -22t-39.5 -8q-43 0 -70.5 28.5t-27.5 73.5q0 47 29 77t69 30q45 0 73 -29t28 -76z" />
    <glyph glyph-name="abreve" unicode="&#x103;" horiz-adv-x="1042" 
d="M236 885q19 0 37.5 -7t32.5 -20t23 -33t9 -45q0 -43 -29.5 -73.5t-79.5 -30.5q-22 0 -41 8.5t-33 24.5t-22 37t-8 47q0 46 22.5 94t66 87t107.5 64t146 25q89 0 159 -28.5t118.5 -81t74 -125.5t25.5 -162v-523q0 -49 25.5 -72.5t60.5 -23.5q38 0 64.5 26.5t31.5 69.5h6
q-2 -22 -12 -50.5t-31 -53.5t-52.5 -42t-76.5 -17q-80 0 -122 47t-50 149q-15 -34 -44.5 -68.5t-70.5 -63t-93 -46.5t-113 -18q-55 0 -104.5 16t-87.5 47.5t-60.5 77.5t-22.5 106q0 73 26.5 121t69.5 81t98.5 55t113 42t113 42t98.5 55.5t69.5 82.5t26.5 123q0 110 -69 167
t-202 57q-68 0 -118.5 -21t-85 -49.5t-51.5 -58t-17 -45.5q0 -11 10 -11q5 0 21 8.5t41 8.5zM686 694q-29 -47 -72 -78.5t-90.5 -57.5l-95 -51.5t-85.5 -60t-61.5 -83.5t-23.5 -121q0 -47 14.5 -85t41.5 -64.5t64.5 -41t82.5 -14.5q51 0 93 17t71 46t45 66.5t16 79.5v448z
M520 1313q53 0 101.5 10.5t89 32t72 54t51.5 77.5h6q-42 -99 -121.5 -151t-198.5 -52t-198 52t-121 151h6q19 -45 50.5 -77.5t72 -54t89 -32t101.5 -10.5z" />
    <glyph glyph-name="uni1EB1" unicode="&#x1eb1;" horiz-adv-x="1042" 
d="M236 885q19 0 37.5 -7t32.5 -20t23 -33t9 -45q0 -43 -29.5 -73.5t-79.5 -30.5q-22 0 -41 8.5t-33 24.5t-22 37t-8 47q0 46 22.5 94t66 87t107.5 64t146 25q89 0 159 -28.5t118.5 -81t74 -125.5t25.5 -162v-523q0 -49 25.5 -72.5t60.5 -23.5q38 0 64.5 26.5t31.5 69.5h6
q-2 -22 -12 -50.5t-31 -53.5t-52.5 -42t-76.5 -17q-80 0 -122 47t-50 149q-15 -34 -44.5 -68.5t-70.5 -63t-93 -46.5t-113 -18q-55 0 -104.5 16t-87.5 47.5t-60.5 77.5t-22.5 106q0 73 26.5 121t69.5 81t98.5 55t113 42t113 42t98.5 55.5t69.5 82.5t26.5 123q0 110 -69 167
t-202 57q-68 0 -118.5 -21t-85 -49.5t-51.5 -58t-17 -45.5q0 -11 10 -11q5 0 21 8.5t41 8.5zM686 694q-29 -47 -72 -78.5t-90.5 -57.5l-95 -51.5t-85.5 -60t-61.5 -83.5t-23.5 -121q0 -47 14.5 -85t41.5 -64.5t64.5 -41t82.5 -14.5q51 0 93 17t71 46t45 66.5t16 79.5v448z
M520 1313q53 0 101.5 10.5t89 32t72 54t51.5 77.5h6q-42 -99 -121.5 -151t-198.5 -52t-198 52t-121 151h6q19 -45 50.5 -77.5t72 -54t89 -32t101.5 -10.5zM253 1704q-9 3 -16.5 9.5t-7.5 14.5q0 10 5 14.5t13 4.5q6 0 11 -1t10 -3q35 -15 74.5 -36.5l85 -46.5l98 -52
t112.5 -54l-2 -6q-122 57 -216.5 92z" />
    <glyph glyph-name="uni1EAF" unicode="&#x1eaf;" horiz-adv-x="1042" 
d="M236 885q19 0 37.5 -7t32.5 -20t23 -33t9 -45q0 -43 -29.5 -73.5t-79.5 -30.5q-22 0 -41 8.5t-33 24.5t-22 37t-8 47q0 46 22.5 94t66 87t107.5 64t146 25q89 0 159 -28.5t118.5 -81t74 -125.5t25.5 -162v-523q0 -49 25.5 -72.5t60.5 -23.5q38 0 64.5 26.5t31.5 69.5h6
q-2 -22 -12 -50.5t-31 -53.5t-52.5 -42t-76.5 -17q-80 0 -122 47t-50 149q-15 -34 -44.5 -68.5t-70.5 -63t-93 -46.5t-113 -18q-55 0 -104.5 16t-87.5 47.5t-60.5 77.5t-22.5 106q0 73 26.5 121t69.5 81t98.5 55t113 42t113 42t98.5 55.5t69.5 82.5t26.5 123q0 110 -69 167
t-202 57q-68 0 -118.5 -21t-85 -49.5t-51.5 -58t-17 -45.5q0 -11 10 -11q5 0 21 8.5t41 8.5zM686 694q-29 -47 -72 -78.5t-90.5 -57.5l-95 -51.5t-85.5 -60t-61.5 -83.5t-23.5 -121q0 -47 14.5 -85t41.5 -64.5t64.5 -41t82.5 -14.5q51 0 93 17t71 46t45 66.5t16 79.5v448z
M520 1313q53 0 101.5 10.5t89 32t72 54t51.5 77.5h6q-42 -99 -121.5 -151t-198.5 -52t-198 52t-121 151h6q19 -45 50.5 -77.5t72 -54t89 -32t101.5 -10.5zM740 1704l-166.5 -64t-216.5 -92l-2 6q60 27 112.5 54l98 52l85 46.5t74.5 36.5q5 2 10 3t11 1q8 0 13 -4.5t5 -14.5
q0 -8 -7.5 -14.5t-16.5 -9.5z" />
    <glyph glyph-name="uni1EB5" unicode="&#x1eb5;" horiz-adv-x="1042" 
d="M236 885q19 0 37.5 -7t32.5 -20t23 -33t9 -45q0 -43 -29.5 -73.5t-79.5 -30.5q-22 0 -41 8.5t-33 24.5t-22 37t-8 47q0 46 22.5 94t66 87t107.5 64t146 25q89 0 159 -28.5t118.5 -81t74 -125.5t25.5 -162v-523q0 -49 25.5 -72.5t60.5 -23.5q38 0 64.5 26.5t31.5 69.5h6
q-2 -22 -12 -50.5t-31 -53.5t-52.5 -42t-76.5 -17q-80 0 -122 47t-50 149q-15 -34 -44.5 -68.5t-70.5 -63t-93 -46.5t-113 -18q-55 0 -104.5 16t-87.5 47.5t-60.5 77.5t-22.5 106q0 73 26.5 121t69.5 81t98.5 55t113 42t113 42t98.5 55.5t69.5 82.5t26.5 123q0 110 -69 167
t-202 57q-68 0 -118.5 -21t-85 -49.5t-51.5 -58t-17 -45.5q0 -11 10 -11q5 0 21 8.5t41 8.5zM686 694q-29 -47 -72 -78.5t-90.5 -57.5l-95 -51.5t-85.5 -60t-61.5 -83.5t-23.5 -121q0 -47 14.5 -85t41.5 -64.5t64.5 -41t82.5 -14.5q51 0 93 17t71 46t45 66.5t16 79.5v448z
M520 1313q53 0 101.5 10.5t89 32t72 54t51.5 77.5h6q-42 -99 -121.5 -151t-198.5 -52t-198 52t-121 151h6q19 -45 50.5 -77.5t72 -54t89 -32t101.5 -10.5zM695 1661q63 0 104.5 29.5t73.5 101.5h6q-17 -39 -35.5 -69.5t-42 -51t-53.5 -31t-69 -10.5q-44 0 -76.5 10.5t-59 27
t-49 35l-44.5 35t-47 27t-56 10.5q-63 0 -104.5 -30t-73.5 -101h-6q17 39 35.5 69.5t42 51t53.5 31t69 10.5q34 0 61 -10.5t50.5 -27t46 -35t48 -35t56 -27t70.5 -10.5z" />
    <glyph glyph-name="uni1EB3" unicode="&#x1eb3;" horiz-adv-x="1042" 
d="M236 885q19 0 37.5 -7t32.5 -20t23 -33t9 -45q0 -43 -29.5 -73.5t-79.5 -30.5q-22 0 -41 8.5t-33 24.5t-22 37t-8 47q0 46 22.5 94t66 87t107.5 64t146 25q89 0 159 -28.5t118.5 -81t74 -125.5t25.5 -162v-523q0 -49 25.5 -72.5t60.5 -23.5q38 0 64.5 26.5t31.5 69.5h6
q-2 -22 -12 -50.5t-31 -53.5t-52.5 -42t-76.5 -17q-80 0 -122 47t-50 149q-15 -34 -44.5 -68.5t-70.5 -63t-93 -46.5t-113 -18q-55 0 -104.5 16t-87.5 47.5t-60.5 77.5t-22.5 106q0 73 26.5 121t69.5 81t98.5 55t113 42t113 42t98.5 55.5t69.5 82.5t26.5 123q0 110 -69 167
t-202 57q-68 0 -118.5 -21t-85 -49.5t-51.5 -58t-17 -45.5q0 -11 10 -11q5 0 21 8.5t41 8.5zM686 694q-29 -47 -72 -78.5t-90.5 -57.5l-95 -51.5t-85.5 -60t-61.5 -83.5t-23.5 -121q0 -47 14.5 -85t41.5 -64.5t64.5 -41t82.5 -14.5q51 0 93 17t71 46t45 66.5t16 79.5v448z
M520 1313q53 0 101.5 10.5t89 32t72 54t51.5 77.5h6q-42 -99 -121.5 -151t-198.5 -52t-198 52t-121 151h6q19 -45 50.5 -77.5t72 -54t89 -32t101.5 -10.5zM511 1487q-6 18 -9.5 33.5t-3.5 27.5q0 26 9 45.5t23 35.5t29.5 30.5t29.5 30.5t23 36t9 47q0 44 -28.5 71t-71.5 27
q-23 0 -41 -5t-30.5 -12.5t-20 -15t-8.5 -11.5h-7q14 23 41.5 38t67.5 15q63 0 99 -31t36 -84q0 -29 -14.5 -49t-35.5 -36.5l-43.5 -33t-38 -38t-19.5 -50.5t12 -71h-8z" />
    <glyph glyph-name="uni1EB7" unicode="&#x1eb7;" horiz-adv-x="1042" 
d="M621 -308q0 -23 -8 -42t-21.5 -33t-32 -22t-39.5 -8q-43 0 -70.5 29t-27.5 74q0 23 8 42.5t21.5 33.5t31 22t37.5 8q45 0 73 -29t28 -75zM236 885q19 0 37.5 -7t32.5 -20t23 -33t9 -45q0 -43 -29.5 -73.5t-79.5 -30.5q-22 0 -41 8.5t-33 24.5t-22 37t-8 47q0 46 22.5 94
t66 87t107.5 64t146 25q89 0 159 -28.5t118.5 -81t74 -125.5t25.5 -162v-523q0 -49 25.5 -72.5t60.5 -23.5q38 0 64.5 26.5t31.5 69.5h6q-2 -22 -12 -50.5t-31 -53.5t-52.5 -42t-76.5 -17q-80 0 -122 47t-50 149q-15 -34 -44.5 -68.5t-70.5 -63t-93 -46.5t-113 -18
q-55 0 -104.5 16t-87.5 47.5t-60.5 77.5t-22.5 106q0 73 26.5 121t69.5 81t98.5 55t113 42t113 42t98.5 55.5t69.5 82.5t26.5 123q0 110 -69 167t-202 57q-68 0 -118.5 -21t-85 -49.5t-51.5 -58t-17 -45.5q0 -11 10 -11q5 0 21 8.5t41 8.5zM686 694q-29 -47 -72 -78.5
t-90.5 -57.5l-95 -51.5t-85.5 -60t-61.5 -83.5t-23.5 -121q0 -47 14.5 -85t41.5 -64.5t64.5 -41t82.5 -14.5q51 0 93 17t71 46t45 66.5t16 79.5v448zM520 1313q53 0 101.5 10.5t89 32t72 54t51.5 77.5h6q-42 -99 -121.5 -151t-198.5 -52t-198 52t-121 151h6
q19 -45 50.5 -77.5t72 -54t89 -32t101.5 -10.5z" />
    <glyph glyph-name="aring" unicode="&#xe5;" horiz-adv-x="1042" 
d="M236 885q19 0 37.5 -7t32.5 -20t23 -33t9 -45q0 -43 -29.5 -73.5t-79.5 -30.5q-22 0 -41 8.5t-33 24.5t-22 37t-8 47q0 46 22.5 94t66 87t107.5 64t146 25q89 0 159 -28.5t118.5 -81t74 -125.5t25.5 -162v-523q0 -49 25.5 -72.5t60.5 -23.5q38 0 64.5 26.5t31.5 69.5h6
q-2 -22 -12 -50.5t-31 -53.5t-52.5 -42t-76.5 -17q-80 0 -122 47t-50 149q-15 -34 -44.5 -68.5t-70.5 -63t-93 -46.5t-113 -18q-55 0 -104.5 16t-87.5 47.5t-60.5 77.5t-22.5 106q0 73 26.5 121t69.5 81t98.5 55t113 42t113 42t98.5 55.5t69.5 82.5t26.5 123q0 110 -69 167
t-202 57q-68 0 -118.5 -21t-85 -49.5t-51.5 -58t-17 -45.5q0 -11 10 -11q5 0 21 8.5t41 8.5zM686 694q-29 -47 -72 -78.5t-90.5 -57.5l-95 -51.5t-85.5 -60t-61.5 -83.5t-23.5 -121q0 -47 14.5 -85t41.5 -64.5t64.5 -41t82.5 -14.5q51 0 93 17t71 46t45 66.5t16 79.5v448z
M324 1397q0 40 15 75t40.5 61t60 41t74.5 15t75 -15t61.5 -41t41.5 -61t15 -75t-15 -75t-41.5 -60.5t-61.5 -40.5t-75 -15t-74.5 15t-60 40.5t-40.5 60.5t-15 75zM356 1397q0 -38 10 -71.5t30 -59t49.5 -40t68.5 -14.5t69 14.5t50 40t30.5 59t10.5 71.5q0 37 -10.5 71
t-30.5 59.5t-50 40.5t-69 15t-68.5 -15t-49.5 -40.5t-30 -59.5t-10 -71z" />
    <glyph glyph-name="uni1EA3" unicode="&#x1ea3;" horiz-adv-x="1042" 
d="M236 885q19 0 37.5 -7t32.5 -20t23 -33t9 -45q0 -43 -29.5 -73.5t-79.5 -30.5q-22 0 -41 8.5t-33 24.5t-22 37t-8 47q0 46 22.5 94t66 87t107.5 64t146 25q89 0 159 -28.5t118.5 -81t74 -125.5t25.5 -162v-523q0 -49 25.5 -72.5t60.5 -23.5q38 0 64.5 26.5t31.5 69.5h6
q-2 -22 -12 -50.5t-31 -53.5t-52.5 -42t-76.5 -17q-80 0 -122 47t-50 149q-15 -34 -44.5 -68.5t-70.5 -63t-93 -46.5t-113 -18q-55 0 -104.5 16t-87.5 47.5t-60.5 77.5t-22.5 106q0 73 26.5 121t69.5 81t98.5 55t113 42t113 42t98.5 55.5t69.5 82.5t26.5 123q0 110 -69 167
t-202 57q-68 0 -118.5 -21t-85 -49.5t-51.5 -58t-17 -45.5q0 -11 10 -11q5 0 21 8.5t41 8.5zM686 694q-29 -47 -72 -78.5t-90.5 -57.5l-95 -51.5t-85.5 -60t-61.5 -83.5t-23.5 -121q0 -47 14.5 -85t41.5 -64.5t64.5 -41t82.5 -14.5q51 0 93 17t71 46t45 66.5t16 79.5v448z
M495 1180q-6 18 -9.5 33.5t-3.5 27.5q0 26 9 45.5t23 35.5t29.5 30.5t29.5 30.5t23 36t9 47q0 44 -28.5 71t-71.5 27q-23 0 -41 -5t-30.5 -12.5t-20 -15t-8.5 -11.5h-7q14 23 41.5 38t67.5 15q63 0 99 -31t36 -84q0 -29 -14.5 -49t-35.5 -36.5l-43.5 -33t-38 -38
t-19.5 -50.5t12 -71h-8z" />
    <glyph glyph-name="uni1EA1" unicode="&#x1ea1;" horiz-adv-x="1042" 
d="M236 885q19 0 37.5 -7t32.5 -20t23 -33t9 -45q0 -43 -29.5 -73.5t-79.5 -30.5q-22 0 -41 8.5t-33 24.5t-22 37t-8 47q0 46 22.5 94t66 87t107.5 64t146 25q89 0 159 -28.5t118.5 -81t74 -125.5t25.5 -162v-523q0 -49 25.5 -72.5t60.5 -23.5q38 0 64.5 26.5t31.5 69.5h6
q-2 -22 -12 -50.5t-31 -53.5t-52.5 -42t-76.5 -17q-80 0 -122 47t-50 149q-15 -34 -44.5 -68.5t-70.5 -63t-93 -46.5t-113 -18q-55 0 -104.5 16t-87.5 47.5t-60.5 77.5t-22.5 106q0 73 26.5 121t69.5 81t98.5 55t113 42t113 42t98.5 55.5t69.5 82.5t26.5 123q0 110 -69 167
t-202 57q-68 0 -118.5 -21t-85 -49.5t-51.5 -58t-17 -45.5q0 -11 10 -11q5 0 21 8.5t41 8.5zM686 694q-29 -47 -72 -78.5t-90.5 -57.5l-95 -51.5t-85.5 -60t-61.5 -83.5t-23.5 -121q0 -47 14.5 -85t41.5 -64.5t64.5 -41t82.5 -14.5q51 0 93 17t71 46t45 66.5t16 79.5v448z
M621 -303q0 -23 -8 -42t-21.5 -33t-32 -22t-39.5 -8q-43 0 -70.5 29t-27.5 74q0 23 8 42.5t21.5 33.5t31 22t37.5 8q45 0 73 -29t28 -75z" />
    <glyph glyph-name="ae" unicode="&#xe6;" horiz-adv-x="1593" 
d="M367 -20q-55 0 -104.5 16t-87.5 47.5t-60.5 77.5t-22.5 106q0 73 26.5 121t69.5 81t98.5 55t113 42t113 42t98.5 55.5t69.5 82.5t26.5 123q0 110 -69 167t-202 57q-68 0 -118.5 -21t-85 -49.5t-51.5 -58t-17 -45.5q0 -11 10 -11q5 0 21 8.5t41 8.5q19 0 37.5 -7t32.5 -20
t23 -33t9 -45q0 -43 -29.5 -73.5t-79.5 -30.5q-22 0 -41 8.5t-33 24.5t-22 37t-8 47q0 46 22.5 94t66 87t107.5 64t146 25q111 0 191 -45t126 -123q62 78 148.5 124t191.5 46q90 0 162.5 -32.5t123 -93t76.5 -146t23 -191.5h-673q-2 -23 -2 -47v-47q0 -92 20.5 -181t64 -159
t112.5 -113t167 -43q53 0 100 15.5t84 45.5t61.5 74t31.5 101h8q-6 -59 -33 -108t-72 -84.5t-107.5 -55.5t-140.5 -20q-65 0 -125 17.5t-112 50.5t-95 80.5t-73 107.5q-12 -49 -39.5 -95t-72 -82t-105.5 -57.5t-141 -21.5zM662 518q0 45 4.5 87.5t15.5 84.5q-29 -46 -72 -77
t-90 -57l-94 -51t-84 -59.5t-60.5 -83t-23.5 -120.5q0 -47 15 -85t42.5 -65t65.5 -42t84 -15q53 0 96.5 14.5t75 42t48.5 68.5t17 94q0 32 -6.5 54l-14 47.5t-13.5 62.5t-6 100zM1124 1059q-65 0 -115 -35t-86 -96t-58 -143.5t-29 -176.5h489q1 106 -9 190t-34 142t-63 88.5
t-95 30.5z" />
    <glyph glyph-name="aeacute" unicode="&#x1fd;" horiz-adv-x="1815" 
d="M367 -20q-55 0 -104.5 16t-87.5 47.5t-60.5 77.5t-22.5 106q0 73 26.5 121t69.5 81t98.5 55t113 42t113 42t98.5 55.5t69.5 82.5t26.5 123q0 110 -69 167t-202 57q-68 0 -118.5 -21t-85 -49.5t-51.5 -58t-17 -45.5q0 -11 10 -11q5 0 21 8.5t41 8.5q19 0 37.5 -7t32.5 -20
t23 -33t9 -45q0 -43 -29.5 -73.5t-79.5 -30.5q-22 0 -41 8.5t-33 24.5t-22 37t-8 47q0 46 22.5 94t66 87t107.5 64t146 25q111 0 191 -45t126 -123q62 78 148.5 124t191.5 46q90 0 162.5 -32.5t123 -93t76.5 -146t23 -191.5h-673q-2 -23 -2 -47v-47q0 -92 20.5 -181t64 -159
t112.5 -113t167 -43q53 0 100 15.5t84 45.5t61.5 74t31.5 101h8q-6 -59 -33 -108t-72 -84.5t-107.5 -55.5t-140.5 -20q-65 0 -125 17.5t-112 50.5t-95 80.5t-73 107.5q-12 -49 -39.5 -95t-72 -82t-105.5 -57.5t-141 -21.5zM662 518q0 45 4.5 87.5t15.5 84.5q-29 -46 -72 -77
t-90 -57l-94 -51t-84 -59.5t-60.5 -83t-23.5 -120.5q0 -47 15 -85t42.5 -65t65.5 -42t84 -15q53 0 96.5 14.5t75 42t48.5 68.5t17 94q0 32 -6.5 54l-14 47.5t-13.5 62.5t-6 100zM1124 1059q-65 0 -115 -35t-86 -96t-58 -143.5t-29 -176.5h489q1 106 -9 190t-34 142t-63 88.5
t-95 30.5zM1295 1442l-166.5 -64t-216.5 -92l-2 6q60 27 112.5 54l98 52l85 46.5t74.5 36.5q5 2 10 3t11 1q8 0 13 -4.5t5 -14.5q0 -8 -7.5 -14.5t-16.5 -9.5z" />
    <glyph glyph-name="uni01E3" unicode="&#x1e3;" horiz-adv-x="1815" 
d="M367 -20q-55 0 -104.5 16t-87.5 47.5t-60.5 77.5t-22.5 106q0 73 26.5 121t69.5 81t98.5 55t113 42t113 42t98.5 55.5t69.5 82.5t26.5 123q0 110 -69 167t-202 57q-68 0 -118.5 -21t-85 -49.5t-51.5 -58t-17 -45.5q0 -11 10 -11q5 0 21 8.5t41 8.5q19 0 37.5 -7t32.5 -20
t23 -33t9 -45q0 -43 -29.5 -73.5t-79.5 -30.5q-22 0 -41 8.5t-33 24.5t-22 37t-8 47q0 46 22.5 94t66 87t107.5 64t146 25q111 0 191 -45t126 -123q62 78 148.5 124t191.5 46q90 0 162.5 -32.5t123 -93t76.5 -146t23 -191.5h-673q-2 -23 -2 -47v-47q0 -92 20.5 -181t64 -159
t112.5 -113t167 -43q53 0 100 15.5t84 45.5t61.5 74t31.5 101h8q-6 -59 -33 -108t-72 -84.5t-107.5 -55.5t-140.5 -20q-65 0 -125 17.5t-112 50.5t-95 80.5t-73 107.5q-12 -49 -39.5 -95t-72 -82t-105.5 -57.5t-141 -21.5zM662 518q0 45 4.5 87.5t15.5 84.5q-29 -46 -72 -77
t-90 -57l-94 -51t-84 -59.5t-60.5 -83t-23.5 -120.5q0 -47 15 -85t42.5 -65t65.5 -42t84 -15q53 0 96.5 14.5t75 42t48.5 68.5t17 94q0 32 -6.5 54l-14 47.5t-13.5 62.5t-6 100zM1124 1059q-65 0 -115 -35t-86 -96t-58 -143.5t-29 -176.5h489q1 106 -9 190t-34 142t-63 88.5
t-95 30.5zM1401 1370q-70 0 -113 -1.5t-74 -3.5t-57.5 -3.5t-62.5 -1.5q-39 0 -65.5 1.5t-56.5 3.5t-71 3.5t-108 1.5v6q67 0 108 1.5t71 3.5t56.5 3.5t65.5 1.5q36 0 62.5 -1.5t57.5 -3.5t74 -3.5t113 -1.5v-6z" />
    <glyph glyph-name="ccedilla" unicode="&#xe7;" horiz-adv-x="965" 
d="M553 -20q-101 1 -186 43t-146 114.5t-95 170.5t-34 210t37 211.5t102 174t153 118t191 43.5q83 0 144 -22.5t100.5 -59t58.5 -82.5t19 -92q0 -26 -8 -48t-22 -39t-33 -26.5t-41 -9.5q-50 0 -79.5 30.5t-29.5 74.5q0 25 9 44.5t23 32.5t32.5 20t37.5 7q25 0 41 -8t21 -8
q10 0 10 10q0 16 -14 44t-44.5 55t-78.5 47t-115 20q-80 0 -143.5 -36.5t-108 -105t-68.5 -166t-24 -219.5q0 -112 26 -207.5t73.5 -165t115 -108.5t150.5 -39q48 0 93.5 16t82 47t61 75.5t31.5 101.5h8q-6 -59 -31.5 -107.5t-69.5 -84t-105 -55.5t-138 -21l-131 -138
q1 1 10 5.5t25 9.5t39.5 9.5t54.5 4.5q37 0 70 -7t57.5 -21.5t38.5 -37t14 -53.5t-15 -57t-41 -44.5t-62 -29t-78 -10.5t-73.5 9.5t-52.5 24.5t-31.5 32.5t-10.5 33.5q0 17 12 30t29 13q20 0 31.5 -11.5t11.5 -27.5q0 -17 -12.5 -27t-26.5 -10q-11 0 -17 4.5t-8 4.5
q-4 0 -4 -4q0 -7 8.5 -18.5t25 -22t41.5 -18t58 -7.5q84 0 125 36t41 93q0 60 -40 89.5t-111 29.5q-29 0 -50 -5t-34 -11q-16 -7 -25 -15h-12z" />
    <glyph glyph-name="dcroat" unicode="&#x111;" horiz-adv-x="1182" 
d="M552 1228h284v199h-134v7h285v-206h140v-6h-140v-1079q0 -49 26.5 -72.5t61.5 -23.5q34 0 60.5 26.5t29.5 69.5h6q-2 -22 -12.5 -50.5t-31.5 -53.5t-54 -42t-78 -17q-69 0 -109.5 46.5t-49.5 137.5q-17 -39 -45 -72.5t-66 -58t-85.5 -39t-102.5 -14.5q-102 0 -184.5 41
t-140.5 112t-89 168t-31 209q0 113 35 214t97.5 176.5t147 120t183.5 44.5q51 0 94.5 -13t79.5 -35.5t63 -53t44 -66.5v325h-284v6zM580 8q57 0 104.5 18.5t81 52.5t52 82.5t18.5 108.5v521q0 59 -18.5 105.5t-51 79t-77.5 49.5t-99 17q-80 0 -141 -39t-102.5 -109
t-63 -165.5t-21.5 -208.5q0 -112 21 -206t61.5 -162t100 -106t135.5 -38z" />
    <glyph glyph-name="egrave" unicode="&#xe8;" 
d="M266 602q-2 -23 -2 -47v-47q0 -92 20.5 -181t64.5 -159t113 -113t167 -43q53 0 100 15.5t84 45.5t61 74t31 101h8q-6 -59 -32.5 -108t-71.5 -84.5t-107.5 -55.5t-140.5 -20q-103 0 -189 42t-148.5 115t-97 171t-34.5 210t34 211.5t95.5 174t146.5 118t187 43.5
q90 0 162.5 -32.5t123 -93t76.5 -146t23 -191.5h-674zM555 1059q-65 0 -115 -35t-86 -96t-58 -143.5t-30 -176.5h490q1 106 -9 190t-34 142t-63 88.5t-95 30.5zM332 1442q-10 3 -17.5 9.5t-7.5 14.5q0 19 19 19q6 0 10.5 -1t9.5 -3q35 -15 74.5 -36.5l85.5 -46.5l98 -52
t113 -54l-2 -6q-122 57 -217 92t-166 64z" />
    <glyph glyph-name="eacute" unicode="&#xe9;" 
d="M266 602q-2 -23 -2 -47v-47q0 -92 20.5 -181t64.5 -159t113 -113t167 -43q53 0 100 15.5t84 45.5t61 74t31 101h8q-6 -59 -32.5 -108t-71.5 -84.5t-107.5 -55.5t-140.5 -20q-103 0 -189 42t-148.5 115t-97 171t-34.5 210t34 211.5t95.5 174t146.5 118t187 43.5
q90 0 162.5 -32.5t123 -93t76.5 -146t23 -191.5h-674zM555 1059q-65 0 -115 -35t-86 -96t-58 -143.5t-30 -176.5h490q1 106 -9 190t-34 142t-63 88.5t-95 30.5zM727 1442q-71 -29 -166 -64t-217 -92l-2 6q121 54 210.5 106t160.5 83q5 2 9.5 3t10.5 1q8 0 13.5 -4.5
t5.5 -14.5q0 -8 -8 -14.5t-17 -9.5z" />
    <glyph glyph-name="ecircumflex" unicode="&#xea;" 
d="M266 602q-2 -23 -2 -47v-47q0 -92 20.5 -181t64.5 -159t113 -113t167 -43q53 0 100 15.5t84 45.5t61 74t31 101h8q-6 -59 -32.5 -108t-71.5 -84.5t-107.5 -55.5t-140.5 -20q-103 0 -189 42t-148.5 115t-97 171t-34.5 210t34 211.5t95.5 174t146.5 118t187 43.5
q90 0 162.5 -32.5t123 -93t76.5 -146t23 -191.5h-674zM555 1059q-65 0 -115 -35t-86 -96t-58 -143.5t-30 -176.5h490q1 106 -9 190t-34 142t-63 88.5t-95 30.5zM553 1495q28 -24 47.5 -43l41 -41t52.5 -51t82 -72l-4 -4q-52 44 -84.5 68t-57 40.5l-46 31t-52.5 38.5
q-30 -24 -52 -38.5l-46 -31l-56.5 -40.5t-84.5 -68l-4 4l58.5 51l42.5 39.5l32 32l27 27.5l28 27t35 30q9 8 21 8t20 -8z" />
    <glyph glyph-name="uni1EC1" unicode="&#x1ec1;" 
d="M266 602q-2 -23 -2 -47v-47q0 -92 20.5 -181t64.5 -159t113 -113t167 -43q53 0 100 15.5t84 45.5t61 74t31 101h8q-6 -59 -32.5 -108t-71.5 -84.5t-107.5 -55.5t-140.5 -20q-103 0 -189 42t-148.5 115t-97 171t-34.5 210t34 211.5t95.5 174t146.5 118t187 43.5
q90 0 162.5 -32.5t123 -93t76.5 -146t23 -191.5h-674zM555 1059q-65 0 -115 -35t-86 -96t-58 -143.5t-30 -176.5h490q1 106 -9 190t-34 142t-63 88.5t-95 30.5zM553 1495q28 -24 47.5 -43l41 -41t52.5 -51t82 -72l-4 -4q-52 44 -84.5 68t-57 40.5l-46 31t-52.5 38.5
q-30 -24 -52 -38.5l-46 -31l-56.5 -40.5t-84.5 -68l-4 4l58.5 51l42.5 39.5l32 32l27 27.5l28 27t35 30q9 8 21 8t20 -8zM354 1704q-9 3 -16.5 9.5t-7.5 14.5q0 10 5 14.5t13 4.5q6 0 11 -1t10 -3q35 -15 74.5 -36.5l85 -46.5l98 -52t112.5 -54l-2 -6q-122 57 -216.5 92z
" />
    <glyph glyph-name="uni1EBF" unicode="&#x1ebf;" 
d="M266 602q-2 -23 -2 -47v-47q0 -92 20.5 -181t64.5 -159t113 -113t167 -43q53 0 100 15.5t84 45.5t61 74t31 101h8q-6 -59 -32.5 -108t-71.5 -84.5t-107.5 -55.5t-140.5 -20q-103 0 -189 42t-148.5 115t-97 171t-34.5 210t34 211.5t95.5 174t146.5 118t187 43.5
q90 0 162.5 -32.5t123 -93t76.5 -146t23 -191.5h-674zM555 1059q-65 0 -115 -35t-86 -96t-58 -143.5t-30 -176.5h490q1 106 -9 190t-34 142t-63 88.5t-95 30.5zM553 1495q28 -24 47.5 -43l41 -41t52.5 -51t82 -72l-4 -4q-52 44 -84.5 68t-57 40.5l-46 31t-52.5 38.5
q-30 -24 -52 -38.5l-46 -31l-56.5 -40.5t-84.5 -68l-4 4l58.5 51l42.5 39.5l32 32l27 27.5l28 27t35 30q9 8 21 8t20 -8zM715 1704l-166.5 -64t-216.5 -92l-2 6q60 27 112.5 54l98 52l85 46.5t74.5 36.5q5 2 10 3t11 1q8 0 13 -4.5t5 -14.5q0 -8 -7.5 -14.5t-16.5 -9.5z" />
    <glyph glyph-name="uni1EC5" unicode="&#x1ec5;" 
d="M266 602q-2 -23 -2 -47v-47q0 -92 20.5 -181t64.5 -159t113 -113t167 -43q53 0 100 15.5t84 45.5t61 74t31 101h8q-6 -59 -32.5 -108t-71.5 -84.5t-107.5 -55.5t-140.5 -20q-103 0 -189 42t-148.5 115t-97 171t-34.5 210t34 211.5t95.5 174t146.5 118t187 43.5
q90 0 162.5 -32.5t123 -93t76.5 -146t23 -191.5h-674zM555 1059q-65 0 -115 -35t-86 -96t-58 -143.5t-30 -176.5h490q1 106 -9 190t-34 142t-63 88.5t-95 30.5zM553 1495q28 -24 47.5 -43l41 -41t52.5 -51t82 -72l-4 -4q-52 44 -84.5 68t-57 40.5l-46 31t-52.5 38.5
q-30 -24 -52 -38.5l-46 -31l-56.5 -40.5t-84.5 -68l-4 4l58.5 51l42.5 39.5l32 32l27 27.5l28 27t35 30q9 8 21 8t20 -8zM706 1659q63 0 104.5 29.5t73.5 101.5h6q-17 -39 -35.5 -69.5t-42 -51t-53.5 -31t-69 -10.5q-44 0 -76.5 10.5t-59 27t-49 35l-44.5 35t-47 27
t-56 10.5q-63 0 -104.5 -30t-73.5 -101h-6q17 39 35.5 69.5t42 51t53.5 31t69 10.5q34 0 61 -10.5t50.5 -27t46 -35t48 -35t56 -27t70.5 -10.5z" />
    <glyph glyph-name="uni1EC3" unicode="&#x1ec3;" 
d="M266 602q-2 -23 -2 -47v-47q0 -92 20.5 -181t64.5 -159t113 -113t167 -43q53 0 100 15.5t84 45.5t61 74t31 101h8q-6 -59 -32.5 -108t-71.5 -84.5t-107.5 -55.5t-140.5 -20q-103 0 -189 42t-148.5 115t-97 171t-34.5 210t34 211.5t95.5 174t146.5 118t187 43.5
q90 0 162.5 -32.5t123 -93t76.5 -146t23 -191.5h-674zM555 1059q-65 0 -115 -35t-86 -96t-58 -143.5t-30 -176.5h490q1 106 -9 190t-34 142t-63 88.5t-95 30.5zM553 1495q28 -24 47.5 -43l41 -41t52.5 -51t82 -72l-4 -4q-52 44 -84.5 68t-57 40.5l-46 31t-52.5 38.5
q-30 -24 -52 -38.5l-46 -31l-56.5 -40.5t-84.5 -68l-4 4l58.5 51l42.5 39.5l32 32l27 27.5l28 27t35 30q9 8 21 8t20 -8zM681 1487q-6 18 -9.5 33.5t-3.5 27.5q0 26 9 45.5t23 35.5t29.5 30.5t29.5 30.5t23 36t9 47q0 44 -28.5 71t-71.5 27q-23 0 -41 -5t-30.5 -12.5
t-20 -15t-8.5 -11.5h-7q14 23 41.5 38t67.5 15q63 0 99 -31t36 -84q0 -29 -14.5 -49t-35.5 -36.5l-43.5 -33t-38 -38t-19.5 -50.5t12 -71h-8z" />
    <glyph glyph-name="uni1EC7" unicode="&#x1ec7;" 
d="M266 602q-2 -23 -2 -47v-47q0 -92 20.5 -181t64.5 -159t113 -113t167 -43q53 0 100 15.5t84 45.5t61 74t31 101h8q-6 -59 -32.5 -108t-71.5 -84.5t-107.5 -55.5t-140.5 -20q-103 0 -189 42t-148.5 115t-97 171t-34.5 210t34 211.5t95.5 174t146.5 118t187 43.5
q90 0 162.5 -32.5t123 -93t76.5 -146t23 -191.5h-674zM555 1059q-65 0 -115 -35t-86 -96t-58 -143.5t-30 -176.5h490q1 106 -9 190t-34 142t-63 88.5t-95 30.5zM553 1495q28 -24 47.5 -43l41 -41t52.5 -51t82 -72l-4 -4q-52 44 -84.5 68t-57 40.5l-46 31t-52.5 38.5
q-30 -24 -52 -38.5l-46 -31l-56.5 -40.5t-84.5 -68l-4 4l58.5 51l42.5 39.5l32 32l27 27.5l28 27t35 30q9 8 21 8t20 -8zM632 -303q0 -23 -8 -42t-21.5 -33t-32 -22t-39.5 -8q-43 0 -70.5 29t-27.5 74q0 23 8 42.5t21.5 33.5t31 22t37.5 8q45 0 73 -29t28 -75z" />
    <glyph glyph-name="uni1EBD" unicode="&#x1ebd;" 
d="M266 602q-2 -23 -2 -47v-47q0 -92 20.5 -181t64.5 -159t113 -113t167 -43q53 0 100 15.5t84 45.5t61 74t31 101h8q-6 -59 -32.5 -108t-71.5 -84.5t-107.5 -55.5t-140.5 -20q-103 0 -189 42t-148.5 115t-97 171t-34.5 210t34 211.5t95.5 174t146.5 118t187 43.5
q90 0 162.5 -32.5t123 -93t76.5 -146t23 -191.5h-674zM555 1059q-65 0 -115 -35t-86 -96t-58 -143.5t-30 -176.5h490q1 106 -9 190t-34 142t-63 88.5t-95 30.5zM736 1346q63 0 104.5 29.5t73.5 101.5h6q-17 -39 -35.5 -69.5t-42 -51t-53.5 -31t-69 -10.5q-44 0 -76.5 10.5
t-59 27t-49 35l-44.5 35t-47 27t-56 10.5q-63 0 -104.5 -30t-73.5 -101h-6q17 39 35.5 69.5t42 51t53.5 31t69 10.5q34 0 61 -10.5t50.5 -27t46 -35t48 -35t56 -27t70.5 -10.5z" />
    <glyph glyph-name="edieresis" unicode="&#xeb;" 
d="M266 602q-2 -23 -2 -47v-47q0 -92 20.5 -181t64.5 -159t113 -113t167 -43q53 0 100 15.5t84 45.5t61 74t31 101h8q-6 -59 -32.5 -108t-71.5 -84.5t-107.5 -55.5t-140.5 -20q-103 0 -189 42t-148.5 115t-97 171t-34.5 210t34 211.5t95.5 174t146.5 118t187 43.5
q90 0 162.5 -32.5t123 -93t76.5 -146t23 -191.5h-674zM555 1059q-65 0 -115 -35t-86 -96t-58 -143.5t-30 -176.5h490q1 106 -9 190t-34 142t-63 88.5t-95 30.5zM475 1339q0 -45 -29 -74.5t-71 -29.5q-44 0 -71.5 28.5t-27.5 73.5q0 23 8 42.5t21.5 34t31.5 22.5t38 8
q45 0 72.5 -29t27.5 -76zM801 1339q0 -22 -8 -41t-21.5 -33t-32 -22t-39.5 -8q-43 0 -70.5 28.5t-27.5 73.5q0 47 29 77t69 30q45 0 73 -29t28 -76z" />
    <glyph glyph-name="uni1EBB" unicode="&#x1ebb;" 
d="M266 602q-2 -23 -2 -47v-47q0 -92 20.5 -181t64.5 -159t113 -113t167 -43q53 0 100 15.5t84 45.5t61 74t31 101h8q-6 -59 -32.5 -108t-71.5 -84.5t-107.5 -55.5t-140.5 -20q-103 0 -189 42t-148.5 115t-97 171t-34.5 210t34 211.5t95.5 174t146.5 118t187 43.5
q90 0 162.5 -32.5t123 -93t76.5 -146t23 -191.5h-674zM555 1059q-65 0 -115 -35t-86 -96t-58 -143.5t-30 -176.5h490q1 106 -9 190t-34 142t-63 88.5t-95 30.5zM487 1180q-6 18 -9.5 33.5t-3.5 27.5q0 26 9 45.5t23 35.5t29.5 30.5t29.5 30.5t23 36t9 47q0 44 -28.5 71
t-71.5 27q-23 0 -41 -5t-30.5 -12.5t-20 -15t-8.5 -11.5h-7q14 23 41.5 38t67.5 15q63 0 99 -31t36 -84q0 -29 -14.5 -49t-35.5 -36.5l-43.5 -33t-38 -38t-19.5 -50.5t12 -71h-8z" />
    <glyph glyph-name="uni1EB9" unicode="&#x1eb9;" 
d="M266 602q-2 -23 -2 -47v-47q0 -92 20.5 -181t64.5 -159t113 -113t167 -43q53 0 100 15.5t84 45.5t61 74t31 101h8q-6 -59 -32.5 -108t-71.5 -84.5t-107.5 -55.5t-140.5 -20q-103 0 -189 42t-148.5 115t-97 171t-34.5 210t34 211.5t95.5 174t146.5 118t187 43.5
q90 0 162.5 -32.5t123 -93t76.5 -146t23 -191.5h-674zM555 1059q-65 0 -115 -35t-86 -96t-58 -143.5t-30 -176.5h490q1 106 -9 190t-34 142t-63 88.5t-95 30.5zM612 -303q0 -23 -8 -42t-21.5 -33t-32 -22t-39.5 -8q-43 0 -70.5 29t-27.5 74q0 23 8 42.5t21.5 33.5t31 22
t37.5 8q45 0 73 -29t28 -75z" />
    <glyph glyph-name="igrave" unicode="&#xec;" horiz-adv-x="455" 
d="M317 6h127v-6h-413v6h129v1026h-129v6h286v-1032zM14 1442q-9 3 -16.5 9.5t-7.5 14.5q0 10 5 14.5t13 4.5q6 0 11 -1t10 -3q35 -15 74.5 -36.5l85 -46.5l98 -52t112.5 -54l-2 -6q-121 57 -216 92t-167 64z" />
    <glyph glyph-name="iacute" unicode="&#xed;" horiz-adv-x="455" 
d="M317 6h127v-6h-413v6h129v1026h-129v6h286v-1032zM408 1442q-72 -29 -167 -64t-216 -92l-2 6q60 27 112.5 54l98 52l85 46.5t74.5 36.5q5 2 10 3t11 1q8 0 13 -4.5t5 -14.5q0 -8 -7.5 -14.5t-16.5 -9.5z" />
    <glyph glyph-name="icircumflex" unicode="&#xee;" horiz-adv-x="455" 
d="M317 6h127v-6h-413v6h129v1026h-129v6h286v-1032zM248 1495q28 -24 47.5 -43l41 -41t52.5 -51t82 -72l-4 -4q-52 44 -84.5 68t-57 40.5l-46 31t-52.5 38.5q-31 -24 -52.5 -38.5l-45.5 -31l-56.5 -40.5t-84.5 -68l-4 4l58.5 51l42.5 39.5l32 32l27 27.5l28 27t35 30
q9 8 21 8t20 -8z" />
    <glyph glyph-name="idieresis" unicode="&#xef;" horiz-adv-x="455" 
d="M317 6h127v-6h-413v6h129v1026h-129v6h286v-1032zM164 1339q0 -22 -8 -41t-21.5 -33t-32 -22t-39.5 -8q-43 0 -70.5 28.5t-27.5 73.5q0 47 29 77t69 30q45 0 73 -29t28 -76zM489 1339q0 -45 -29 -74.5t-71 -29.5q-43 0 -70.5 28.5t-27.5 73.5q0 47 29 77t69 30
q45 0 72.5 -29t27.5 -76z" />
    <glyph glyph-name="uni1EC9" unicode="&#x1ec9;" horiz-adv-x="455" 
d="M317 6h127v-6h-413v6h129v1026h-129v6h286v-1032zM222 1180q-6 18 -9.5 33.5t-3.5 27.5q0 26 9 45.5t23 35.5t29.5 30.5t29.5 30.5t23 36t9 47q0 44 -28.5 71t-71.5 27q-23 0 -41 -5t-30.5 -12.5t-20 -15t-8.5 -11.5h-7q14 23 41.5 38t67.5 15q63 0 99 -31t36 -84
q0 -29 -14.5 -49t-35.5 -36.5l-43.5 -33t-38 -38t-19.5 -50.5t12 -71h-8z" />
    <glyph glyph-name="uni1ECB" unicode="&#x1ecb;" horiz-adv-x="455" 
d="M317 6h127v-6h-413v6h129v1026h-129v6h286v-1032zM334 1339q0 -22 -8 -41t-21.5 -33t-32 -22t-39.5 -8q-43 0 -70.5 28.5t-27.5 73.5q0 47 29 77t69 30q45 0 73 -29t28 -76zM340 -303q0 -23 -8 -42t-21.5 -33t-32 -22t-39.5 -8q-43 0 -70.5 29t-27.5 74q0 23 8 42.5
t21.5 33.5t31 22t37.5 8q45 0 73 -29t28 -75z" />
    <glyph glyph-name="dotlessi" unicode="&#x131;" horiz-adv-x="455" 
d="M317 6h127v-6h-413v6h129v1026h-129v6h286v-1032z" />
    <glyph glyph-name="ij" unicode="&#x133;" horiz-adv-x="455" 
d="M317 6h127v-6h-413v6h129v1026h-129v6h286v-1032zM334 1339q0 -22 -8 -41t-21.5 -33t-32 -22t-39.5 -8q-43 0 -70.5 28.5t-27.5 73.5q0 47 29 77t69 30q45 0 73 -29t28 -76zM770 1339q0 -45 -29 -74.5t-71 -29.5q-43 0 -70.5 28.5t-27.5 73.5q0 47 29 77t69 30
q45 0 72.5 -29t27.5 -76zM596 1032h-129v6h287v-972q0 -79 -17 -152.5t-50 -130.5t-82 -91t-113 -34q-40 0 -75 11.5t-60.5 33.5t-40.5 53.5t-15 71.5q0 28 9 52.5t24.5 41.5t35.5 27t42 10q50 0 76 -29.5t26 -72.5q0 -26 -9 -45.5t-23 -32.5t-32.5 -20t-37.5 -7
q-25 0 -40.5 8.5t-20.5 8.5q-11 0 -11 -11q0 -14 11 -30.5t31 -31t48 -24.5t62 -10q35 0 71 14t65.5 39.5t48 62.5t18.5 83t-7.5 86.5t-18.5 80.5l-23.5 83t-23.5 94t-18.5 113t-7.5 141v573z" />
    <glyph glyph-name="ntilde" unicode="&#xf1;" horiz-adv-x="1090" 
d="M774 815q0 103 -54.5 158t-148.5 55q-58 0 -105 -25t-80 -65t-51 -91.5t-18 -103.5v-737h127v-6h-413v6h129v1026h-129v6h286v-196q14 37 41.5 76t68 70t93 51t115.5 20q76 0 132.5 -27.5t93.5 -78.5t55 -123t18 -160v-664h125v-6h-414v6h129v809zM721 1346
q63 0 104.5 29.5t73.5 101.5h6q-17 -39 -35.5 -69.5t-42 -51t-53.5 -31t-69 -10.5q-44 0 -77 10.5t-59.5 27t-48.5 35t-44.5 35t-47 27t-55.5 10.5q-63 0 -104.5 -30t-73.5 -101h-7q17 39 36 69.5t42.5 51t53.5 31t69 10.5q34 0 61 -10.5t50.5 -27t46 -35t48 -35t56 -27
t70.5 -10.5z" />
    <glyph glyph-name="ograve" unicode="&#xf2;" horiz-adv-x="1141" 
d="M879 518q0 112 -19 209.5t-57 170t-95 114t-133 41.5q-80 0 -139 -40t-97.5 -110.5t-57.5 -167t-19 -209.5q0 -112 19 -210t56.5 -170.5t94.5 -114t133 -41.5q80 0 139 40t98 111t58 167.5t19 209.5zM1049 528q0 -113 -38.5 -212.5t-104.5 -173.5t-154 -117t-187 -43
q-102 0 -188.5 41.5t-150 113.5t-99 169.5t-35.5 209.5q0 113 38.5 212t104 173t153.5 117t187 43q102 0 189 -41t150.5 -113t99 -169.5t35.5 -209.5zM389 1442q-9 3 -16.5 9.5t-7.5 14.5q0 10 5 14.5t13 4.5q6 0 10.5 -1t9.5 -3q36 -15 75.5 -36.5l85 -46.5l97.5 -52
t113 -54l-2 -6q-122 57 -217 92t-166 64z" />
    <glyph glyph-name="oacute" unicode="&#xf3;" horiz-adv-x="1141" 
d="M879 518q0 112 -19 209.5t-57 170t-95 114t-133 41.5q-80 0 -139 -40t-97.5 -110.5t-57.5 -167t-19 -209.5q0 -112 19 -210t56.5 -170.5t94.5 -114t133 -41.5q80 0 139 40t98 111t58 167.5t19 209.5zM1049 528q0 -113 -38.5 -212.5t-104.5 -173.5t-154 -117t-187 -43
q-102 0 -188.5 41.5t-150 113.5t-99 169.5t-35.5 209.5q0 113 38.5 212t104 173t153.5 117t187 43q102 0 189 -41t150.5 -113t99 -169.5t35.5 -209.5zM770 1442q-71 -29 -166 -64t-217 -92l-2 6q61 27 113 54l98 52l85.5 46.5t74.5 36.5q5 2 9.5 3t10.5 1q8 0 13.5 -4.5
t5.5 -14.5q0 -8 -8 -14.5t-17 -9.5z" />
    <glyph glyph-name="ocircumflex" unicode="&#xf4;" horiz-adv-x="1141" 
d="M879 518q0 112 -19 209.5t-57 170t-95 114t-133 41.5q-80 0 -139 -40t-97.5 -110.5t-57.5 -167t-19 -209.5q0 -112 19 -210t56.5 -170.5t94.5 -114t133 -41.5q80 0 139 40t98 111t58 167.5t19 209.5zM1049 528q0 -113 -38.5 -212.5t-104.5 -173.5t-154 -117t-187 -43
q-102 0 -188.5 41.5t-150 113.5t-99 169.5t-35.5 209.5q0 113 38.5 212t104 173t153.5 117t187 43q102 0 189 -41t150.5 -113t99 -169.5t35.5 -209.5zM590 1495q28 -24 47.5 -43l41 -41t52.5 -51t82 -72l-4 -4q-52 44 -84.5 68t-57 40.5l-46 31t-52.5 38.5
q-31 -24 -52.5 -38.5l-45.5 -31l-56.5 -40.5t-84.5 -68l-4 4l58.5 51l42.5 39.5l32 32l27 27.5l28 27t35 30q9 8 21 8t20 -8z" />
    <glyph glyph-name="uni1ED3" unicode="&#x1ed3;" horiz-adv-x="1141" 
d="M879 518q0 112 -19 209.5t-57 170t-95 114t-133 41.5q-80 0 -139 -40t-97.5 -110.5t-57.5 -167t-19 -209.5q0 -112 19 -210t56.5 -170.5t94.5 -114t133 -41.5q80 0 139 40t98 111t58 167.5t19 209.5zM1049 528q0 -113 -38.5 -212.5t-104.5 -173.5t-154 -117t-187 -43
q-102 0 -188.5 41.5t-150 113.5t-99 169.5t-35.5 209.5q0 113 38.5 212t104 173t153.5 117t187 43q102 0 189 -41t150.5 -113t99 -169.5t35.5 -209.5zM590 1495q28 -24 47.5 -43l41 -41t52.5 -51t82 -72l-4 -4q-52 44 -84.5 68t-57 40.5l-46 31t-52.5 38.5
q-31 -24 -52.5 -38.5l-45.5 -31l-56.5 -40.5t-84.5 -68l-4 4l58.5 51l42.5 39.5l32 32l27 27.5l28 27t35 30q9 8 21 8t20 -8zM390 1704q-9 3 -16.5 9.5t-7.5 14.5q0 10 5 14.5t13 4.5q6 0 11 -1t10 -3q35 -15 74.5 -36.5l85 -46.5l98 -52t112.5 -54l-2 -6q-122 57 -216.5 92
z" />
    <glyph glyph-name="uni1ED1" unicode="&#x1ed1;" horiz-adv-x="1141" 
d="M879 518q0 112 -19 209.5t-57 170t-95 114t-133 41.5q-80 0 -139 -40t-97.5 -110.5t-57.5 -167t-19 -209.5q0 -112 19 -210t56.5 -170.5t94.5 -114t133 -41.5q80 0 139 40t98 111t58 167.5t19 209.5zM1049 528q0 -113 -38.5 -212.5t-104.5 -173.5t-154 -117t-187 -43
q-102 0 -188.5 41.5t-150 113.5t-99 169.5t-35.5 209.5q0 113 38.5 212t104 173t153.5 117t187 43q102 0 189 -41t150.5 -113t99 -169.5t35.5 -209.5zM590 1495q28 -24 47.5 -43l41 -41t52.5 -51t82 -72l-4 -4q-52 44 -84.5 68t-57 40.5l-46 31t-52.5 38.5
q-31 -24 -52.5 -38.5l-45.5 -31l-56.5 -40.5t-84.5 -68l-4 4l58.5 51l42.5 39.5l32 32l27 27.5l28 27t35 30q9 8 21 8t20 -8zM751 1704l-166.5 -64t-216.5 -92l-2 6q60 27 112.5 54l98 52l85 46.5t74.5 36.5q5 2 10 3t11 1q8 0 13 -4.5t5 -14.5q0 -8 -7.5 -14.5t-16.5 -9.5z
" />
    <glyph glyph-name="uni1ED7" unicode="&#x1ed7;" horiz-adv-x="1141" 
d="M879 518q0 112 -19 209.5t-57 170t-95 114t-133 41.5q-80 0 -139 -40t-97.5 -110.5t-57.5 -167t-19 -209.5q0 -112 19 -210t56.5 -170.5t94.5 -114t133 -41.5q80 0 139 40t98 111t58 167.5t19 209.5zM1049 528q0 -113 -38.5 -212.5t-104.5 -173.5t-154 -117t-187 -43
q-102 0 -188.5 41.5t-150 113.5t-99 169.5t-35.5 209.5q0 113 38.5 212t104 173t153.5 117t187 43q102 0 189 -41t150.5 -113t99 -169.5t35.5 -209.5zM590 1495q28 -24 47.5 -43l41 -41t52.5 -51t82 -72l-4 -4q-52 44 -84.5 68t-57 40.5l-46 31t-52.5 38.5
q-31 -24 -52.5 -38.5l-45.5 -31l-56.5 -40.5t-84.5 -68l-4 4l58.5 51l42.5 39.5l32 32l27 27.5l28 27t35 30q9 8 21 8t20 -8zM743 1659q63 0 104.5 29.5t73.5 101.5h6q-17 -39 -35.5 -69.5t-42 -51t-53.5 -31t-69 -10.5q-44 0 -76.5 10.5t-59 27t-49 35l-44.5 35t-47 27
t-56 10.5q-63 0 -104.5 -30t-73.5 -101h-6q17 39 35.5 69.5t42 51t53.5 31t69 10.5q34 0 61 -10.5t50.5 -27t46 -35t48 -35t56 -27t70.5 -10.5z" />
    <glyph glyph-name="uni1ED5" unicode="&#x1ed5;" horiz-adv-x="1141" 
d="M879 518q0 112 -19 209.5t-57 170t-95 114t-133 41.5q-80 0 -139 -40t-97.5 -110.5t-57.5 -167t-19 -209.5q0 -112 19 -210t56.5 -170.5t94.5 -114t133 -41.5q80 0 139 40t98 111t58 167.5t19 209.5zM1049 528q0 -113 -38.5 -212.5t-104.5 -173.5t-154 -117t-187 -43
q-102 0 -188.5 41.5t-150 113.5t-99 169.5t-35.5 209.5q0 113 38.5 212t104 173t153.5 117t187 43q102 0 189 -41t150.5 -113t99 -169.5t35.5 -209.5zM590 1495q28 -24 47.5 -43l41 -41t52.5 -51t82 -72l-4 -4q-52 44 -84.5 68t-57 40.5l-46 31t-52.5 38.5
q-31 -24 -52.5 -38.5l-45.5 -31l-56.5 -40.5t-84.5 -68l-4 4l58.5 51l42.5 39.5l32 32l27 27.5l28 27t35 30q9 8 21 8t20 -8zM731 1487q-6 18 -9.5 33.5t-3.5 27.5q0 26 9 45.5t23 35.5t29.5 30.5t29.5 30.5t23 36t9 47q0 44 -28.5 71t-71.5 27q-23 0 -41 -5t-30.5 -12.5
t-20 -15t-8.5 -11.5h-7q14 23 41.5 38t67.5 15q63 0 99 -31t36 -84q0 -29 -14.5 -49t-35.5 -36.5l-43.5 -33t-38 -38t-19.5 -50.5t12 -71h-8z" />
    <glyph glyph-name="uni1ED9" unicode="&#x1ed9;" horiz-adv-x="1141" 
d="M879 518q0 112 -19 209.5t-57 170t-95 114t-133 41.5q-80 0 -139 -40t-97.5 -110.5t-57.5 -167t-19 -209.5q0 -112 19 -210t56.5 -170.5t94.5 -114t133 -41.5q80 0 139 40t98 111t58 167.5t19 209.5zM1049 528q0 -113 -38.5 -212.5t-104.5 -173.5t-154 -117t-187 -43
q-102 0 -188.5 41.5t-150 113.5t-99 169.5t-35.5 209.5q0 113 38.5 212t104 173t153.5 117t187 43q102 0 189 -41t150.5 -113t99 -169.5t35.5 -209.5zM590 1495q28 -24 47.5 -43l41 -41t52.5 -51t82 -72l-4 -4q-52 44 -84.5 68t-57 40.5l-46 31t-52.5 38.5
q-31 -24 -52.5 -38.5l-45.5 -31l-56.5 -40.5t-84.5 -68l-4 4l58.5 51l42.5 39.5l32 32l27 27.5l28 27t35 30q9 8 21 8t20 -8zM670 -303q0 -23 -8 -42t-21.5 -33t-32 -22t-39.5 -8q-43 0 -70.5 29t-27.5 74q0 23 8 42.5t21.5 33.5t31 22t37.5 8q45 0 73 -29t28 -75z" />
    <glyph glyph-name="otilde" unicode="&#xf5;" horiz-adv-x="1141" 
d="M879 518q0 112 -19 209.5t-57 170t-95 114t-133 41.5q-80 0 -139 -40t-97.5 -110.5t-57.5 -167t-19 -209.5q0 -112 19 -210t56.5 -170.5t94.5 -114t133 -41.5q80 0 139 40t98 111t58 167.5t19 209.5zM1049 528q0 -113 -38.5 -212.5t-104.5 -173.5t-154 -117t-187 -43
q-102 0 -188.5 41.5t-150 113.5t-99 169.5t-35.5 209.5q0 113 38.5 212t104 173t153.5 117t187 43q102 0 189 -41t150.5 -113t99 -169.5t35.5 -209.5zM752 1346q63 0 104.5 29.5t73.5 101.5h6q-17 -39 -35.5 -69.5t-42.5 -51t-54 -31t-69 -10.5q-44 0 -76.5 10.5t-59 27
t-49 35l-44.5 35t-47 27t-56 10.5q-63 0 -104.5 -30t-73.5 -101h-6q17 39 35.5 69.5t42.5 51t54 31t69 10.5q34 0 61 -10.5t50.5 -27t46 -35t48 -35t56 -27t70.5 -10.5z" />
    <glyph glyph-name="odieresis" unicode="&#xf6;" horiz-adv-x="1141" 
d="M879 518q0 112 -19 209.5t-57 170t-95 114t-133 41.5q-80 0 -139 -40t-97.5 -110.5t-57.5 -167t-19 -209.5q0 -112 19 -210t56.5 -170.5t94.5 -114t133 -41.5q80 0 139 40t98 111t58 167.5t19 209.5zM1049 528q0 -113 -38.5 -212.5t-104.5 -173.5t-154 -117t-187 -43
q-102 0 -188.5 41.5t-150 113.5t-99 169.5t-35.5 209.5q0 113 38.5 212t104 173t153.5 117t187 43q102 0 189 -41t150.5 -113t99 -169.5t35.5 -209.5zM510 1339q0 -45 -29 -74.5t-71 -29.5q-44 0 -71.5 28.5t-27.5 73.5q0 47 29 77t70 30q45 0 72.5 -29t27.5 -76zM836 1339
q0 -22 -8 -41t-21.5 -33t-32 -22t-39.5 -8q-43 0 -70.5 28.5t-27.5 73.5q0 47 29 77t69 30q45 0 73 -29t28 -76z" />
    <glyph glyph-name="uni1ECF" unicode="&#x1ecf;" horiz-adv-x="1141" 
d="M879 518q0 112 -19 209.5t-57 170t-95 114t-133 41.5q-80 0 -139 -40t-97.5 -110.5t-57.5 -167t-19 -209.5q0 -112 19 -210t56.5 -170.5t94.5 -114t133 -41.5q80 0 139 40t98 111t58 167.5t19 209.5zM1049 528q0 -113 -38.5 -212.5t-104.5 -173.5t-154 -117t-187 -43
q-102 0 -188.5 41.5t-150 113.5t-99 169.5t-35.5 209.5q0 113 38.5 212t104 173t153.5 117t187 43q102 0 189 -41t150.5 -113t99 -169.5t35.5 -209.5zM545 1180q-6 18 -9.5 33.5t-3.5 27.5q0 26 9 45.5t23 35.5t29.5 30.5t29.5 30.5t23 36t9 47q0 44 -28.5 71t-71.5 27
q-23 0 -41 -5t-30.5 -12.5t-20 -15t-8.5 -11.5h-7q14 23 41.5 38t67.5 15q63 0 99 -31t36 -84q0 -29 -14.5 -49t-35.5 -36.5l-43.5 -33t-38 -38t-19.5 -50.5t12 -71h-8z" />
    <glyph glyph-name="uni1ECD" unicode="&#x1ecd;" horiz-adv-x="1141" 
d="M879 518q0 112 -19 209.5t-57 170t-95 114t-133 41.5q-80 0 -139 -40t-97.5 -110.5t-57.5 -167t-19 -209.5q0 -112 19 -210t56.5 -170.5t94.5 -114t133 -41.5q80 0 139 40t98 111t58 167.5t19 209.5zM1049 528q0 -113 -38.5 -212.5t-104.5 -173.5t-154 -117t-187 -43
q-102 0 -188.5 41.5t-150 113.5t-99 169.5t-35.5 209.5q0 113 38.5 212t104 173t153.5 117t187 43q102 0 189 -41t150.5 -113t99 -169.5t35.5 -209.5zM670 -303q0 -23 -8 -42t-21.5 -33t-32 -22t-39.5 -8q-43 0 -70.5 29t-27.5 74q0 23 8 42.5t21.5 33.5t31 22t37.5 8
q45 0 73 -29t28 -75z" />
    <glyph glyph-name="ohorn" unicode="&#x1a1;" horiz-adv-x="1141" 
d="M1049 528q0 -113 -38.5 -212.5t-104.5 -173.5t-154 -117t-187 -43q-102 0 -188.5 41.5t-150 113.5t-99 169.5t-35.5 209.5q0 113 38.5 212t104 173t153.5 117t187 43q100 0 184.5 -39t147.5 -109q43 14 73.5 39t49.5 53t28 55.5t9 45.5q0 10 -10 10q-5 0 -21 -8t-41 -8
q-19 0 -37.5 7t-32.5 20t-23 32.5t-9 44.5q0 44 28 74.5t74 30.5q25 0 46 -10t35 -26.5t22 -39t8 -47.5q0 -36 -12 -77.5t-36 -80.5t-60.5 -71t-86.5 -48q65 -72 101.5 -169t36.5 -212zM879 518q0 112 -19 209.5t-57 170t-95 114t-133 41.5q-80 0 -139 -40t-97.5 -110.5
t-57.5 -167t-19 -209.5q0 -112 19 -210t56.5 -170.5t94.5 -114t133 -41.5q80 0 139 40t98 111t58 167.5t19 209.5z" />
    <glyph glyph-name="uni1EDD" unicode="&#x1edd;" horiz-adv-x="1141" 
d="M389 1442q-9 3 -16.5 9.5t-7.5 14.5q0 10 5 14.5t13 4.5q6 0 10.5 -1t9.5 -3q36 -15 75.5 -36.5l85 -46.5l97.5 -52t113 -54l-2 -6q-122 57 -217 92t-166 64zM1049 528q0 -113 -38.5 -212.5t-104.5 -173.5t-154 -117t-187 -43q-102 0 -188.5 41.5t-150 113.5t-99 169.5
t-35.5 209.5q0 113 38.5 212t104 173t153.5 117t187 43q100 0 184.5 -39t147.5 -109q43 14 73.5 39t49.5 53t28 55.5t9 45.5q0 10 -10 10q-5 0 -21 -8t-41 -8q-19 0 -37.5 7t-32.5 20t-23 32.5t-9 44.5q0 44 28 74.5t74 30.5q25 0 46 -10t35 -26.5t22 -39t8 -47.5
q0 -36 -12 -77.5t-36 -80.5t-60.5 -71t-86.5 -48q65 -72 101.5 -169t36.5 -212zM879 518q0 112 -19 209.5t-57 170t-95 114t-133 41.5q-80 0 -139 -40t-97.5 -110.5t-57.5 -167t-19 -209.5q0 -112 19 -210t56.5 -170.5t94.5 -114t133 -41.5q80 0 139 40t98 111t58 167.5
t19 209.5z" />
    <glyph glyph-name="uni1EDB" unicode="&#x1edb;" horiz-adv-x="1141" 
d="M770 1442q-71 -29 -166 -64t-217 -92l-2 6q61 27 113 54l98 52l85.5 46.5t74.5 36.5q5 2 9.5 3t10.5 1q8 0 13.5 -4.5t5.5 -14.5q0 -8 -8 -14.5t-17 -9.5zM1049 528q0 -113 -38.5 -212.5t-104.5 -173.5t-154 -117t-187 -43q-102 0 -188.5 41.5t-150 113.5t-99 169.5
t-35.5 209.5q0 113 38.5 212t104 173t153.5 117t187 43q100 0 184.5 -39t147.5 -109q43 14 73.5 39t49.5 53t28 55.5t9 45.5q0 10 -10 10q-5 0 -21 -8t-41 -8q-19 0 -37.5 7t-32.5 20t-23 32.5t-9 44.5q0 44 28 74.5t74 30.5q25 0 46 -10t35 -26.5t22 -39t8 -47.5
q0 -36 -12 -77.5t-36 -80.5t-60.5 -71t-86.5 -48q65 -72 101.5 -169t36.5 -212zM879 518q0 112 -19 209.5t-57 170t-95 114t-133 41.5q-80 0 -139 -40t-97.5 -110.5t-57.5 -167t-19 -209.5q0 -112 19 -210t56.5 -170.5t94.5 -114t133 -41.5q80 0 139 40t98 111t58 167.5
t19 209.5z" />
    <glyph glyph-name="uni1EE1" unicode="&#x1ee1;" horiz-adv-x="1141" 
d="M752 1346q63 0 104.5 29.5t73.5 101.5h6q-17 -39 -35.5 -69.5t-42.5 -51t-54 -31t-69 -10.5q-44 0 -76.5 10.5t-59 27t-49 35l-44.5 35t-47 27t-56 10.5q-63 0 -104.5 -30t-73.5 -101h-6q17 39 35.5 69.5t42.5 51t54 31t69 10.5q34 0 61 -10.5t50.5 -27t46 -35t48 -35
t56 -27t70.5 -10.5zM1049 528q0 -113 -38.5 -212.5t-104.5 -173.5t-154 -117t-187 -43q-102 0 -188.5 41.5t-150 113.5t-99 169.5t-35.5 209.5q0 113 38.5 212t104 173t153.5 117t187 43q100 0 184.5 -39t147.5 -109q43 14 73.5 39t49.5 53t28 55.5t9 45.5q0 10 -10 10
q-5 0 -21 -8t-41 -8q-19 0 -37.5 7t-32.5 20t-23 32.5t-9 44.5q0 44 28 74.5t74 30.5q25 0 46 -10t35 -26.5t22 -39t8 -47.5q0 -36 -12 -77.5t-36 -80.5t-60.5 -71t-86.5 -48q65 -72 101.5 -169t36.5 -212zM879 518q0 112 -19 209.5t-57 170t-95 114t-133 41.5
q-80 0 -139 -40t-97.5 -110.5t-57.5 -167t-19 -209.5q0 -112 19 -210t56.5 -170.5t94.5 -114t133 -41.5q80 0 139 40t98 111t58 167.5t19 209.5z" />
    <glyph glyph-name="uni1EDF" unicode="&#x1edf;" horiz-adv-x="1141" 
d="M1049 528q0 -113 -38.5 -212.5t-104.5 -173.5t-154 -117t-187 -43q-102 0 -188.5 41.5t-150 113.5t-99 169.5t-35.5 209.5q0 113 38.5 212t104 173t153.5 117t187 43q100 0 184.5 -39t147.5 -109q43 14 73.5 39t49.5 53t28 55.5t9 45.5q0 10 -10 10q-5 0 -21 -8t-41 -8
q-19 0 -37.5 7t-32.5 20t-23 32.5t-9 44.5q0 44 28 74.5t74 30.5q25 0 46 -10t35 -26.5t22 -39t8 -47.5q0 -36 -12 -77.5t-36 -80.5t-60.5 -71t-86.5 -48q65 -72 101.5 -169t36.5 -212zM879 518q0 112 -19 209.5t-57 170t-95 114t-133 41.5q-80 0 -139 -40t-97.5 -110.5
t-57.5 -167t-19 -209.5q0 -112 19 -210t56.5 -170.5t94.5 -114t133 -41.5q80 0 139 40t98 111t58 167.5t19 209.5zM545 1180q-6 18 -9.5 33.5t-3.5 27.5q0 26 9 45.5t23 35.5t29.5 30.5t29.5 30.5t23 36t9 47q0 44 -28.5 71t-71.5 27q-23 0 -41 -5t-30.5 -12.5t-20 -15
t-8.5 -11.5h-7q14 23 41.5 38t67.5 15q63 0 99 -31t36 -84q0 -29 -14.5 -49t-35.5 -36.5l-43.5 -33t-38 -38t-19.5 -50.5t12 -71h-8z" />
    <glyph glyph-name="uni1EE3" unicode="&#x1ee3;" horiz-adv-x="1141" 
d="M1049 528q0 -113 -38.5 -212.5t-104.5 -173.5t-154 -117t-187 -43q-102 0 -188.5 41.5t-150 113.5t-99 169.5t-35.5 209.5q0 113 38.5 212t104 173t153.5 117t187 43q100 0 184.5 -39t147.5 -109q43 14 73.5 39t49.5 53t28 55.5t9 45.5q0 10 -10 10q-5 0 -21 -8t-41 -8
q-19 0 -37.5 7t-32.5 20t-23 32.5t-9 44.5q0 44 28 74.5t74 30.5q25 0 46 -10t35 -26.5t22 -39t8 -47.5q0 -36 -12 -77.5t-36 -80.5t-60.5 -71t-86.5 -48q65 -72 101.5 -169t36.5 -212zM879 518q0 112 -19 209.5t-57 170t-95 114t-133 41.5q-80 0 -139 -40t-97.5 -110.5
t-57.5 -167t-19 -209.5q0 -112 19 -210t56.5 -170.5t94.5 -114t133 -41.5q80 0 139 40t98 111t58 167.5t19 209.5zM670 -303q0 -23 -8 -42t-21.5 -33t-32 -22t-39.5 -8q-43 0 -70.5 29t-27.5 74q0 23 8 42.5t21.5 33.5t31 22t37.5 8q45 0 73 -29t28 -75z" />
    <glyph glyph-name="oslash" unicode="&#xf8;" horiz-adv-x="1141" 
d="M946 1186l-63.5 -113l-51.5 -94q50 -35 90.5 -82.5t69 -105t43.5 -124.5t15 -139q0 -113 -38.5 -212.5t-104.5 -173.5t-154 -117t-187 -43q-69 0 -131.5 19t-116.5 54l-104 -186h-4l104 190q-51 35 -91.5 83t-69.5 106.5t-44.5 126t-15.5 141.5q0 113 38.5 212t104 173
t153.5 117t187 43q72 0 135 -20.5t117 -57.5l53 91.5l62 111.5h4zM262 526q0 -121 21.5 -224t64.5 -177l60 112l49.5 92l48.5 90.5l59 106.5l56 100l50.5 87.5l54 91.5l65.5 113q-38 63 -91 99t-125 36q-80 0 -139 -40t-97.5 -110.5t-57.5 -167t-19 -209.5zM879 518
q0 118 -21 218.5t-63 174.5l-58.5 -110l-46.5 -90l-45 -86.5l-53 -98.5l-62.5 -108.5l-54.5 -91.5l-56 -94l-67 -115q38 -60 91 -93.5t122 -33.5q80 0 139 40t98 111t58 167.5t19 209.5z" />
    <glyph glyph-name="oe" unicode="&#x153;" horiz-adv-x="1810" 
d="M1053 602q-2 -23 -2 -47v-47q0 -92 20.5 -181t64 -159t112.5 -113t167 -43q53 0 100 15.5t84 45.5t61.5 74t31.5 101h8q-6 -59 -33 -108t-72 -84.5t-107.5 -55.5t-139.5 -20q-65 0 -123.5 17.5t-108 49t-89.5 76t-69 98.5q-32 -54 -74 -98.5t-92.5 -75.5t-108 -48
t-118.5 -17q-102 0 -188.5 41.5t-150 113.5t-99 169.5t-35.5 209.5q0 113 38.5 212t104 173t153.5 117t187 43q64 0 121 -16.5t106.5 -47t90 -74t70.5 -96.5q29 54 68 98t87 75t104 48t119 17q90 0 162.5 -32.5t123 -93t76.5 -146t23 -191.5h-673zM879 518q0 112 -19 209.5
t-57 170t-95 114t-133 41.5q-80 0 -139 -40t-97.5 -110.5t-57.5 -167t-19 -209.5q0 -112 19 -210t56.5 -170.5t94.5 -114t133 -41.5q80 0 139 40t98 111t58 167.5t19 209.5zM1341 1059q-65 0 -115 -35t-86 -96t-58 -143.5t-29 -176.5h489q1 106 -9 190t-34 142t-63 88.5
t-95 30.5z" />
    <glyph glyph-name="germandbls" unicode="&#xdf;" horiz-adv-x="1077" 
d="M596 836q0 -58 31 -97t78 -71t101 -61.5t101 -68t78 -92.5t31 -133q0 -71 -27 -131.5t-74.5 -104.5t-112 -68.5t-138.5 -24.5q-51 0 -98.5 15.5t-84 44t-58.5 68t-22 87.5q0 25 8 46.5t22 37t33 24t42 8.5q49 0 78.5 -30.5t29.5 -73.5q0 -26 -9 -45.5t-23 -32.5
t-32.5 -20t-37.5 -7q-25 0 -40.5 8.5t-20.5 8.5q-11 0 -11 -10q0 -16 17 -37.5t47 -40.5t71 -32t89 -13q58 0 101 18.5t71.5 51.5t42.5 78t14 98q0 70 -30 117.5t-75 83t-98 64.5t-98 61t-75 72.5t-30 100.5q0 54 18.5 90.5t46.5 65.5t60 57t60 66t46.5 91.5t18.5 133.5
q0 119 -50 175t-163 56q-70 0 -114.5 -28t-70 -75t-35 -107.5t-9.5 -124.5v-1135h-285v6h129v1006q0 111 30 198t82 146t122 90t151 31t147.5 -15.5t113.5 -45.5t72.5 -72.5t25.5 -96.5q0 -56 -21.5 -92.5t-53 -63.5t-69 -49t-69 -48.5t-53 -63.5t-21.5 -94z" />
    <glyph glyph-name="ugrave" unicode="&#xf9;" horiz-adv-x="1104" 
d="M297 223q0 -103 54.5 -158t148.5 -55q58 0 105 23.5t80 61.5t51 87.5t18 102.5v747h-127v6h282v-895q0 -49 26.5 -72.5t61.5 -23.5q34 0 60.5 26.5t29.5 69.5h7q-2 -22 -12.5 -50.5t-32 -53.5t-54 -42t-77.5 -17q-70 0 -113 56t-51 150q-14 -38 -41.5 -74.5t-68 -66
t-93 -47.5t-115.5 -18q-76 0 -132.5 27.5t-93.5 78.5t-55 122.5t-18 160.5v663h-127v6h287v-815zM330 1442q-10 3 -17.5 9.5t-7.5 14.5q0 19 19 19q6 0 10.5 -1t9.5 -3q35 -15 74.5 -36.5l85.5 -46.5l98 -52t113 -54l-2 -6q-122 57 -217 92t-166 64z" />
    <glyph glyph-name="uacute" unicode="&#xfa;" horiz-adv-x="1104" 
d="M297 223q0 -103 54.5 -158t148.5 -55q58 0 105 23.5t80 61.5t51 87.5t18 102.5v747h-127v6h282v-895q0 -49 26.5 -72.5t61.5 -23.5q34 0 60.5 26.5t29.5 69.5h7q-2 -22 -12.5 -50.5t-32 -53.5t-54 -42t-77.5 -17q-70 0 -113 56t-51 150q-14 -38 -41.5 -74.5t-68 -66
t-93 -47.5t-115.5 -18q-76 0 -132.5 27.5t-93.5 78.5t-55 122.5t-18 160.5v663h-127v6h287v-815zM731 1442q-71 -29 -166 -64t-217 -92l-2 6q61 27 113 54l98 52l85.5 46.5t74.5 36.5q5 2 9.5 3t10.5 1q19 0 19 -19q0 -8 -8 -14.5t-17 -9.5z" />
    <glyph glyph-name="ucircumflex" unicode="&#xfb;" horiz-adv-x="1104" 
d="M297 223q0 -103 54.5 -158t148.5 -55q58 0 105 23.5t80 61.5t51 87.5t18 102.5v747h-127v6h282v-895q0 -49 26.5 -72.5t61.5 -23.5q34 0 60.5 26.5t29.5 69.5h7q-2 -22 -12.5 -50.5t-32 -53.5t-54 -42t-77.5 -17q-70 0 -113 56t-51 150q-14 -38 -41.5 -74.5t-68 -66
t-93 -47.5t-115.5 -18q-76 0 -132.5 27.5t-93.5 78.5t-55 122.5t-18 160.5v663h-127v6h287v-815zM530 1495q28 -24 47.5 -43l41.5 -41l52.5 -51t82.5 -72l-4 -4l-60.5 49l-45.5 34.5l-35.5 25l-30.5 20.5l-31.5 21.5t-36.5 27.5q-31 -24 -52.5 -38.5l-45.5 -31l-57 -40.5
t-85 -68l-4 4q51 43 81.5 71.5t52 50.5l40.5 41.5t49 43.5q10 8 21.5 8t19.5 -8z" />
    <glyph glyph-name="utilde" unicode="&#x169;" horiz-adv-x="1104" 
d="M297 223q0 -103 54.5 -158t148.5 -55q58 0 105 23.5t80 61.5t51 87.5t18 102.5v747h-127v6h282v-895q0 -49 26.5 -72.5t61.5 -23.5q34 0 60.5 26.5t29.5 69.5h7q-2 -22 -12.5 -50.5t-32 -53.5t-54 -42t-77.5 -17q-70 0 -113 56t-51 150q-14 -38 -41.5 -74.5t-68 -66
t-93 -47.5t-115.5 -18q-76 0 -132.5 27.5t-93.5 78.5t-55 122.5t-18 160.5v663h-127v6h287v-815zM726 1346q63 0 104.5 29.5t73.5 101.5h6q-17 -39 -35.5 -69.5t-42 -51t-53.5 -31t-69 -10.5q-44 0 -76.5 10.5t-59 27t-49 35l-44.5 35t-47 27t-56 10.5q-63 0 -104.5 -30
t-73.5 -101h-6q17 39 35.5 69.5t42 51t53.5 31t69 10.5q34 0 61 -10.5t50.5 -27t46 -35t48 -35t56 -27t70.5 -10.5z" />
    <glyph glyph-name="uni1EE7" unicode="&#x1ee7;" horiz-adv-x="1104" 
d="M297 223q0 -103 54.5 -158t148.5 -55q58 0 105 23.5t80 61.5t51 87.5t18 102.5v747h-127v6h282v-895q0 -49 26.5 -72.5t61.5 -23.5q34 0 60.5 26.5t29.5 69.5h7q-2 -22 -12.5 -50.5t-32 -53.5t-54 -42t-77.5 -17q-70 0 -113 56t-51 150q-14 -38 -41.5 -74.5t-68 -66
t-93 -47.5t-115.5 -18q-76 0 -132.5 27.5t-93.5 78.5t-55 122.5t-18 160.5v663h-127v6h287v-815zM495 1180q-6 18 -9.5 33.5t-3.5 27.5q0 26 9 45.5t23 35.5t29.5 30.5t29.5 30.5t23 36t9 47q0 44 -28.5 71t-71.5 27q-23 0 -41 -5t-30.5 -12.5t-20 -15t-8.5 -11.5h-7
q14 23 41.5 38t67.5 15q63 0 99 -31t36 -84q0 -29 -14.5 -49t-35.5 -36.5l-43.5 -33t-38 -38t-19.5 -50.5t12 -71h-8z" />
    <glyph glyph-name="uni1EE5" unicode="&#x1ee5;" horiz-adv-x="1104" 
d="M297 223q0 -103 54.5 -158t148.5 -55q58 0 105 23.5t80 61.5t51 87.5t18 102.5v747h-127v6h282v-895q0 -49 26.5 -72.5t61.5 -23.5q34 0 60.5 26.5t29.5 69.5h7q-2 -22 -12.5 -50.5t-32 -53.5t-54 -42t-77.5 -17q-70 0 -113 56t-51 150q-14 -38 -41.5 -74.5t-68 -66
t-93 -47.5t-115.5 -18q-76 0 -132.5 27.5t-93.5 78.5t-55 122.5t-18 160.5v663h-127v6h287v-815zM652 -303q0 -23 -8 -42t-21.5 -33t-32 -22t-39.5 -8q-43 0 -70.5 29t-27.5 74q0 23 8 42.5t21.5 33.5t31 22t37.5 8q45 0 73 -29t28 -75z" />
    <glyph glyph-name="uhorn" unicode="&#x1b0;" horiz-adv-x="1171" 
d="M811 186q-14 -38 -41.5 -74.5t-68 -66t-92.5 -47.5t-115 -18q-76 0 -132.5 27.5t-93.5 78.5t-55 122.5t-18 160.5v526q0 50 -26.5 73t-62.5 23q-34 0 -60.5 -26.5t-29.5 -69.5h-6q1 22 12 50.5t32.5 53.5t54 42.5t77.5 17.5q81 0 124.5 -59.5t43.5 -168.5v-608
q0 -103 54.5 -158t148.5 -55q58 0 105 23.5t80 61.5t51 87.5t18 102.5v747h-127v6h283v-123q43 14 72.5 38.5t48.5 52.5t27.5 55t8.5 45q0 10 -10 10q-5 0 -21 -8t-40 -8q-20 0 -38.5 7t-32.5 20t-23 32.5t-9 44.5q0 44 28 74.5t75 30.5q25 0 45.5 -10t34.5 -26.5t22 -39
t8 -47.5q0 -37 -11.5 -79t-35.5 -81t-61 -70.5t-88 -46.5v-766q0 -49 26.5 -72.5t61.5 -23.5q34 0 60.5 26.5t29.5 69.5h6q-2 -22 -12.5 -50.5t-31.5 -53.5t-54 -42t-78 -17q-35 0 -63.5 14.5t-49.5 41.5t-34 65t-17 85z" />
    <glyph glyph-name="uni1EEB" unicode="&#x1eeb;" horiz-adv-x="1171" 
d="M330 1442q-10 3 -17.5 9.5t-7.5 14.5q0 19 19 19q6 0 10.5 -1t9.5 -3q35 -15 74.5 -36.5l85.5 -46.5l98 -52t113 -54l-2 -6q-122 57 -217 92t-166 64zM811 186q-14 -38 -41.5 -74.5t-68 -66t-92.5 -47.5t-115 -18q-76 0 -132.5 27.5t-93.5 78.5t-55 122.5t-18 160.5v526
q0 50 -26.5 73t-62.5 23q-34 0 -60.5 -26.5t-29.5 -69.5h-6q1 22 12 50.5t32.5 53.5t54 42.5t77.5 17.5q81 0 124.5 -59.5t43.5 -168.5v-608q0 -103 54.5 -158t148.5 -55q58 0 105 23.5t80 61.5t51 87.5t18 102.5v747h-127v6h283v-123q43 14 72.5 38.5t48.5 52.5t27.5 55
t8.5 45q0 10 -10 10q-5 0 -21 -8t-40 -8q-20 0 -38.5 7t-32.5 20t-23 32.5t-9 44.5q0 44 28 74.5t75 30.5q25 0 45.5 -10t34.5 -26.5t22 -39t8 -47.5q0 -37 -11.5 -79t-35.5 -81t-61 -70.5t-88 -46.5v-766q0 -49 26.5 -72.5t61.5 -23.5q34 0 60.5 26.5t29.5 69.5h6
q-2 -22 -12.5 -50.5t-31.5 -53.5t-54 -42t-78 -17q-35 0 -63.5 14.5t-49.5 41.5t-34 65t-17 85z" />
    <glyph glyph-name="uni1EE9" unicode="&#x1ee9;" horiz-adv-x="1171" 
d="M731 1442q-71 -29 -166 -64t-217 -92l-2 6q61 27 113 54l98 52l85.5 46.5t74.5 36.5q5 2 9.5 3t10.5 1q19 0 19 -19q0 -8 -8 -14.5t-17 -9.5zM811 186q-14 -38 -41.5 -74.5t-68 -66t-92.5 -47.5t-115 -18q-76 0 -132.5 27.5t-93.5 78.5t-55 122.5t-18 160.5v526
q0 50 -26.5 73t-62.5 23q-34 0 -60.5 -26.5t-29.5 -69.5h-6q1 22 12 50.5t32.5 53.5t54 42.5t77.5 17.5q81 0 124.5 -59.5t43.5 -168.5v-608q0 -103 54.5 -158t148.5 -55q58 0 105 23.5t80 61.5t51 87.5t18 102.5v747h-127v6h283v-123q43 14 72.5 38.5t48.5 52.5t27.5 55
t8.5 45q0 10 -10 10q-5 0 -21 -8t-40 -8q-20 0 -38.5 7t-32.5 20t-23 32.5t-9 44.5q0 44 28 74.5t75 30.5q25 0 45.5 -10t34.5 -26.5t22 -39t8 -47.5q0 -37 -11.5 -79t-35.5 -81t-61 -70.5t-88 -46.5v-766q0 -49 26.5 -72.5t61.5 -23.5q34 0 60.5 26.5t29.5 69.5h6
q-2 -22 -12.5 -50.5t-31.5 -53.5t-54 -42t-78 -17q-35 0 -63.5 14.5t-49.5 41.5t-34 65t-17 85z" />
    <glyph glyph-name="uni1EEF" unicode="&#x1eef;" horiz-adv-x="1171" 
d="M811 186q-14 -38 -41.5 -74.5t-68 -66t-92.5 -47.5t-115 -18q-76 0 -132.5 27.5t-93.5 78.5t-55 122.5t-18 160.5v526q0 50 -26.5 73t-62.5 23q-34 0 -60.5 -26.5t-29.5 -69.5h-6q1 22 12 50.5t32.5 53.5t54 42.5t77.5 17.5q81 0 124.5 -59.5t43.5 -168.5v-608
q0 -103 54.5 -158t148.5 -55q58 0 105 23.5t80 61.5t51 87.5t18 102.5v747h-127v6h283v-123q43 14 72.5 38.5t48.5 52.5t27.5 55t8.5 45q0 10 -10 10q-5 0 -21 -8t-40 -8q-20 0 -38.5 7t-32.5 20t-23 32.5t-9 44.5q0 44 28 74.5t75 30.5q25 0 45.5 -10t34.5 -26.5t22 -39
t8 -47.5q0 -37 -11.5 -79t-35.5 -81t-61 -70.5t-88 -46.5v-766q0 -49 26.5 -72.5t61.5 -23.5q34 0 60.5 26.5t29.5 69.5h6q-2 -22 -12.5 -50.5t-31.5 -53.5t-54 -42t-78 -17q-35 0 -63.5 14.5t-49.5 41.5t-34 65t-17 85zM726 1346q63 0 104.5 29.5t73.5 101.5h6
q-17 -39 -35.5 -69.5t-42 -51t-53.5 -31t-69 -10.5q-44 0 -76.5 10.5t-59 27t-49 35l-44.5 35t-47 27t-56 10.5q-63 0 -104.5 -30t-73.5 -101h-6q17 39 35.5 69.5t42 51t53.5 31t69 10.5q34 0 61 -10.5t50.5 -27t46 -35t48 -35t56 -27t70.5 -10.5z" />
    <glyph glyph-name="uni1EED" unicode="&#x1eed;" horiz-adv-x="1171" 
d="M811 186q-14 -38 -41.5 -74.5t-68 -66t-92.5 -47.5t-115 -18q-76 0 -132.5 27.5t-93.5 78.5t-55 122.5t-18 160.5v526q0 50 -26.5 73t-62.5 23q-34 0 -60.5 -26.5t-29.5 -69.5h-6q1 22 12 50.5t32.5 53.5t54 42.5t77.5 17.5q81 0 124.5 -59.5t43.5 -168.5v-608
q0 -103 54.5 -158t148.5 -55q58 0 105 23.5t80 61.5t51 87.5t18 102.5v747h-127v6h283v-123q43 14 72.5 38.5t48.5 52.5t27.5 55t8.5 45q0 10 -10 10q-5 0 -21 -8t-40 -8q-20 0 -38.5 7t-32.5 20t-23 32.5t-9 44.5q0 44 28 74.5t75 30.5q25 0 45.5 -10t34.5 -26.5t22 -39
t8 -47.5q0 -37 -11.5 -79t-35.5 -81t-61 -70.5t-88 -46.5v-766q0 -49 26.5 -72.5t61.5 -23.5q34 0 60.5 26.5t29.5 69.5h6q-2 -22 -12.5 -50.5t-31.5 -53.5t-54 -42t-78 -17q-35 0 -63.5 14.5t-49.5 41.5t-34 65t-17 85zM529 1180q-6 18 -9.5 33.5t-3.5 27.5q0 26 9 45.5
t23 35.5t29.5 30.5t29.5 30.5t23 36t9 47q0 44 -28.5 71t-71.5 27q-23 0 -41 -5t-30.5 -12.5t-20 -15t-8.5 -11.5h-7q14 23 41.5 38t67.5 15q63 0 99 -31t36 -84q0 -29 -14.5 -49t-35.5 -36.5l-43.5 -33t-38 -38t-19.5 -50.5t12 -71h-8z" />
    <glyph glyph-name="uni1EF1" unicode="&#x1ef1;" horiz-adv-x="1171" 
d="M811 186q-14 -38 -41.5 -74.5t-68 -66t-92.5 -47.5t-115 -18q-76 0 -132.5 27.5t-93.5 78.5t-55 122.5t-18 160.5v526q0 50 -26.5 73t-62.5 23q-34 0 -60.5 -26.5t-29.5 -69.5h-6q1 22 12 50.5t32.5 53.5t54 42.5t77.5 17.5q81 0 124.5 -59.5t43.5 -168.5v-608
q0 -103 54.5 -158t148.5 -55q58 0 105 23.5t80 61.5t51 87.5t18 102.5v747h-127v6h283v-123q43 14 72.5 38.5t48.5 52.5t27.5 55t8.5 45q0 10 -10 10q-5 0 -21 -8t-40 -8q-20 0 -38.5 7t-32.5 20t-23 32.5t-9 44.5q0 44 28 74.5t75 30.5q25 0 45.5 -10t34.5 -26.5t22 -39
t8 -47.5q0 -37 -11.5 -79t-35.5 -81t-61 -70.5t-88 -46.5v-766q0 -49 26.5 -72.5t61.5 -23.5q34 0 60.5 26.5t29.5 69.5h6q-2 -22 -12.5 -50.5t-31.5 -53.5t-54 -42t-78 -17q-35 0 -63.5 14.5t-49.5 41.5t-34 65t-17 85zM652 -303q0 -23 -8 -42t-21.5 -33t-32 -22t-39.5 -8
q-43 0 -70.5 29t-27.5 74q0 23 8 42.5t21.5 33.5t31 22t37.5 8q45 0 73 -29t28 -75z" />
    <glyph glyph-name="ygrave" unicode="&#x1ef3;" horiz-adv-x="1042" 
d="M596 43l-481 989h-115v6h418v-6h-142l390 -796l211 573q17 45 21 85.5t-9 71t-45 48.5t-86 18h-15v6h349v-6h-9q-36 0 -64.5 -18.5t-52 -50t-43.5 -72t-38 -84.5l-291 -791q-31 -84 -61 -144t-63 -98t-72 -55.5t-87 -17.5q-50 0 -87 16.5t-61 44.5t-36 66t-12 80
q0 28 9 52.5t24 41.5t35 27t42 10q50 0 76.5 -29.5t26.5 -72.5q0 -26 -9 -45.5t-23.5 -32.5t-33 -20t-37.5 -7q-24 0 -40 8t-21 8q-10 0 -10 -10q0 -16 8 -38.5t26.5 -43t48.5 -35t74 -14.5q48 0 86 18t70 56t61 96t58 139zM311 1442q-9 3 -16.5 9.5t-7.5 14.5q0 10 5 14.5
t13 4.5q6 0 11 -1t10 -3q35 -15 74.5 -36.5l85 -46.5l98 -52t112.5 -54l-2 -6q-122 57 -216.5 92z" />
    <glyph glyph-name="yacute" unicode="&#xfd;" horiz-adv-x="1042" 
d="M596 43l-481 989h-115v6h418v-6h-142l390 -796l211 573q17 45 21 85.5t-9 71t-45 48.5t-86 18h-15v6h349v-6h-9q-36 0 -64.5 -18.5t-52 -50t-43.5 -72t-38 -84.5l-291 -791q-31 -84 -61 -144t-63 -98t-72 -55.5t-87 -17.5q-50 0 -87 16.5t-61 44.5t-36 66t-12 80
q0 28 9 52.5t24 41.5t35 27t42 10q50 0 76.5 -29.5t26.5 -72.5q0 -26 -9 -45.5t-23.5 -32.5t-33 -20t-37.5 -7q-24 0 -40 8t-21 8q-10 0 -10 -10q0 -16 8 -38.5t26.5 -43t48.5 -35t74 -14.5q48 0 86 18t70 56t61 96t58 139zM786 1442q-71 -29 -166 -64t-217 -92l-2 6
q61 27 113 54l98 52l85.5 46.5t74.5 36.5q5 2 9.5 3t11.5 1q8 0 13 -4.5t5 -14.5q0 -8 -7.5 -14.5t-17.5 -9.5z" />
    <glyph glyph-name="uni1EF9" unicode="&#x1ef9;" horiz-adv-x="1042" 
d="M596 43l-481 989h-115v6h418v-6h-142l390 -796l211 573q17 45 21 85.5t-9 71t-45 48.5t-86 18h-15v6h349v-6h-9q-36 0 -64.5 -18.5t-52 -50t-43.5 -72t-38 -84.5l-291 -791q-31 -84 -61 -144t-63 -98t-72 -55.5t-87 -17.5q-50 0 -87 16.5t-61 44.5t-36 66t-12 80
q0 28 9 52.5t24 41.5t35 27t42 10q50 0 76.5 -29.5t26.5 -72.5q0 -26 -9 -45.5t-23.5 -32.5t-33 -20t-37.5 -7q-24 0 -40 8t-21 8q-10 0 -10 -10q0 -16 8 -38.5t26.5 -43t48.5 -35t74 -14.5q48 0 86 18t70 56t61 96t58 139zM758 1346q63 0 104.5 29.5t73.5 101.5h6
q-17 -39 -35.5 -69.5t-42 -51t-53.5 -31t-69 -10.5q-44 0 -76.5 10.5t-59 27t-49 35l-44.5 35t-47 27t-56 10.5q-63 0 -104.5 -30t-73.5 -101h-6q17 39 35.5 69.5t42 51t53.5 31t69 10.5q34 0 61 -10.5t50.5 -27t46 -35t48 -35t56 -27t70.5 -10.5z" />
    <glyph glyph-name="ydieresis" unicode="&#xff;" horiz-adv-x="1042" 
d="M596 43l-481 989h-115v6h418v-6h-142l390 -796l211 573q17 45 21 85.5t-9 71t-45 48.5t-86 18h-15v6h349v-6h-9q-36 0 -64.5 -18.5t-52 -50t-43.5 -72t-38 -84.5l-291 -791q-31 -84 -61 -144t-63 -98t-72 -55.5t-87 -17.5q-50 0 -87 16.5t-61 44.5t-36 66t-12 80
q0 28 9 52.5t24 41.5t35 27t42 10q50 0 76.5 -29.5t26.5 -72.5q0 -26 -9 -45.5t-23.5 -32.5t-33 -20t-37.5 -7q-24 0 -40 8t-21 8q-10 0 -10 -10q0 -16 8 -38.5t26.5 -43t48.5 -35t74 -14.5q48 0 86 18t70 56t61 96t58 139zM543 1339q0 -22 -8 -41t-21.5 -33t-32 -22
t-39.5 -8q-43 0 -70.5 28.5t-27.5 73.5q0 47 29 77t69 30q45 0 73 -29t28 -76zM868 1339q0 -45 -29 -74.5t-71 -29.5q-43 0 -70.5 28.5t-27.5 73.5q0 47 29 77t69 30q45 0 72.5 -29t27.5 -76z" />
    <glyph glyph-name="uni1EF7" unicode="&#x1ef7;" horiz-adv-x="1042" 
d="M596 43l-481 989h-115v6h418v-6h-142l390 -796l211 573q17 45 21 85.5t-9 71t-45 48.5t-86 18h-15v6h349v-6h-9q-36 0 -64.5 -18.5t-52 -50t-43.5 -72t-38 -84.5l-291 -791q-31 -84 -61 -144t-63 -98t-72 -55.5t-87 -17.5q-50 0 -87 16.5t-61 44.5t-36 66t-12 80
q0 28 9 52.5t24 41.5t35 27t42 10q50 0 76.5 -29.5t26.5 -72.5q0 -26 -9 -45.5t-23.5 -32.5t-33 -20t-37.5 -7q-24 0 -40 8t-21 8q-10 0 -10 -10q0 -16 8 -38.5t26.5 -43t48.5 -35t74 -14.5q48 0 86 18t70 56t61 96t58 139zM576 1180q-6 18 -9.5 33.5t-3.5 27.5q0 26 9 45.5
t23 35.5t29.5 30.5t29.5 30.5t23 36t9 47q0 44 -28.5 71t-71.5 27q-23 0 -41 -5t-30.5 -12.5t-20 -15t-8.5 -11.5h-7q14 23 41.5 38t67.5 15q63 0 99 -31t36 -84q0 -29 -14.5 -49t-35.5 -36.5l-43.5 -33t-38 -38t-19.5 -50.5t12 -71h-8z" />
    <glyph glyph-name="uni1EF5" unicode="&#x1ef5;" horiz-adv-x="1042" 
d="M596 43l-481 989h-115v6h418v-6h-142l390 -796l211 573q17 45 21 85.5t-9 71t-45 48.5t-86 18h-15v6h349v-6h-9q-36 0 -64.5 -18.5t-52 -50t-43.5 -72t-38 -84.5l-291 -791q-31 -84 -61 -144t-63 -98t-72 -55.5t-87 -17.5q-50 0 -87 16.5t-61 44.5t-36 66t-12 80
q0 28 9 52.5t24 41.5t35 27t42 10q50 0 76.5 -29.5t26.5 -72.5q0 -26 -9 -45.5t-23.5 -32.5t-33 -20t-37.5 -7q-24 0 -40 8t-21 8q-10 0 -10 -10q0 -16 8 -38.5t26.5 -43t48.5 -35t74 -14.5q48 0 86 18t70 56t61 96t58 139zM840 -303q0 -23 -8 -42t-21.5 -33t-32 -22
t-39.5 -8q-43 0 -70.5 29t-27.5 74q0 23 8 42.5t21.5 33.5t31 22t37.5 8q45 0 73 -29t28 -75z" />
    <glyph glyph-name="eth" unicode="&#xf0;" horiz-adv-x="1120" 
d="M557 -20q-104 0 -190 39t-147 107.5t-94.5 161.5t-33.5 201q0 109 35 206.5t97.5 170.5t147 115.5t183.5 42.5q93 0 159.5 -39.5t106.5 -99.5q-32 114 -79.5 202.5t-104.5 153.5l-256 -125v10l250 123q-66 73 -137 117.5t-136 63.5v8q75 -22 155.5 -63.5t158.5 -104.5
l248 123v-11l-240 -118q70 -59 133.5 -134t111 -165.5t75.5 -197t28 -226.5q0 -131 -34.5 -234.5t-96.5 -176.5t-148.5 -111.5t-191.5 -38.5zM862 528q0 103 -11 190t-41 150t-83 98t-137 35q-80 0 -141 -37.5t-102.5 -104t-63 -158.5t-21.5 -201q0 -108 20.5 -201.5
t61 -162t101 -107.5t141.5 -39q67 0 119 38.5t86.5 109t52.5 169.5t18 221z" />
    <glyph glyph-name="thorn" unicode="&#xfe;" horiz-adv-x="1122" 
d="M543 1036q-58 0 -105 -18t-80.5 -52t-52 -82.5t-18.5 -109.5v-500q0 -59 18 -105.5t50.5 -79t77.5 -49.5t99 -17q80 0 141 37.5t102.5 105t63 162t21.5 207.5q0 112 -21 204.5t-61.5 158.5t-99.5 102t-135 36zM287 -293h127v-6h-414v6h129v1720h-129v7h287v-553
q17 38 45 71.5t66 58.5t85 39.5t103 14.5q102 0 184 -39t140 -108.5t89 -165t31 -207.5q0 -113 -35 -212t-97.5 -173t-147 -117t-183.5 -43q-51 0 -94.5 12.5t-79 35t-62.5 53.5t-44 67v-461z" />
    <glyph glyph-name="fi" unicode="&#xfb01;" horiz-adv-x="1001" 
d="M864 6h127v-6h-413v6h129v1026h-443q10 -32 19.5 -67t17 -77t12 -92.5t4.5 -113.5v-676h127v-6h-413v6h129v1026h-129v6h129v41q0 97 27.5 174.5t78.5 131t124 82t165 28.5q79 0 140 -20.5t102 -53t62.5 -73.5t21.5 -82q0 -54 -30.5 -88.5t-78.5 -34.5q-45 0 -74.5 28.5
t-29.5 73.5q0 28 9 48t23.5 33t33 19.5t36.5 6.5q17 0 29.5 -4.5t17.5 -4.5q10 0 10 7q0 13 -16 36.5t-49 46.5t-84.5 39.5t-122.5 16.5q-73 0 -133 -18.5t-102.5 -53.5t-65.5 -87t-23 -118q0 -44 8 -83t23 -91h602v-1032z" />
    <glyph glyph-name="fl" unicode="&#xfb02;" horiz-adv-x="1063" 
d="M748 1245q0 44 -9 87.5t-33 78.5t-67 56.5t-111 21.5q-66 0 -120.5 -18.5t-94 -53.5t-61 -87t-21.5 -118q0 -44 8 -83t23 -91h287v-6h-285q10 -32 19.5 -67t17 -77t12 -92.5t4.5 -113.5v-676h127v-6h-413v6h129v1026h-129v6h129v41q0 97 27 174.5t77.5 131t121.5 82
t159 28.5q102 0 171 -23t111 -63t60 -92.5t18 -110.5v-1200h127v-6h-414v6h130v1239z" />
    <glyph glyph-name="ampersand" unicode="&#x26;" horiz-adv-x="1554" 
d="M1038 649q75 0 128.5 17t88 41.5t50.5 53t16 52.5q0 10 -10 10q-5 0 -21 -8t-41 -8q-19 0 -37.5 7t-32.5 20t-23 32.5t-9 44.5q0 44 29.5 74.5t78.5 30.5q45 0 75 -33t30 -84q0 -48 -17 -91.5t-50.5 -77.5t-83.5 -56.5t-115 -28.5q81 -6 146 -27.5t110.5 -55.5t70.5 -80
t25 -101q0 -75 -38 -147.5t-118 -129.5t-203.5 -92t-295.5 -35q-181 0 -311 32.5t-214 88.5t-124 132.5t-40 164.5q0 89 41 160t110 122.5t161 82t194 39.5q-70 11 -132.5 32t-109.5 55.5t-74.5 83.5t-27.5 117q0 78 33 140t90.5 105.5t136 67t168.5 23.5q97 0 167 -25
t114 -64t65 -87t21 -94q0 -26 -8.5 -47t-22.5 -37t-34 -24.5t-42 -8.5q-49 0 -77.5 27.5t-28.5 71.5q0 25 9 44.5t23 32.5t32.5 20t37.5 7q25 0 41 -8t21 -8q10 0 10 10q0 20 -14.5 49.5t-49 57.5t-92 47.5t-143.5 19.5q-68 0 -123.5 -22t-95.5 -62t-62 -96.5t-22 -126.5
q0 -69 19 -125t55.5 -95.5t89 -61t120.5 -21.5h19v-6h-35q-91 0 -167.5 -29t-132 -81.5t-87 -126t-31.5 -163.5q0 -74 30.5 -146.5t94 -130.5t162.5 -94t236 -36q133 0 228.5 32t157 85t90.5 121.5t29 142.5q0 64 -15.5 115t-47.5 87t-80.5 55.5t-114.5 20.5
q-74 0 -128.5 -15.5t-90.5 -39.5t-53.5 -52t-17.5 -53q0 -10 10 -10q5 0 20.5 8t40.5 8q19 0 37.5 -6.5t33 -20t23.5 -33t9 -44.5q0 -43 -29.5 -73.5t-79.5 -30.5q-45 0 -74.5 32.5t-29.5 83.5q0 55 22 101t64 79.5t103.5 52.5t139.5 19z" />
    <glyph glyph-name="comma" unicode="," horiz-adv-x="455" 
d="M143 -186q45 13 76 37.5t50.5 53t28.5 56t9 45.5q0 10 -10 10q-5 0 -21 -8t-40 -8q-20 0 -38.5 7t-32.5 20t-23 32.5t-9 44.5q0 44 28 74.5t75 30.5q25 0 45.5 -9.5t34.5 -26.5t22 -39.5t8 -47.5q0 -37 -12 -79.5t-37 -82t-63.5 -71t-90.5 -46.5v7z" />
    <glyph glyph-name="semicolon" unicode=";" horiz-adv-x="455" 
d="M143 -186q45 13 76 37.5t50.5 53t28.5 56t9 45.5q0 10 -10 10q-5 0 -21 -8t-40 -8q-20 0 -38.5 7t-32.5 20t-23 32.5t-9 44.5q0 44 28 74.5t75 30.5q25 0 45.5 -9.5t34.5 -26.5t22 -39.5t8 -47.5q0 -37 -12 -79.5t-37 -82t-63.5 -71t-90.5 -46.5v7zM334 934q0 -23 -8 -42
t-21.5 -33t-32 -22t-39.5 -8q-43 0 -70.5 29t-27.5 74q0 23 8 42.5t21.5 33.5t31 22t37.5 8q45 0 73 -29t28 -75z" />
    <glyph glyph-name="colon" unicode=":" horiz-adv-x="455" 
d="M334 92q0 -22 -8 -41t-21.5 -33t-32 -22t-39.5 -8q-43 0 -70.5 28.5t-27.5 73.5q0 47 29 77t69 30q45 0 73 -29t28 -76zM334 934q0 -23 -8 -42t-21.5 -33t-32 -22t-39.5 -8q-43 0 -70.5 29t-27.5 74q0 23 8 42.5t21.5 33.5t31 22t37.5 8q45 0 73 -29t28 -75z" />
    <glyph glyph-name="period" unicode="." horiz-adv-x="455" 
d="M334 92q0 -22 -8 -41t-21.5 -33t-32 -22t-39.5 -8q-43 0 -70.5 28.5t-27.5 73.5q0 47 29 77t69 30q45 0 73 -29t28 -76z" />
    <glyph glyph-name="ellipsis" unicode="&#x2026;" horiz-adv-x="1364" 
d="M334 92q0 -22 -8 -41t-21.5 -33t-32 -22t-39.5 -8q-43 0 -70.5 28.5t-27.5 73.5q0 47 29 77t69 30q45 0 73 -29t28 -76zM788 92q0 -45 -29 -74.5t-71 -29.5q-43 0 -70.5 28.5t-27.5 73.5q0 47 29 77t69 30q45 0 72.5 -29t27.5 -76zM1243 92q0 -45 -29 -74.5t-71 -29.5
q-44 0 -71.5 28.5t-27.5 73.5q0 23 8 42.5t21.5 34t31.5 22.5t38 8q45 0 72.5 -29t27.5 -76z" />
    <glyph glyph-name="exclam" unicode="!" horiz-adv-x="455" 
d="M334 92q0 -22 -8 -41t-21.5 -33t-32 -22t-39.5 -8q-43 0 -70.5 28.5t-27.5 73.5q0 47 29 77t69 30q45 0 73 -29t28 -76zM229 465q0 127 -14.5 245.5t-32.5 225.5t-32.5 203t-14.5 180q0 62 29 93.5t69 31.5q41 0 70 -31.5t29 -93.5q0 -84 -14.5 -180t-32.5 -203
t-32.5 -225.5t-14.5 -245.5h-9z" />
    <glyph glyph-name="exclamdown" unicode="&#xa1;" horiz-adv-x="455" 
d="M135 934q0 22 8 41t21.5 33t32 22t39.5 8q43 0 70.5 -28.5t27.5 -73.5q0 -47 -29 -77t-69 -30q-45 0 -73 29t-28 76zM240 561q0 -128 14.5 -246t32.5 -225t32.5 -203t14.5 -180q0 -62 -29 -93.5t-69 -31.5q-41 0 -70 31.5t-29 93.5q0 84 14.5 180t32.5 203t32.5 225
t14.5 246h9z" />
    <glyph glyph-name="question" unicode="?" horiz-adv-x="764" 
d="M326 446q-14 47 -20.5 85.5t-6.5 72.5q0 66 19 115t48 90t62 78.5t62 80t48 93.5t19 119q0 54 -15.5 100t-45 79.5t-72 52t-96.5 18.5q-68 0 -115 -22t-76.5 -52.5t-43 -62.5t-13.5 -52q0 -10 10 -10q5 0 21 8t41 8q19 0 37.5 -7t32.5 -20t23 -32.5t9 -44.5
q0 -44 -29.5 -74.5t-79.5 -30.5q-22 0 -41 8.5t-33 24.5t-22 37t-8 47q0 51 19 102t58.5 92t99.5 67t142 26q78 0 141.5 -20.5t108 -58.5t68.5 -91.5t24 -120.5q0 -82 -28 -143.5t-70.5 -112t-91.5 -93t-91.5 -85t-70.5 -89.5t-28 -106q0 -36 12 -76h-8zM457 92
q0 -22 -8 -41t-21.5 -33t-32 -22t-39.5 -8q-43 0 -70.5 28.5t-27.5 73.5q0 47 29 77t69 30q45 0 73 -29t28 -76z" />
    <glyph glyph-name="questiondown" unicode="&#xbf;" horiz-adv-x="764" 
d="M418 580q14 -47 20 -85.5t6 -72.5q0 -66 -19 -115t-48 -90t-62 -78.5t-62 -80t-48 -93.5t-19 -119q0 -54 15.5 -100t45.5 -79t72.5 -51.5t96.5 -18.5q67 0 114.5 22t77 52t43 62t13.5 52q0 10 -11 10q-5 0 -20.5 -8t-40.5 -8q-19 0 -37.5 7t-33 20t-23.5 32.5t-9 44.5
q0 44 29.5 74.5t79.5 30.5q22 0 41 -8.5t33 -24.5t22 -37.5t8 -46.5q0 -51 -19 -102t-58.5 -92t-99.5 -67t-142 -26q-78 0 -141.5 20.5t-108 58.5t-68.5 91.5t-24 120.5q0 81 28 143t70.5 112.5t92 93t92 85t70.5 89.5t28 106q0 35 -12 76h8zM287 934q0 45 29 74.5t71 29.5
q43 0 70.5 -28.5t27.5 -73.5q0 -47 -29 -77t-69 -30q-45 0 -72.5 29t-27.5 76z" />
    <glyph glyph-name="quoteleft" unicode="&#x2018;" horiz-adv-x="455" 
d="M324 1483q-45 -13 -76 -38t-50.5 -53.5t-28.5 -56t-9 -45.5q0 -10 10 -10q5 0 21 8t40 8q19 0 38 -6.5t33 -20t23 -33t9 -44.5q0 -43 -28 -74t-75 -31q-25 0 -45.5 10t-34.5 26.5t-22 39t-8 47.5q0 37 12 80t37 82t63 70.5t91 46.5v-6z" />
    <glyph glyph-name="quoteright" unicode="&#x2019;" horiz-adv-x="455" 
d="M143 1049q45 13 76 37.5t50.5 53t28.5 56t9 45.5q0 10 -10 10q-5 0 -21 -8t-40 -8q-20 0 -38.5 7t-32.5 20t-23 32.5t-9 44.5q0 44 28 74.5t75 30.5q25 0 45.5 -9.5t34.5 -26.5t22 -39.5t8 -47.5q0 -37 -12 -79.5t-37 -82t-63.5 -71t-90.5 -46.5v7z" />
    <glyph glyph-name="quotedblleft" unicode="&#x201c;" horiz-adv-x="754" 
d="M621 1483q-45 -13 -76 -38t-50.5 -53.5t-28.5 -56t-9 -45.5q0 -10 10 -10q5 0 21 8t40 8q19 0 38 -6.5t33 -20t23 -33t9 -44.5q0 -43 -28 -74t-75 -31q-25 0 -45.5 10t-34.5 26.5t-22 39t-8 47.5q0 37 12 80t37 82t63 70.5t91 46.5v-6zM322 1483q-45 -13 -76 -38
t-50.5 -53.5t-28.5 -56t-9 -45.5q0 -10 10 -10q5 0 21 8t40 8q19 0 38 -6.5t33 -20t23 -33t9 -44.5q0 -43 -28 -74t-75 -31q-25 0 -45.5 10t-34.5 26.5t-22 39t-8 47.5q0 37 12 80t37 82t63 70.5t91 46.5v-6z" />
    <glyph glyph-name="quotedblright" unicode="&#x201d;" horiz-adv-x="754" 
d="M143 1049q45 13 76 37.5t50.5 53t28.5 56t9 45.5q0 10 -10 10q-5 0 -21 -8t-40 -8q-20 0 -38.5 7t-32.5 20t-23 32.5t-9 44.5q0 44 28 74.5t75 30.5q25 0 45.5 -9.5t34.5 -26.5t22 -39.5t8 -47.5q0 -37 -12 -79.5t-37 -82t-63.5 -71t-90.5 -46.5v7zM442 1049
q45 13 76 37.5t50.5 53t28.5 56t9 45.5q0 10 -10 10q-5 0 -21 -8t-40 -8q-20 0 -38.5 7t-32.5 20t-23 32.5t-9 44.5q0 44 28 74.5t75 30.5q25 0 45.5 -9.5t34.5 -26.5t22 -39.5t8 -47.5q0 -37 -12 -79.5t-37 -82t-63.5 -71t-90.5 -46.5v7z" />
    <glyph glyph-name="quotesinglbase" unicode="&#x201a;" horiz-adv-x="455" 
d="M143 -186q45 13 76 37.5t50.5 53t28.5 56t9 45.5q0 10 -10 10q-5 0 -21 -8t-40 -8q-20 0 -38.5 7t-32.5 20t-23 32.5t-9 44.5q0 44 28 74.5t75 30.5q25 0 45.5 -9.5t34.5 -26.5t22 -39.5t8 -47.5q0 -37 -12 -79.5t-37 -82t-63.5 -71t-90.5 -46.5v7z" />
    <glyph glyph-name="quotedblbase" unicode="&#x201e;" horiz-adv-x="754" 
d="M143 -186q45 13 76 37.5t50.5 53t28.5 56t9 45.5q0 10 -10 10q-5 0 -21 -8t-40 -8q-20 0 -38.5 7t-32.5 20t-23 32.5t-9 44.5q0 44 28 74.5t75 30.5q25 0 45.5 -9.5t34.5 -26.5t22 -39.5t8 -47.5q0 -37 -12 -79.5t-37 -82t-63.5 -71t-90.5 -46.5v7zM442 -186
q45 13 76 37.5t50.5 53t28.5 56t9 45.5q0 10 -10 10q-5 0 -21 -8t-40 -8q-20 0 -38.5 7t-32.5 20t-23 32.5t-9 44.5q0 44 28 74.5t75 30.5q25 0 45.5 -9.5t34.5 -26.5t22 -39.5t8 -47.5q0 -37 -12 -79.5t-37 -82t-63.5 -71t-90.5 -46.5v7z" />
    <glyph glyph-name="guilsinglleft" unicode="&#x2039;" horiz-adv-x="807" 
d="M702 72l-150.5 116l-114 85.5l-88.5 64l-75 53.5l-73 53l-82 62q-17 14 -17 29q0 9 4.5 16.5t12.5 13.5l82.5 62.5l72.5 53l75 53.5l88.5 64l113.5 84.5l151 116.5l3 -10l-147 -116l-111.5 -89.5l-86.5 -70.5l-72.5 -59.5l-69 -57l-75.5 -61.5l75.5 -61.5l69 -57
l72.5 -60l86.5 -71l111.5 -89l147 -114.5z" />
    <glyph glyph-name="guilsinglright" unicode="&#x203a;" horiz-adv-x="807" 
d="M102 82l147 114.5l111.5 89l86.5 71l72.5 60l68.5 57l76 61.5l-76 61.5l-68.5 57l-72.5 59.5l-86.5 70.5l-111.5 89.5l-147 116l2 10l151 -116.5l114 -84.5l89 -64l75 -53.5l72.5 -53l82.5 -62.5q17 -14 17 -30q0 -15 -17 -29l-82.5 -62l-72.5 -53l-75 -53.5l-89 -64
l-114 -85.5l-151 -116z" />
    <glyph glyph-name="guillemotleft" unicode="&#xab;" horiz-adv-x="1065" 
d="M702 72l-150.5 116l-114 85.5l-88.5 64l-75 53.5l-73 53l-82 62q-17 14 -17 29q0 9 4.5 16.5t12.5 13.5l82.5 62.5l72.5 53l75 53.5l88.5 64l113.5 84.5l151 116.5l3 -10l-147 -116l-111.5 -89.5l-86.5 -70.5l-72.5 -59.5l-69 -57l-75.5 -61.5l75.5 -61.5l69 -57
l72.5 -60l86.5 -71l111.5 -89l147 -114.5zM961 119l-151 103.5l-114 76l-89 57.5l-75 48l-73 47.5l-82 56.5q-17 14 -17 27q0 8 4.5 15t12.5 13l82 56.5l73 47.5l75 48l89 57.5l114 76l151 103.5l2 -8l-147 -104l-111.5 -80.5l-86.5 -64l-72.5 -54l-69 -51l-75.5 -55.5
l75.5 -55.5l69 -51.5l72.5 -54.5l86.5 -64l111.5 -80l147 -102.5z" />
    <glyph glyph-name="guillemotright" unicode="&#xbb;" horiz-adv-x="1065" 
d="M102 127l147 102.5l111.5 80l86.5 64l72.5 54.5l68.5 51.5l76 55.5l-76 55.5l-68.5 51l-72.5 54l-86.5 64l-111.5 80.5l-147 104l2 8l151 -103.5l114 -76l89 -57.5l75 -48l72.5 -47.5l82.5 -56.5q17 -14 17 -28q0 -13 -17 -27l-82.5 -56.5l-72.5 -47.5l-75 -48l-89 -57.5
l-114 -76l-151 -103.5zM360 82l147 114.5l111.5 89l86.5 71l72.5 60l68.5 57l76 61.5l-76 61.5l-68.5 57l-72.5 59.5l-86.5 70.5l-111.5 89.5l-147 116l2 10l151 -116.5l114 -84.5l89 -64l75 -53.5l72.5 -53l82.5 -62.5q17 -14 17 -30q0 -15 -17 -29l-82.5 -62l-72.5 -53
l-75 -53.5l-89 -64l-114 -85.5l-151 -116z" />
    <glyph glyph-name="slash" unicode="/" horiz-adv-x="639" 
d="M557 1481l-60.5 -201l-44 -150l-32.5 -116l-27.5 -97.5l-27 -94l-31.5 -107.5l-36.5 -116l-32.5 -98.5l-32.5 -98l-37.5 -114l-47 -145.5l-60 -194h-6l58.5 194l43 145.5l32.5 114l27.5 98l28.5 98.5l35 116l33.5 107.5l30.5 94l32 97.5l38 116l48 150l62 201h6z" />
    <glyph glyph-name="bar" unicode="|" horiz-adv-x="436" 
d="M221 1497q0 -136 0.5 -236t2 -176.5t2.5 -135.5t2.5 -114t2 -111.5t0.5 -127.5q0 -77 -0.5 -137t-2 -116t-2.5 -115t-2.5 -133.5t-2 -171.5t-0.5 -228h-6q0 132 -0.5 228.5t-2 171t-2.5 133.5t-2.5 115t-2 116t-0.5 137q0 71 0.5 127.5t2 111.5t2.5 114t2.5 135.5
t2 176.5t0.5 236h6z" />
    <glyph glyph-name="endash" unicode="&#x2013;" 
d="M922 575q-62 0 -108 -0.5t-81 -2t-62.5 -2.5t-53 -2.5t-51.5 -2t-58 -0.5q-35 0 -62 0.5t-52 2t-51 2.5t-59.5 2.5t-77.5 2t-104 0.5v7q60 0 104 0.5t77.5 2t59.5 2.5t51 2.5t52 2t62 0.5q32 0 58 -0.5t51.5 -2t53 -2.5t62.5 -2.5t81 -2t108 -0.5v-7z" />
    <glyph glyph-name="emdash" unicode="&#x2014;" horiz-adv-x="1434" 
d="M1331 575q-93 0 -162 -0.5t-122 -2t-94 -2.5t-79 -2.5t-76.5 -2t-86.5 -0.5q-52 0 -92.5 0.5t-78.5 2t-77.5 2.5t-89.5 2.5t-115.5 2t-155.5 0.5v7q90 0 155.5 0.5t115.5 2t89.5 2.5t77.5 2.5t78.5 2t92.5 0.5q48 0 86.5 -0.5t76.5 -2t79 -2.5t94 -2.5t122 -2t162 -0.5
v-7z" />
    <glyph glyph-name="bullet" unicode="&#x2022;" horiz-adv-x="813" 
d="M559 582q0 -36 -12.5 -66.5t-34.5 -53t-51 -35.5t-62 -13q-35 0 -63.5 12.5t-49.5 34t-32.5 51.5t-11.5 66q0 37 12.5 68.5t34 54.5t50 36t60.5 13q36 0 65.5 -12.5t50.5 -35t32.5 -53t11.5 -67.5z" />
    <glyph glyph-name="periodcentered" unicode="&#xb7;" horiz-adv-x="813" 
d="M500 582q0 -23 -8 -42t-21.5 -33t-32 -22t-39.5 -8q-43 0 -70.5 29t-27.5 74q0 23 8 42.5t21.5 33.5t31 22t37.5 8q45 0 73 -29t28 -75z" />
    <glyph glyph-name="parenleft" unicode="(" horiz-adv-x="649" 
d="M123 664q0 183 41.5 335t111.5 266.5t161.5 189.5t191.5 104v-9q-77 -23 -139.5 -80t-106.5 -160.5t-68 -258.5t-24 -373t24 -375t68 -262.5t106.5 -165t139.5 -82.5v-8q-100 29 -191.5 101t-161.5 184t-111.5 261t-41.5 333z" />
    <glyph glyph-name="parenright" unicode=")" horiz-adv-x="649" 
d="M526 664q0 -184 -41.5 -333t-111.5 -261t-161.5 -184t-191.5 -101v8q77 23 139.5 82.5t106.5 165t68 262.5t24 375t-24 373t-68 258.5t-106.5 160.5t-139.5 80v9q100 -29 191.5 -104t161.5 -189.5t111.5 -266.5t41.5 -335z" />
    <glyph glyph-name="bracketleft" unicode="[" horiz-adv-x="649" 
d="M629 1536v-6h-314v-1716h314v-7h-459v1729h459z" />
    <glyph glyph-name="bracketright" unicode="]" horiz-adv-x="649" 
d="M479 1536v-1729h-459v7h314v1716h-314v6h459z" />
    <glyph glyph-name="braceleft" unicode="{" horiz-adv-x="649" 
d="M315 795q0 35 -15 64.5t-37.5 58.5t-48.5 58.5t-48.5 64t-37.5 76t-15 93.5q0 69 35 132.5t101 111.5t162 76.5t218 28.5v-9q-94 0 -164 -20t-116.5 -56t-69.5 -86t-23 -110q0 -47 12 -86t30 -74t39 -66.5t39 -63.5t30 -64.5t12 -69.5q0 -38 -19.5 -70t-50.5 -55.5
t-70 -38t-77 -18.5q38 -4 77 -18.5t70 -38t50.5 -55.5t19.5 -71q0 -37 -12 -69.5t-30 -64t-39 -63.5t-39 -66.5t-30 -74t-12 -85.5q0 -60 23 -110t69.5 -86.5t116.5 -56.5t164 -20v-8q-122 0 -218 28.5t-162 76.5t-101 111t-35 132q0 52 15 93.5t37.5 76t48.5 64.5t48.5 59
t37.5 58.5t15 64.5q0 65 -39.5 92t-117.5 27v8q78 0 117.5 27t39.5 92z" />
    <glyph glyph-name="braceright" unicode="}" horiz-adv-x="649" 
d="M334 795q0 -65 39.5 -92t118.5 -27v-8q-79 0 -118.5 -27t-39.5 -92q0 -35 15 -64.5t37.5 -58.5t49 -59t49 -64.5t37.5 -76t15 -93.5q0 -69 -35 -132t-101.5 -111t-162.5 -76.5t-218 -28.5v8q94 0 164 20t116.5 56.5t69.5 86.5t23 110q0 46 -12 85.5t-30 74t-39 66.5
t-39 63.5t-30 64t-12 69.5q0 39 19.5 71t51 55.5t70 38t77.5 18.5q-39 4 -77.5 18.5t-70 38t-51 55.5t-19.5 70q0 37 12 69.5t30 64.5t39 63.5t39 66.5t30 74t12 86q0 60 -23 110t-69.5 86t-116.5 56t-164 20v9q122 0 218 -28.5t162.5 -76.5t101.5 -111.5t35 -132.5
q0 -52 -15 -93.5t-37.5 -76t-49 -64t-49 -58.5t-37.5 -58.5t-15 -64.5z" />
    <glyph glyph-name="asterisk" unicode="*" horiz-adv-x="752" 
d="M160 1257q24 -8 46.5 -26l47.5 -38.5t54 -41t67 -33.5q-1 40 -11.5 74t-23 64l-23 57.5t-10.5 54.5q0 35 20 55.5t48 20.5t47.5 -20.5t19.5 -55.5q0 -27 -10 -54.5l-21.5 -57.5t-21.5 -64t-10 -74q37 13 65 33.5t52.5 41l47 38.5t48.5 26q34 11 59.5 -1.5t34.5 -38.5
q8 -26 -5.5 -52t-45.5 -37q-26 -8 -55 -7t-60.5 3.5t-66.5 2t-72 -12.5q24 -32 51.5 -53t54.5 -37.5l51 -32.5t40 -37q20 -29 15.5 -57t-26.5 -45q-23 -16 -50.5 -11.5t-49.5 31.5q-16 22 -23.5 50t-14 59.5t-17.5 64.5t-35 66q-23 -33 -34.5 -66t-19 -64.5t-15 -59.5
t-23.5 -50q-22 -27 -50 -31.5t-51 11.5q-21 17 -25.5 45t15.5 57q16 21 40 37t51.5 32.5t55.5 37.5t52 53q-38 12 -73.5 12.5t-67.5 -2t-61 -3.5t-54 7q-32 11 -45.5 37t-5.5 52q9 26 34.5 38.5t59.5 1.5z" />
    <glyph glyph-name="dagger" unicode="&#x2020;" horiz-adv-x="1163" 
d="M186 975q34 0 80.5 -12.5l99 -27.5t108 -27.5t106.5 -12.5q-1 65 -13 131.5t-26.5 127.5l-26.5 111.5t-12 84.5q0 45 23 69.5t57 24.5q35 0 57.5 -24.5t22.5 -69.5q0 -34 -12 -84.5l-27 -111.5t-27 -127.5t-12 -131.5q51 0 106 12.5t107.5 27.5l99 27.5t80.5 12.5
q45 0 69.5 -24.5t24.5 -59.5q0 -34 -24.5 -59t-69.5 -25q-34 0 -80.5 13l-99 28.5t-107.5 28.5t-106 14q0 -189 13 -354t28 -304.5l28 -252.5t13 -197q0 -45 -24.5 -69.5t-59.5 -24.5q-34 0 -59 24.5t-25 69.5q0 84 13 197l28 252.5t28 304.5t13 354q-51 -1 -106.5 -14
t-108 -28.5l-99 -28.5t-80.5 -13q-45 0 -69.5 25t-24.5 59q0 35 24.5 59.5t69.5 24.5z" />
    <glyph glyph-name="daggerdbl" unicode="&#x2021;" horiz-adv-x="1163" 
d="M186 995q34 0 80.5 -12.5l99 -27.5t108 -27.5t106.5 -12.5q-1 66 -13 129.5t-26.5 120l-26.5 104t-12 81.5q0 45 23 69.5t57 24.5q35 0 57.5 -24.5t22.5 -69.5q0 -34 -12 -81.5l-27 -104t-27 -120t-12 -129.5q51 0 106 12.5t107.5 27.5l99 27.5t80.5 12.5
q45 0 69.5 -24.5t24.5 -59.5q0 -34 -24.5 -59t-69.5 -25q-34 0 -80.5 13l-99 28.5t-107.5 28.5t-106 14q0 -48 8 -93.5t17.5 -88.5t17.5 -84t8 -80q0 -38 -8 -79t-17.5 -84.5t-17.5 -88.5t-8 -92q51 0 106 13t107.5 29l99 29t80.5 13q45 0 69.5 -25t24.5 -59
q0 -35 -24.5 -59.5t-69.5 -24.5q-34 0 -80.5 12t-99 27t-107.5 27.5t-106 13.5q0 -66 12 -129.5t27 -120l27 -103.5t12 -81q0 -45 -22.5 -69.5t-57.5 -24.5q-34 0 -57 24.5t-23 69.5q0 34 12 81l26.5 103.5t26.5 120t13 129.5q-51 -1 -106.5 -13.5t-108 -27.5t-99 -27
t-80.5 -12q-45 0 -69.5 24.5t-24.5 59.5q0 34 24.5 59t69.5 25q34 0 80.5 -13l99 -29t108 -29t106.5 -13q-1 47 -9 92t-17.5 88.5t-17.5 84.5t-8 79q0 39 8 80t17.5 84t17.5 88.5t9 93.5q-51 -1 -106.5 -14t-108 -28.5l-99 -28.5t-80.5 -13q-45 0 -69.5 25t-24.5 59
q0 35 24.5 59.5t69.5 24.5z" />
    <glyph glyph-name="section" unicode="&#xa7;" horiz-adv-x="1116" 
d="M92 733q0 58 11 104t29.5 82t44 63t54.5 46q-18 52 -18 115q0 67 25.5 121.5t72.5 93.5t114 60.5t150 21.5q53 0 91 -9t68 -19.5l56 -19t56 -8.5q28 0 42.5 15.5t14.5 40.5h6v-326h-6q-15 67 -40 125.5t-63.5 101t-93.5 67t-131 24.5q-57 0 -101.5 -17t-75 -46t-46.5 -67
t-16 -81q0 -75 29.5 -132t78 -103t110 -84.5l126 -76.5t126.5 -78.5t110.5 -90.5t78 -113t29.5 -146q0 -58 -11 -104.5t-29.5 -82.5t-44.5 -63.5t-56 -46.5q9 -26 14.5 -53.5t5.5 -58.5q0 -67 -25.5 -121.5t-72.5 -93.5t-114 -60.5t-150 -21.5q-53 0 -91 8.5t-68 19l-56 19
t-56 8.5q-28 0 -42.5 -15t-14.5 -40h-6v325h6q15 -68 40 -125.5t63.5 -100.5t93.5 -67t131 -24q57 0 101.5 17t75 45.5t46.5 67t16 81.5q0 74 -29.5 131t-78 103t-110.5 84.5l-126.5 76.5t-126 79t-110 91t-78 112.5t-29.5 145.5zM141 836q0 -69 27 -123.5t71.5 -99.5
t103 -83t122 -74l128 -72.5t121 -77.5t100.5 -90t67 -110q43 31 68.5 77t25.5 112q0 69 -27 123.5t-71.5 99.5t-103 83t-122.5 73.5l-128.5 71.5t-121 77t-101 89.5t-67.5 109.5q-43 -29 -67.5 -75t-24.5 -111z" />
    <glyph glyph-name="paragraph" unicode="&#xb6;" horiz-adv-x="1153" 
d="M950 1427h-293v-1427h-6v684h-57q-108 0 -201.5 29.5t-162.5 81t-108.5 121.5t-39.5 151t33.5 148t96 116t152 76t201.5 27h527v-7h-136v-1427h-6v1427zM651 1427h-41q-90 0 -156 -29t-109 -79t-64 -116.5t-21 -141.5q0 -77 20.5 -144.5t64 -118t111 -79.5t162.5 -29h33
v737z" />
    <glyph glyph-name="Omega" unicode="&#x3a9;" horiz-adv-x="1442" 
d="M248 741q0 -119 16.5 -213.5t44 -168t62.5 -128.5t72 -94q86 -92 196 -129v-8h-494l-104 295h6q20 -51 59 -85.5t92.5 -55.5t119.5 -30t141 -9q-66 37 -136.5 96t-128.5 137.5t-95.5 177.5t-37.5 217q0 148 48.5 278t135.5 226t208.5 151.5t267.5 55.5q160 0 283.5 -54.5
t206.5 -149t126 -221.5t43 -273q0 -119 -36.5 -219.5t-94 -182t-127 -142t-135.5 -97.5q75 0 140.5 9t118 30t91 55.5t58.5 85.5h6l-105 -295h-493v8q109 35 195 125q37 38 72 92t62.5 127.5t44.5 167.5t17 213q0 141 -28.5 270.5t-87 227.5t-147.5 156.5t-210 58.5
q-128 0 -218 -55.5t-146.5 -151t-82.5 -224t-26 -274.5z" />
    <glyph glyph-name="Omega" unicode="&#x2126;" horiz-adv-x="1442" 
d="M248 741q0 -119 16.5 -213.5t44 -168t62.5 -128.5t72 -94q86 -92 196 -129v-8h-494l-104 295h6q20 -51 59 -85.5t92.5 -55.5t119.5 -30t141 -9q-66 37 -136.5 96t-128.5 137.5t-95.5 177.5t-37.5 217q0 148 48.5 278t135.5 226t208.5 151.5t267.5 55.5q160 0 283.5 -54.5
t206.5 -149t126 -221.5t43 -273q0 -119 -36.5 -219.5t-94 -182t-127 -142t-135.5 -97.5q75 0 140.5 9t118 30t91 55.5t58.5 85.5h6l-105 -295h-493v8q109 35 195 125q37 38 72 92t62.5 127.5t44.5 167.5t17 213q0 141 -28.5 270.5t-87 227.5t-147.5 156.5t-210 58.5
q-128 0 -218 -55.5t-146.5 -151t-82.5 -224t-26 -274.5z" />
    <glyph glyph-name="pi" unicode="&#x3c0;" horiz-adv-x="987" 
d="M670 1032h-353v-1026h127v-6h-413v6h129v1026h-129v6h925v-6h-129v-1026h129v-6h-413v6h127v1026z" />
    <glyph glyph-name="grave" unicode="`" 
d="M311 1442q-9 3 -16.5 9.5t-7.5 14.5q0 10 5 14.5t13 4.5q6 0 11 -1t10 -3q35 -15 74.5 -36.5l85 -46.5l98 -52t112.5 -54l-2 -6q-122 57 -216.5 92z" />
    <glyph glyph-name="acute" unicode="&#xb4;" 
d="M713 1442l-166.5 -64t-216.5 -92l-2 6q60 27 112.5 54l98 52l85 46.5t74.5 36.5q5 2 10 3t11 1q8 0 13 -4.5t5 -14.5q0 -8 -7.5 -14.5t-16.5 -9.5z" />
    <glyph glyph-name="circumflex" unicode="&#x2c6;" 
d="M532 1495q28 -24 47.5 -43l41.5 -41l52.5 -51t82.5 -72l-4 -4l-60.5 49l-45.5 34.5l-35.5 25l-30.5 20.5l-31.5 21.5t-36.5 27.5q-31 -24 -52.5 -38.5l-45.5 -31l-57 -40.5t-85 -68l-4 4q52 43 82 71.5l51.5 50.5l41 41.5t49.5 43.5q9 8 20.5 8t19.5 -8z" />
    <glyph glyph-name="caron" unicode="&#x2c7;" 
d="M532 1305q-8 -8 -19.5 -8t-20.5 8q-30 24 -49.5 43.5l-41 41l-51.5 50t-82 71.5l4 5q52 -44 85 -68l57 -40.5l45.5 -31t52.5 -39.5q20 16 36.5 28l31.5 22l30.5 20.5l35.5 25l45.5 34.5l60.5 49l4 -5q-52 -43 -82.5 -71.5l-52.5 -50.5l-41.5 -41t-47.5 -43z" />
    <glyph glyph-name="tilde" unicode="&#x2dc;" 
d="M686 1346q63 0 104.5 29.5t73.5 101.5h6q-17 -39 -35.5 -69.5t-42 -51t-53.5 -31t-69 -10.5q-44 0 -76.5 10.5t-59 27t-49 35l-44.5 35t-47 27t-56 10.5q-63 0 -104.5 -30t-73.5 -101h-6q17 39 35.5 69.5t42 51t53.5 31t69 10.5q34 0 61 -10.5t50.5 -27t46 -35t48 -35
t56 -27t70.5 -10.5z" />
    <glyph glyph-name="dieresis" unicode="&#xa8;" 
d="M449 1339q0 -45 -29.5 -74.5t-71.5 -29.5q-43 0 -70.5 28.5t-27.5 73.5q0 47 29 77t69 30q45 0 73 -29t28 -76zM774 1339q0 -45 -29 -74.5t-71 -29.5q-44 0 -71.5 28.5t-27.5 73.5q0 23 8 42.5t21.5 34t31.5 22.5t38 8q45 0 72.5 -29t27.5 -76z" />
    <glyph glyph-name="macron" unicode="&#xaf;" 
d="M819 1370q-70 0 -113 -1.5t-74 -3.5t-57.5 -3.5t-62.5 -1.5q-39 0 -65.5 1.5t-56.5 3.5t-71 3.5t-108 1.5v6q67 0 108 1.5t71 3.5t56.5 3.5t65.5 1.5q36 0 62.5 -1.5t57.5 -3.5t74 -3.5t113 -1.5v-6z" />
    <glyph glyph-name="breve" unicode="&#x2d8;" 
d="M512 1319q53 0 101.5 10.5t89 32t72 54t50.5 77.5h6q-42 -99 -121 -151t-198 -52t-198 52t-121 151h6q19 -45 50.5 -77.5t72 -54t89 -32t101.5 -10.5z" />
    <glyph glyph-name="ring" unicode="&#x2da;" 
d="M315 1397q0 40 15 75t40.5 61t60.5 41t75 15t75 -15t61 -41t41 -61t15 -75t-15 -75t-41 -60.5t-61 -40.5t-75 -15t-75 15t-60.5 40.5t-40.5 60.5t-15 75zM348 1397q0 -38 10 -71.5t29.5 -59t49.5 -40t69 -14.5t69 14.5t50 40t30.5 59t10.5 71.5q0 37 -10.5 71t-30.5 59.5
t-50 40.5t-69 15t-69 -15t-49.5 -40.5t-29.5 -59.5t-10 -71z" />
    <glyph glyph-name="hungarumlaut" unicode="&#x2dd;" 
d="M664 1520q-63 -42 -151 -94.5t-196 -129.5l-4 4q55 38 101 74.5l86.5 69l75.5 61t67 49.5q8 7 19 9q8 2 14 -1.5t8 -13.5q2 -8 -4.5 -15.5t-15.5 -12.5zM780 1384q-71 -29 -166 -63.5t-217 -91.5l-2 6q61 27 113 54l98 51.5l85.5 46t74.5 36.5q5 2 9.5 3t10.5 1
q19 0 19 -18q0 -8 -7.5 -14.5t-17.5 -10.5z" />
    <glyph glyph-name="dotaccent" unicode="&#x2d9;" 
d="M610 1339q0 -45 -29 -74.5t-71 -29.5q-43 0 -70.5 28.5t-27.5 73.5q0 47 29 77t69 30q45 0 72.5 -29t27.5 -76z" />
    <glyph glyph-name="cedilla" unicode="&#xb8;" 
d="M496 -4h6l-148 -156q13 8 32 15q16 6 40.5 11t56.5 5q38 0 71 -7t57.5 -21.5t38.5 -37t14 -53.5t-15 -57t-41 -44.5t-62.5 -29t-78.5 -10.5t-73.5 9.5t-52.5 24.5t-31.5 32.5t-10.5 33.5q0 17 12 30t29 13q20 0 31.5 -11.5t11.5 -27.5q0 -17 -12.5 -27t-26.5 -10
q-11 0 -17 4.5t-8 4.5q-4 0 -4 -4q0 -7 8.5 -18.5t25 -22t42 -18t58.5 -7.5q83 0 124 36t41 93q0 60 -40 89.5t-111 29.5q-29 0 -50 -5t-34 -11q-16 -7 -25 -15h-12z" />
    <glyph glyph-name="ogonek" unicode="&#x2db;" 
d="M528 4l2 -4q-53 -12 -93 -38q-18 -11 -34.5 -25.5t-29.5 -34t-21 -43.5t-8 -54q0 -34 11 -62t34.5 -48.5t60.5 -31.5t89 -11q38 0 67 9t48.5 22t29.5 26t10 21q0 2 -1 4t-3 2t-9 -5t-19 -5q-17 0 -31.5 12t-14.5 31q0 17 13.5 32t38.5 15q18 0 31.5 -16.5t13.5 -35.5
t-12 -40t-36.5 -38t-61 -28.5t-85.5 -11.5q-48 0 -88.5 10.5t-69.5 31t-45 49.5t-16 66q0 30 9 54.5t24 44t34 34t39 25.5q47 26 107 39z" />
    <glyph glyph-name="gravecomb" unicode="&#x300;" horiz-adv-x="1382" 
d="M489 1735q-9 3 -16.5 9.5t-7.5 14.5q0 10 5 14.5t13 4.5q7 0 11.5 -1t9.5 -3q35 -15 74.5 -36.5l85 -46.5l98 -52t112.5 -54l-2 -6q-121 57 -216 92t-167 64z" />
    <glyph glyph-name="acutecomb" unicode="&#x301;" horiz-adv-x="1382" 
d="M870 1735q-71 -29 -166 -64t-217 -92l-2 6q61 27 113 54l98 52l85.5 46.5t74.5 36.5q5 2 9.5 3t11.5 1q8 0 13 -4.5t5 -14.5q0 -8 -7.5 -14.5t-17.5 -9.5z" />
    <glyph glyph-name="tildecomb" unicode="&#x303;" horiz-adv-x="1382" 
d="M866 1638q63 0 104.5 30t73.5 101h7q-17 -39 -36 -69t-42.5 -50.5t-53.5 -31t-69 -10.5q-44 0 -76.5 10.5t-59 27t-49 35l-44.5 35t-47 27t-56 10.5q-63 0 -104.5 -30t-73.5 -101h-6q17 39 35.5 69t42.5 51t54 31.5t69 10.5q34 0 61 -11t50.5 -27t46 -35t47.5 -35
t55.5 -27t70.5 -11z" />
    <glyph glyph-name="hookabovecomb" unicode="&#x309;" 
d="M-121 1180q-6 18 -9.5 33.5t-3.5 27.5q0 26 9 45.5t23 35.5t29.5 30.5t29.5 30.5t23 36t9 47q0 44 -28.5 71t-71.5 27q-23 0 -41 -5t-30.5 -12.5t-20 -15t-8.5 -11.5h-7q14 23 41.5 38t67.5 15q63 0 99 -31t36 -84q0 -29 -14.5 -49t-35.5 -36.5l-43.5 -33t-38 -38
t-19.5 -50.5t12 -71h-8z" />
    <glyph glyph-name="dotbelowcomb" unicode="&#x323;" horiz-adv-x="813" 
d="M108 -303q0 -23 -8 -42t-21.5 -33t-32 -22t-39.5 -8q-43 0 -70.5 29t-27.5 74q0 23 8 42.5t21.5 33.5t31 22t37.5 8q45 0 73 -29t28 -75z" />
    <glyph glyph-name="asciicircum" unicode="^" 
d="M766 127l-64 200.5l-50 152l-39.5 118.5l-34 99l-32.5 94l-34 104l-34 -104l-32 -94l-33.5 -99l-39.5 -118.5l-50 -152l-65 -200.5l-6 2l65 207l47.5 156l36 121.5l30 103l30 100l35.5 113.5q5 16 16 16t16 -16l35.5 -113.5l30 -100l30 -103l36 -121.5l47.5 -156l65 -207
z" />
    <glyph glyph-name="asciitilde" unicode="~" 
d="M713 483q72 0 119.5 32.5t85.5 105.5h6q-20 -40 -41.5 -70.5t-48.5 -51.5t-61 -31.5t-79 -10.5q-50 0 -87.5 11t-68 28t-56 36.5t-51 36.5t-54 28t-64.5 11q-72 0 -119.5 -32.5t-84.5 -104.5h-7q19 40 41 70.5t49 51.5t61 31.5t79 10.5q39 0 70 -11.5t58 -28t53 -36.5
t55 -36.5t64 -28t81 -11.5z" />
    <glyph glyph-name="brokenbar" unicode="&#xa6;" horiz-adv-x="436" 
d="M221 1495q0 -93 1.5 -150.5t3.5 -99t3.5 -77t1.5 -83.5q0 -35 -0.5 -62t-2 -52.5t-2.5 -52.5t-2.5 -60.5t-2 -77.5t-0.5 -104h-6q0 60 -0.5 104t-2 77.5t-2.5 60.5t-2.5 52.5t-2 52.5t-0.5 62q0 48 1.5 83.5t3.5 77t3.5 99t1.5 150.5h6zM221 514q0 -93 1.5 -150.5
t3.5 -99t3.5 -77t1.5 -83.5q0 -35 -0.5 -62t-2 -52.5t-2.5 -52.5t-2.5 -60.5t-2 -77.5t-0.5 -104h-6q0 60 -0.5 104t-2 77.5t-2.5 60.5t-2.5 52.5t-2 52.5t-0.5 62q0 48 1.5 83.5t3.5 77t3.5 99t1.5 150.5h6z" />
    <glyph glyph-name="backslash" unicode="\" horiz-adv-x="639" 
d="M88 1481l62 -201l48 -150l38 -116l32 -97.5l30.5 -94l33.5 -107.5l35 -116l28.5 -98.5l27.5 -98l32.5 -114l43 -145.5l58.5 -194h-6l-60 194l-47 145.5l-37.5 114l-32.5 98l-32.5 98.5l-36.5 116l-31.5 107.5l-27 94l-27.5 97.5l-32.5 116l-44 150l-60.5 201h6z" />
    <glyph glyph-name="copyright" unicode="&#xa9;" horiz-adv-x="1724" 
d="M1622 719q0 -106 -26 -202.5t-74 -179t-116.5 -149t-153 -113.5t-183 -72.5t-207.5 -25.5t-208 25.5t-183.5 72t-152.5 113t-116 148.5t-74 177.5t-26 201.5q0 160 57 295.5t158.5 234.5t241 155t303.5 56q163 0 302.5 -56t241 -154.5t159 -233.5t57.5 -293zM1538 717
q0 164 -44 299t-129.5 231.5t-212 149.5t-290.5 53t-290 -53t-211.5 -149.5t-130 -231.5t-44.5 -299t44.5 -299t130 -231.5t211.5 -149.5t290 -53t290.5 53t212 149.5t129.5 231.5t44 299zM961 303q45 0 87 13t75.5 38.5t56 62t28.5 83.5h9q-6 -48 -30.5 -89t-65.5 -70
t-98 -45.5t-128 -16.5q-95 0 -174 34.5t-135.5 94.5t-87.5 141t-31 174q0 92 34.5 174t94.5 143.5t141.5 97.5t175.5 36q77 0 133 -18.5t92.5 -49t54 -70.5t17.5 -82q0 -22 -7.5 -41.5t-20 -34.5t-30 -23.5t-38.5 -8.5q-46 0 -73 27t-27 67q0 23 8 40.5t21.5 29.5t31 18
t35.5 6q22 0 36 -7t19 -7q9 0 9 8q0 14 -12.5 37t-40.5 44.5t-72.5 37.5t-108.5 16q-73 0 -131.5 -30t-99 -85.5t-62.5 -136t-22 -180.5q0 -92 23.5 -170.5t67.5 -135.5t106 -89.5t139 -32.5z" />
    <glyph glyph-name="registered" unicode="&#xae;" horiz-adv-x="1724" 
d="M1622 719q0 -106 -26 -202.5t-74 -179t-116.5 -149t-153 -113.5t-183 -72.5t-207.5 -25.5t-208 25.5t-183.5 72t-152.5 113t-116 148.5t-74 177.5t-26 201.5q0 160 57 295.5t158.5 234.5t241 155t303.5 56q163 0 302.5 -56t241 -154.5t159 -233.5t57.5 -293zM1538 717
q0 164 -44 299t-129.5 231.5t-212 149.5t-290.5 53t-290 -53t-211.5 -149.5t-130 -231.5t-44.5 -299t44.5 -299t130 -231.5t211.5 -149.5t290 -53t290.5 53t212 149.5t129.5 231.5t44 299zM1204 442v-48t3.5 -34.5t11.5 -20.5t24 -7q23 0 36 17.5t13 43.5v25h6v-25
q0 -20 -5.5 -40t-18.5 -36t-33.5 -26t-50.5 -10q-35 0 -60 11.5t-41 33t-23 51t-7 65.5q0 61 -4.5 111t-23.5 85.5t-58.5 55t-108.5 19.5h-147v-414h90v-6h-318v6h91v848h-91v6h412q78 0 141 -16t106.5 -44.5t67 -68.5t23.5 -88q0 -45 -23 -83.5t-64 -67.5t-97 -48t-121 -24
q141 -10 205.5 -80t64.5 -191zM717 719h147q66 0 110 16.5t71 45t38 68t11 85.5q0 45 -11.5 83.5t-38 67.5t-69.5 45.5t-107 16.5h-151v-428z" />
    <glyph glyph-name="trademark" unicode="&#x2122;" horiz-adv-x="1737" 
d="M324 1530q-55 0 -93.5 -10t-63.5 -32t-39 -57t-19 -85h-7v229h4q0 -17 10.5 -28t28.5 -11h543q17 0 28.5 11t14.5 28h4v-229h-6q-5 50 -18 85t-38.5 57t-64.5 32t-94 10h-33v-723h74v-6h-274v6h73v723h-30zM1655 1536v-6h-70v-721h70v-6h-271v6h74v702l-217 -712h-61
l-265 714v-575q0 -72 25.5 -102t60.5 -31v-6h-167v6q29 0 51 30.5t22 102.5v592h-73v6h208l226 -625l190 625h197z" />
    <glyph glyph-name="at" unicode="@" horiz-adv-x="1724" 
d="M1526 117q-55 -71 -140 -126q-36 -24 -83 -46.5t-105 -40t-127.5 -28.5t-150.5 -11q-116 0 -222 27t-197 76.5t-164.5 119.5t-125.5 157t-80.5 188.5t-28.5 213.5q0 113 28.5 215.5t81 190t126.5 158t165 120t197 76.5t222 27q170 0 308 -54.5t235.5 -148.5t150.5 -220
t53 -270q0 -123 -32 -220.5t-86.5 -166t-126 -105t-150.5 -36.5q-34 0 -67 9t-59.5 27.5t-44 48t-20.5 71.5q-13 -28 -37 -56.5t-58 -52t-76.5 -38.5t-92.5 -15q-45 0 -88 13.5t-76.5 40t-54 64.5t-20.5 87q0 59 22.5 98t58.5 65.5t82.5 44.5t95.5 34.5t95.5 34.5t82.5 45.5
t58.5 68t22.5 100.5q0 182 -217 182q-56 0 -98.5 -17.5t-72 -40.5t-44.5 -47t-15 -36q0 -3 3.5 -5.5t7.5 -2.5q3 0 16 6t35 6q15 0 29.5 -5.5t26 -16t19 -26.5t7.5 -36q0 -37 -24.5 -61.5t-61.5 -24.5q-39 0 -63.5 26t-24.5 68q0 38 19 77.5t55 72t89.5 53.5t122.5 21
q73 0 130.5 -23.5t97.5 -66t61 -102.5t21 -132v-432q0 -53 26 -81t82 -28q58 0 118.5 34.5t109 100t79.5 160.5t31 215q0 143 -53 268t-149.5 218t-233.5 146.5t-305 53.5q-174 0 -306.5 -62t-222.5 -168t-136 -247.5t-46 -300.5t45.5 -300.5t135 -247.5t222 -168t306.5 -62
q80 0 148.5 10.5t125.5 27.5t103 39.5t82 45.5q84 54 139 123h8zM1081 795q-24 -39 -59.5 -65.5t-74 -48l-77.5 -42.5t-69.5 -49.5t-50 -68.5t-19.5 -99q0 -38 12 -68.5t33.5 -52t51.5 -33.5t67 -12q43 0 77.5 14t58.5 37.5t37 54t13 64.5v369z" />
    <glyph glyph-name="dollar" unicode="$" horiz-adv-x="1051" 
d="M543 1636v-182q65 -1 110.5 -13t81.5 -26l67.5 -25.5t69.5 -11.5q35 0 53.5 21t18.5 55h6v-428h-6q-19 91 -48.5 167.5t-76.5 132.5t-114.5 87.5t-161.5 32.5v-637l105.5 -41.5t103 -44.5t93 -54t75.5 -69.5t50.5 -91.5t18.5 -119q0 -90 -35 -164.5t-96 -128.5
t-142 -84.5t-173 -31.5v-146h-6v146q-55 0 -97.5 8.5t-76 21t-60.5 26.5l-52.5 26t-51.5 20t-58 8q-35 0 -53 -21t-18 -53h-9v428h9q17 -99 57 -182.5t100 -144t138 -94.5t172 -35v643l-106.5 42t-103 45.5t-93 55t-75.5 70.5t-50.5 92.5t-18.5 120.5q0 90 31.5 163
t89.5 124.5t141 80t185 29.5v182h6zM852 289q0 73 -25 126.5t-68 92.5t-99 67.5t-117 53.5v-641q76 1 133.5 24t96.5 63.5t59 95t20 118.5zM225 1155q0 -75 25.5 -128.5t68.5 -93.5t99.5 -68.5t118.5 -53.5v635q-76 -1 -134.5 -24.5t-98 -63.5t-59.5 -92.5t-20 -110.5z" />
    <glyph glyph-name="cent" unicode="&#xa2;" horiz-adv-x="965" 
d="M563 1233v-168h12q83 0 144 -22.5t100.5 -59t58.5 -82.5t19 -92q0 -26 -8 -48t-22 -39t-33 -26.5t-41 -9.5q-50 0 -79.5 30.5t-29.5 74.5q0 25 9 44.5t23 32.5t32.5 20t37.5 7q25 0 41 -8t21 -8q10 0 10 10q0 16 -14 44t-44.5 55t-78.5 47t-115 20h-22t-21 -2v-1039
q31 -6 64 -6q48 0 93.5 16t82 47t61 75.5t31.5 101.5h8q-6 -58 -31.5 -106.5t-69 -84t-104 -56t-135.5 -21.5v-146h-6v146h-2q-102 0 -187 42t-146.5 115t-95.5 171t-34 210q0 109 35 206.5t97.5 171.5t147.5 119t185 50v168h6zM262 528q0 -100 20.5 -186.5t58.5 -154
t93 -112t123 -59.5v1035q-69 -11 -123.5 -52t-93 -108.5t-58.5 -159t-20 -203.5z" />
    <glyph glyph-name="sterling" unicode="&#xa3;" horiz-adv-x="1116" 
d="M852 590h-360q0 -7 1 -14q0 -6 0.5 -13.5t0.5 -15.5q0 -57 -16 -102t-43 -78t-63.5 -52.5t-76.5 -25.5q74 -8 140 -36t132 -59t136 -55t151 -24q81 3 140 54t91 134h7l-138 -344h-53q-90 0 -161 24t-128.5 59.5t-105.5 77.5l-92.5 77.5t-88.5 59.5t-94 24
q-35 0 -60.5 -8.5t-42.5 -22t-25.5 -30t-8.5 -32.5q0 -10 10 -10q5 0 21 8.5t41 8.5q19 0 37.5 -7t32.5 -20t23 -33t9 -45q0 -43 -29.5 -70.5t-78.5 -27.5q-45 0 -75 33t-30 84q0 40 13 73.5t38 57.5t61.5 37.5t84.5 13.5q36 0 70.5 10.5t61.5 32.5t43.5 56t16.5 81
q0 32 -5.5 61.5t-16.5 57.5h-266v6h264q-16 39 -38.5 74.5t-47.5 71l-49.5 73t-44 80.5t-31.5 94t-12 113q0 72 28 134t78.5 107t121.5 71t157 26q53 0 94.5 -9t76.5 -19.5l65.5 -19t60.5 -8.5q27 0 42 15.5t15 40.5h6v-350h-6q-14 84 -41.5 147.5t-70.5 107t-103 65.5
t-139 22q-63 0 -112 -20.5t-82.5 -56t-51 -84t-17.5 -104.5q0 -68 10 -121.5t25.5 -99t35 -85.5l38.5 -81t35 -85.5t26 -98.5h363v-6z" />
    <glyph glyph-name="florin" unicode="&#x192;" horiz-adv-x="588" 
d="M317 66q0 -79 -17 -152.5t-50 -130.5t-82 -91t-113 -34q-40 0 -74.5 11.5t-60 33.5t-40.5 53.5t-15 71.5q0 28 9 52.5t24 41.5t35 27t42 10q50 0 76.5 -29.5t26.5 -72.5q0 -26 -9 -45.5t-23 -32.5t-33 -20t-38 -7q-24 0 -40 8.5t-21 8.5q-10 0 -10 -11q0 -14 11 -30.5
t31 -31t47.5 -24.5t61.5 -10q36 0 72 14t65 39.5t47.5 62.5t18.5 83t-7.5 86.5t-18 80.5t-23.5 83t-23.5 94t-18 113t-7.5 141v573h-129v6h129v49q0 88 17.5 159.5t52 122.5t85 78.5t115.5 27.5q56 0 97.5 -16.5t68.5 -45.5t40 -67.5t13 -81.5q0 -27 -8.5 -50t-23.5 -40.5
t-34.5 -27t-41.5 -9.5q-48 0 -76.5 28.5t-28.5 71.5q0 25 8.5 45t22.5 33.5t33 20.5t39 7q24 0 40 -8t21 -8q10 0 10 10q0 16 -9 39t-30 44t-55.5 35.5t-85.5 14.5q-46 0 -84.5 -16t-66 -45t-43 -68.5t-15.5 -87.5q0 -63 13 -113t28 -102h287v-6h-285q10 -32 19.5 -67
t17 -77t12 -92.5t4.5 -113.5v-616z" />
    <glyph glyph-name="yen" unicode="&#xa5;" horiz-adv-x="1329" 
d="M1149 610h-416v-604h127v-6h-424v6h129v604h-397v6h397v228l-6 10h-391v6h387l-367 567h-106v7h436v-7h-137l352 -550l228 327q31 45 48 85.5t14 71t-29 48.5t-81 18h-14v7h348v-7h-8q-36 0 -71 -18.5t-68.5 -49.5t-66.5 -71.5t-64 -85.5l-236 -338v-4h416v-6h-416v-238
h416v-6z" />
    <glyph glyph-name="ordfeminine" unicode="&#xaa;" 
d="M317 1321q15 0 29 -5t25.5 -15t18.5 -24.5t7 -33.5q0 -34 -22.5 -57t-61.5 -23q-35 0 -57.5 25.5t-22.5 62.5q0 32 17 66.5t50 63t81.5 47t110.5 18.5q67 0 119.5 -20t88.5 -57t55 -88.5t19 -115.5v-362q0 -32 18.5 -49t43.5 -17q27 0 46.5 17t24.5 49h4q-2 -15 -9 -35.5
t-22 -38.5t-38.5 -30.5t-57.5 -12.5q-114 0 -131 131q-12 -24 -34 -47t-52 -42t-68 -30.5t-83 -11.5q-42 0 -79.5 11.5t-66 34t-45 55t-16.5 75.5q0 50 19.5 83.5t52 56.5t73.5 38.5t84.5 29t84.5 29t73.5 39t52 57.5t19.5 85q0 75 -51 115.5t-148 40.5q-50 0 -88 -14.5
t-63.5 -34.5t-38.5 -40t-13 -32q0 -4 6 -4q3 0 15 5t30 5zM651 1176q-23 -29 -55.5 -49.5t-67.5 -38.5l-69.5 -36.5t-61.5 -42.5t-44 -57t-17 -80q0 -65 41.5 -103t109.5 -38q38 0 68.5 12t51.5 31.5t32.5 45.5t11.5 54v302z" />
    <glyph glyph-name="ordmasculine" unicode="&#xba;" 
d="M741 1065q0 78 -14 146t-42 118.5t-70 79.5t-97 29q-59 0 -103 -28t-73 -77t-43 -116.5t-14 -145.5q0 -77 14 -145t42 -118.5t70.5 -80t98.5 -29.5q58 0 101.5 28t72.5 77.5t43 116.5t14 145zM872 1073q0 -79 -28.5 -149t-78 -122t-115 -82t-140.5 -30q-78 0 -143 29
t-112.5 79t-74 118.5t-26.5 146.5q0 80 28.5 150t78 122.5t116 82.5t141.5 30q76 0 141 -29t112 -79.5t74 -119t27 -147.5z" />
    <glyph glyph-name="numbersign" unicode="#" 
d="M952 684q-44 0 -79.5 -0.5t-64.5 -1t-52.5 -1t-44.5 -1.5q-5 -37 -9 -73t-12 -83q-8 -38 -13 -69.5t-11 -59.5q40 -2 95.5 -3t143.5 -1v-6q-89 0 -145 -1.5l-96 -2.5l-14.5 -67.5t-15.5 -78.5l-18 -100.5t-22 -134.5h-6l20.5 134.5t14 100l9.5 77.5t9 67q-37 -2 -69.5 -3
t-75.5 -1q-51 0 -86.5 1t-73.5 3l-14.5 -67t-15.5 -77.5l-18 -100t-22 -134.5h-6l20.5 134.5t14 100.5l9.5 78.5t9 67.5q-40 2 -92.5 3t-134.5 1v6q83 0 136 1t93 3q3 28 8 59.5t13 69.5l26 156q-40 1 -93 2.5t-136 1.5v6q85 0 139 1t95 3q5 28 11.5 61t14 75l16.5 95.5
l21 123.5h6l-19 -123.5l-14 -95t-10 -74.5t-8 -62l37 2l36.5 2t39 1.5t45.5 0.5q44 0 78.5 -2.5t72.5 -3.5q6 29 12 62l14 74.5t17 95l21 123.5h6q-12 -70 -20 -123.5t-13.5 -95.5l-9.5 -75t-8 -61q40 -2 96 -3t143 -1v-6zM496 401q44 0 77 -2.5t70 -3.5q3 29 8 60t13 69
l26 154q-37 -2 -70 -3t-77 -1q-51 0 -86.5 1t-73.5 3q-5 -35 -9 -71t-12 -83l-24 -129l37 2l36.5 2t39 1.5t45.5 0.5z" />
    <glyph glyph-name="zero" unicode="0" horiz-adv-x="1200" 
d="M936 518q0 112 -20 209.5t-61.5 170t-104 114t-146.5 41.5q-88 0 -152.5 -40t-106.5 -110.5t-62.5 -167t-20.5 -209.5q0 -112 20 -210t61.5 -170.5t104 -114t146.5 -41.5q88 0 152.5 40t106.5 111t62.5 167.5t20.5 209.5zM1108 528q0 -113 -41 -212.5t-111 -173.5
t-163.5 -117t-198.5 -43q-109 0 -201 41.5t-159 113.5t-104.5 169.5t-37.5 209.5q0 113 40.5 212t110.5 173t163 117t198 43q109 0 201.5 -41t159.5 -113t105 -169.5t38 -209.5z" />
    <glyph glyph-name="one" unicode="1" horiz-adv-x="506" 
d="M41 989v6l297 58v-1047h127v-6h-424v6h129v1008z" />
    <glyph glyph-name="two" unicode="2" horiz-adv-x="1083" 
d="M127 731q0 54 25 112t75 106t124.5 79t172.5 31t180 -20t141.5 -60.5t92.5 -100.5t33 -141q0 -75 -27 -134t-77.5 -110t-123 -97t-163.5 -95l-291 -166h340q84 0 149 5.5t114 23t82.5 49t53.5 82.5h6l-104 -295h-848l461 326q119 84 184.5 183.5t65.5 231.5
q0 72 -17.5 128.5t-54 96t-92.5 60.5t-133 21q-58 0 -105.5 -13t-84 -34t-63 -47t-44 -51.5t-25.5 -48t-8 -36.5q0 -10 10 -10q5 0 21 8t41 8q19 0 37.5 -7t32.5 -20t23 -32.5t9 -44.5q0 -43 -29.5 -74t-79.5 -31q-45 0 -74.5 33t-29.5 84z" />
    <glyph glyph-name="three" unicode="3" horiz-adv-x="1083" 
d="M518 1059q98 0 180.5 -20t142 -60.5t93 -100.5t33.5 -141q0 -68 -30.5 -126t-84.5 -103t-128.5 -74.5t-162.5 -40.5q102 -5 185.5 -29t142.5 -65.5t91 -99t32 -127.5q0 -81 -35.5 -149t-101.5 -117.5t-159.5 -77t-209.5 -27.5q-108 0 -185.5 26.5t-128 67t-74.5 90
t-24 95.5q0 25 8 47.5t22 39t33 26t42 9.5q49 0 78.5 -30.5t29.5 -73.5q0 -26 -9 -45t-23 -32.5t-32.5 -20t-37.5 -6.5q-25 0 -41 8t-21 8q-10 0 -10 -10q0 -20 19.5 -51.5t60.5 -60.5t103.5 -50t148.5 -21q90 0 160 26.5t117.5 71.5t72.5 106t25 130q0 72 -23.5 133.5
t-69.5 107t-114.5 71.5t-159.5 26h-145v6h143q86 2 146 29t98 72t55.5 105.5t17.5 129.5q0 75 -14 134t-45.5 100.5t-83.5 63.5t-127 22q-76 0 -136 -24.5t-104 -67t-73.5 -101t-44.5 -125.5h-6v326h6q0 -25 14.5 -40t42.5 -15q30 0 61 8.5l66.5 19t78 19t95.5 8.5z" />
    <glyph glyph-name="four" unicode="4" horiz-adv-x="1083" 
d="M805 131q52 2 91.5 10t68.5 24.5t50.5 44t37.5 69.5h6l-105 -279h-149v-293h127v-6h-406v6h129v293h-618l768 1085v-954zM655 129v735l-518 -735h518z" />
    <glyph glyph-name="five" unicode="5" horiz-adv-x="1083" 
d="M287 1001h327q84 0 149.5 5.5t114.5 23t82.5 49t53.5 82.5h6l-105 -295h-649l-102 -536q36 45 91 81q46 30 116 55.5t166 25.5q105 0 190 -23.5t145 -70t92.5 -116t32.5 -161.5q0 -89 -35.5 -166t-101 -133.5t-159 -88.5t-209.5 -32q-108 0 -185.5 29.5t-128 74t-74.5 97
t-24 98.5q0 25 8 47.5t22 39.5t33 26.5t41 9.5q50 0 79.5 -30.5t29.5 -74.5q0 -25 -9 -44.5t-23 -32.5t-33 -20t-38 -7q-24 0 -40 8t-21 8q-10 0 -10 -10q0 -20 19.5 -54t60 -67t103.5 -57.5t149 -24.5q90 0 159.5 30t117 82t72.5 123t25 152q0 86 -21 154t-63 115.5
t-106 72.5t-150 25q-82 0 -142 -23.5t-100 -51.5q-47 -33 -79 -74h-6z" />
    <glyph glyph-name="six" unicode="6" horiz-adv-x="1122" 
d="M598 786q101 0 183 -25.5t139.5 -74t88.5 -120t31 -163.5q0 -89 -36.5 -165.5t-100 -133t-148.5 -88.5t-182 -32q-104 0 -191 30.5t-149 93.5t-96.5 159t-34.5 227q0 125 30 233t81 198t118 162.5t141.5 127.5t151.5 92t148 57v-8q-74 -21 -153.5 -66t-149 -124.5
t-122 -199t-71.5 -288.5q25 18 57.5 37.5t73 35t88.5 25.5t103 10zM573 -8q74 0 129.5 32t92 86.5t55 126t18.5 150.5q0 86 -19.5 156t-59 119.5t-100 76.5t-142.5 27q-46 0 -86 -8.5t-74 -22.5t-61.5 -31t-49.5 -34q-5 -39 -6.5 -80t-1.5 -86q0 -122 23.5 -217.5t65 -161
t97 -99.5t119.5 -34z" />
    <glyph glyph-name="seven" unicode="7" horiz-adv-x="1083" 
d="M700 446q-48 -84 -76.5 -163t-44 -152.5t-21.5 -140.5t-7 -127q-2 -90 -31 -136t-80 -46q-32 0 -53.5 20.5t-21.5 62.5q0 44 23 106t66 146t104 192.5l138 244.5l256 450h-477q-84 0 -149 -5.5t-114 -22.5t-82.5 -48.5t-53.5 -83.5h-6l104 295h862z" />
    <glyph glyph-name="eight" unicode="8" horiz-adv-x="1171" 
d="M586 -16q-116 0 -208 25.5t-155.5 72t-97 112t-33.5 146.5q0 70 31.5 130t89.5 104t141 70.5t185 31.5q-88 11 -160 38t-123.5 69t-80 97.5t-28.5 123.5q0 77 33.5 139.5t93 106.5t139.5 67.5t173 23.5q94 0 174.5 -21.5t139 -62.5t91.5 -102t33 -139q0 -68 -28.5 -125
t-80 -101.5t-123.5 -73.5t-159 -40q102 -5 184.5 -29.5t140.5 -66.5t89.5 -99.5t31.5 -128.5q0 -81 -33.5 -148.5t-97 -116t-155 -76t-207.5 -27.5zM586 -8q83 0 143.5 26t100 71.5t58.5 108t19 134.5q0 70 -21 131.5t-62.5 107.5t-102 73t-139.5 28q-80 1 -139.5 -25
t-99.5 -71t-59.5 -106t-19.5 -130q0 -73 19 -136.5t59 -110.5t100.5 -74t143.5 -27zM326 999q0 -64 13.5 -121.5t44 -102t79.5 -70.5t119 -27q71 -1 121.5 26.5t82 74t46 106.5t14.5 125q0 70 -14 129.5t-45.5 102.5t-81 67t-119.5 24q-71 0 -120.5 -25.5t-80.5 -70.5
t-45 -106t-14 -132z" />
    <glyph glyph-name="nine" unicode="9" horiz-adv-x="1122" 
d="M545 254q-102 0 -183.5 27t-139.5 77.5t-89 123.5t-31 165q0 89 36.5 164.5t100 130t148.5 85t182 30.5q105 0 191.5 -31t148.5 -94t96.5 -159t34.5 -226q0 -125 -30 -233t-81 -198.5t-118 -163t-141.5 -127.5t-151.5 -92.5t-147 -56.5v9q48 14 100 38t102.5 61.5
t97.5 90t85.5 123t66.5 160t41 202.5q-24 -18 -56.5 -37t-72.5 -34.5t-87.5 -25t-102.5 -9.5zM569 1049q-74 0 -129 -30.5t-92 -83t-55.5 -122.5t-18.5 -149q0 -86 19.5 -158t59.5 -123.5t100.5 -80t142.5 -28.5q45 0 84.5 8.5t73.5 22.5t62 31t50 35q3 38 5.5 79.5
t2.5 86.5q0 122 -24 217t-65 160.5t-96.5 100t-119.5 34.5z" />
    <glyph glyph-name="uni2007" unicode="&#x2007;" horiz-adv-x="1139" 
 />
    <glyph glyph-name="fraction" unicode="&#x2044;" horiz-adv-x="231" 
d="M436 1481l-82 -201l-59.5 -150l-45 -116l-37.5 -97.5l-36.5 -94l-42.5 -107.5l-49.5 -116l-44 -98.5l-44 -98l-50.5 -114l-63 -145.5l-81 -194h-6l79.5 194l58.5 145.5l44.5 114l38 98l39 98.5l47.5 116l45.5 107.5l41 94l42.5 97.5l50.5 116l64.5 150l84 201h6z" />
    <glyph glyph-name="percent" unicode="%" horiz-adv-x="1524" 
d="M1090 1481l-82 -201l-60 -150l-45.5 -116l-37 -97.5l-36.5 -94l-43 -107.5l-50 -116l-43.5 -98.5l-44 -98l-50 -114l-62.5 -145.5l-81 -194h-6l79 194l58 145.5l44.5 114l38.5 98l39.5 98.5l47.5 116l44.5 107.5l41 94l42.5 97.5l50.5 116l64.5 150l84 201h7zM1300 350
q0 77 -11.5 143.5t-34.5 116t-57.5 77.5t-80.5 28q-48 0 -84 -27t-59.5 -75t-35 -113.5t-11.5 -143.5q0 -77 11.5 -144t34.5 -116.5t57.5 -77.5t80.5 -28q48 0 84 27t59.5 75t35 114t11.5 144zM1442 358q0 -78 -26.5 -146.5t-72 -119.5t-106 -80.5t-127.5 -29.5
q-71 0 -130.5 28.5t-103 78t-68 116t-24.5 143.5q0 78 26.5 146t72 119t105.5 80.5t128 29.5q71 0 130.5 -28t103 -77.5t68 -116t24.5 -143.5zM598 1079q0 77 -11.5 143.5t-34.5 116t-57.5 77.5t-80.5 28q-48 0 -84 -27t-60 -75t-35.5 -113.5t-11.5 -143.5q0 -77 11.5 -144
t35 -116.5t58 -77.5t80.5 -28q48 0 84 27t59.5 75t35 114t11.5 144zM739 1087q0 -78 -26.5 -146.5t-71.5 -119.5t-105.5 -80.5t-127.5 -29.5q-71 0 -130.5 28.5t-103 78t-68 116t-24.5 143.5q0 78 26.5 146t71.5 119t105.5 80.5t128.5 29.5q70 0 130 -28t103 -77.5
t67.5 -116t24.5 -143.5z" />
    <glyph glyph-name="perthousand" unicode="&#x2030;" horiz-adv-x="2251" 
d="M1090 1481l-82 -201l-60 -150l-45.5 -116l-37 -97.5l-36.5 -94l-43 -107.5l-50 -116l-43.5 -98.5l-44 -98l-50 -114l-62.5 -145.5l-81 -194h-6l79 194l58 145.5l44.5 114l38.5 98l39.5 98.5l47.5 116l44.5 107.5l41 94l42.5 97.5l50.5 116l64.5 150l84 201h7zM1300 350
q0 77 -11.5 143.5t-34.5 116t-57.5 77.5t-80.5 28q-48 0 -84 -27t-59.5 -75t-35 -113.5t-11.5 -143.5q0 -77 11.5 -144t34.5 -116.5t57.5 -77.5t80.5 -28q48 0 84 27t59.5 75t35 114t11.5 144zM1442 358q0 -78 -26.5 -146.5t-72 -119.5t-106 -80.5t-127.5 -29.5
q-71 0 -130.5 28.5t-103 78t-68 116t-24.5 143.5q0 78 26.5 146t72 119t105.5 80.5t128 29.5q71 0 130.5 -28t103 -77.5t68 -116t24.5 -143.5zM598 1079q0 77 -11.5 143.5t-34.5 116t-57.5 77.5t-80.5 28q-48 0 -84 -27t-60 -75t-35.5 -113.5t-11.5 -143.5q0 -77 11.5 -144
t35 -116.5t58 -77.5t80.5 -28q48 0 84 27t59.5 75t35 114t11.5 144zM739 1087q0 -78 -26.5 -146.5t-71.5 -119.5t-105.5 -80.5t-127.5 -29.5q-71 0 -130.5 28.5t-103 78t-68 116t-24.5 143.5q0 78 26.5 146t71.5 119t105.5 80.5t128.5 29.5q70 0 130 -28t103 -77.5
t67.5 -116t24.5 -143.5zM2028 350q0 77 -11.5 143.5t-35 116t-58 77.5t-80.5 28q-48 0 -84 -27t-59.5 -75t-35 -113.5t-11.5 -143.5q0 -77 11.5 -144t34.5 -116.5t57.5 -77.5t80.5 -28q48 0 84 27t60 75t35.5 114t11.5 144zM2169 358q0 -78 -26.5 -146.5t-72 -119.5
t-106 -80.5t-127.5 -29.5q-71 0 -130.5 28.5t-103 78t-68 116t-24.5 143.5q0 78 26.5 146t72 119t105.5 80.5t128 29.5q71 0 130.5 -28t103 -77.5t68 -116t24.5 -143.5z" />
    <glyph glyph-name="plus" unicode="+" 
d="M516 948q0 -60 0.5 -104.5t1.5 -78.5t2 -60.5t2.5 -50.5t2 -48.5t1.5 -54.5q29 -1 53.5 -1.5t48.5 -2t50.5 -2.5t61 -2t78.5 -1.5t104 -0.5v-6q-60 0 -104 -1t-78.5 -2t-61 -2.5t-50.5 -2.5l-48.5 -2t-53.5 -1q-1 -32 -1.5 -57.5t-2 -50.5t-2.5 -51.5t-2 -59.5t-1.5 -76
t-0.5 -100h-6q0 57 -0.5 100t-2 76t-2.5 59.5t-2.5 51.5t-2 50.5t-0.5 57.5q-48 0 -84 1.5t-76.5 4t-95.5 4t-142 1.5v6q87 0 142 1.5t95.5 3t76.5 3t84 2.5q0 30 0.5 54.5t2 48.5t2.5 50.5t2.5 60.5t2 78.5t0.5 104.5h6z" />
    <glyph glyph-name="plusminus" unicode="&#xb1;" 
d="M516 1010q0 -81 1.5 -131.5t3 -87.5t3 -67.5t2.5 -70.5q29 -1 53.5 -1.5t48.5 -2t50.5 -2.5t61 -2t78.5 -1.5t104 -0.5v-6q-60 0 -104 -0.5t-78.5 -2t-61 -2.5t-50.5 -2.5t-48.5 -2t-53.5 -0.5q-1 -42 -2.5 -74t-3 -69t-3 -86t-1.5 -126h-6q0 77 -1.5 126t-3.5 86
t-3.5 69t-1.5 74q-48 0 -84 1.5t-76.5 3.5t-95.5 3.5t-142 1.5v6q87 0 142 1.5t95.5 3t76.5 3t84 2.5q0 40 1.5 70.5t3.5 67.5t3.5 87.5t1.5 131.5h6zM922 195q-62 0 -108 -1t-81 -2t-62.5 -2.5t-53 -2.5l-51.5 -2t-58 -1q-35 0 -62 1l-52 2t-51 2.5t-59.5 2.5t-77.5 2
t-104 1v6q60 0 104 0.5t77.5 2t59.5 2.5t51 2.5t52 2t62 0.5q32 0 58 -0.5t51.5 -2t53 -2.5t62.5 -2.5t81 -2t108 -0.5v-6z" />
    <glyph glyph-name="multiply" unicode="&#xd7;" 
d="M195 858l109.5 -107l80.5 -76l65 -60.5l62 -59.5l61.5 59.5l64.5 60.5l80.5 76l110.5 107l2 -2l-106.5 -110.5l-76.5 -80.5l-60.5 -64.5l-59.5 -61.5l63.5 -67l61.5 -66l75 -79.5l103 -105.5l-2 -2l-106.5 103l-79.5 75l-66 61.5t-65 63.5l-66 -63.5l-66.5 -61.5
l-79.5 -75l-105 -103l-2 2l102 105.5l75 79.5l62 66l64 67l-61 61.5l-61 64.5l-75.5 80.5l-105.5 110.5z" />
    <glyph glyph-name="divide" unicode="&#xf7;" 
d="M922 535q-93 0 -150.5 -1.5t-99 -4t-77 -4t-83.5 -1.5q-52 0 -89 1.5t-78 4t-97 4t-146 1.5v6q90 0 146 1.5t97 3.5t78 3.5t89 1.5q48 0 83.5 -1.5t77 -3.5t99 -3.5t150.5 -1.5v-6zM473 887q0 17 11 29t28 12t29 -12t12 -29t-12 -28t-29 -11t-28 11t-11 28zM473 186
q0 17 11 29t28 12t29 -12t12 -29t-12 -28t-29 -11t-28 11t-11 28z" />
    <glyph glyph-name="equal" unicode="=" 
d="M922 657q-62 0 -108 -0.5t-81 -2t-62.5 -2.5t-53 -2.5t-51.5 -2t-58 -0.5q-35 0 -62 0.5t-52 2t-51 2.5t-59.5 2.5t-77.5 2t-104 0.5v7q60 0 104 0.5t77.5 2t59.5 2.5t51 2.5t52 2t62 0.5q32 0 58 -0.5t51.5 -2t53 -2.5t62.5 -2.5t81 -2t108 -0.5v-7zM922 412
q-62 0 -108 -1t-81 -2t-62.5 -2.5t-53 -2.5l-51.5 -2t-58 -1q-35 0 -62 1l-52 2t-51 2.5t-59.5 2.5t-77.5 2t-104 1v6q60 0 104 0.5t77.5 2t59.5 2.5t51 2.5t52 2t62 0.5q32 0 58 -0.5t51.5 -2t53 -2.5t62.5 -2.5t81 -2t108 -0.5v-6z" />
    <glyph glyph-name="less" unicode="&#x3c;" 
d="M920 276l-207.5 65.5l-156.5 47.5l-121.5 36l-102.5 30l-100 29.5l-113 35.5q-17 5 -17 17q0 11 17 16l113 35.5l100 29.5l102.5 30l122 36l156.5 47.5l207 65.5l2 -6l-200.5 -65l-152 -50.5l-118.5 -40l-99 -33l-94 -31.5l-104 -34l104 -34.5l94 -32l99 -34l118.5 -39.5
l152 -50l200.5 -64z" />
    <glyph glyph-name="greater" unicode="&#x3e;" 
d="M102 283l200.5 64l152 50l118.5 39.5l99 34l94 32l104 34.5l-104 34l-94 31.5l-99 33l-118.5 40l-152 50.5l-200.5 65l2 6l207 -65.5l156.5 -47.5l122 -36l102.5 -30l99.5 -29.5l113.5 -35.5q17 -5 17 -16q0 -12 -17 -17l-113.5 -35.5l-99.5 -29.5l-102.5 -30l-121.5 -36
l-156.5 -47.5l-207.5 -65.5z" />
    <glyph glyph-name="logicalnot" unicode="&#xac;" 
d="M903 678q29 0 29 -27q0 -42 -1 -76t-2.5 -66.5t-3.5 -67.5t-3.5 -79t-2.5 -100.5t-1 -132.5h-7q0 76 -1 132t-2.5 99.5t-3.5 77.5t-3.5 66.5t-2.5 66t-1 76.5q-66 0 -117.5 1l-101 2t-101.5 3t-118.5 3t-153 2t-203.5 1v7q117 0 204 1t154 2t120 3t103 3l102 2t118 1z
" />
    <glyph glyph-name="approxequal" unicode="&#x2248;" 
d="M713 604q72 0 119.5 32.5t85.5 104.5h6q-20 -40 -41.5 -70.5t-48.5 -51t-61 -31t-79 -10.5q-50 0 -87.5 11t-68 28t-56 36.5t-51 36.5t-54 28t-64.5 11q-72 0 -119.5 -32.5t-84.5 -104.5h-7q19 40 41 70.5t49 51.5t61 31.5t79 10.5q39 0 70 -11.5t58 -28t53 -36.5
t55 -36.5t64 -28t81 -11.5zM713 358q72 0 119.5 32.5t85.5 105.5h6q-20 -40 -41.5 -70.5t-48.5 -51.5t-61 -31.5t-79 -10.5q-50 0 -87.5 11t-68 28t-56 36.5t-51 36.5t-54 28t-64.5 11q-72 0 -119.5 -32.5t-84.5 -104.5h-7q19 40 41 70.5t49 51.5t61 31.5t79 10.5
q39 0 70 -11.5t58 -28t53 -36.5t55 -36.5t64 -28t81 -11.5z" />
    <glyph glyph-name="notequal" unicode="&#x2260;" 
d="M647 948q-18 -54 -30.5 -95l-22 -73.5l-16.5 -58l-13 -47.5q33 -1 64 -2.5t70 -3t92 -3t131 -1.5v-7q-80 0 -133.5 -1.5t-92.5 -3t-70.5 -3t-66.5 -2.5l-70 -219q37 0 66.5 -0.5t57 -2t56 -2.5t64 -2.5t81.5 -2t108 -0.5v-6q-62 0 -108 -1t-82 -2t-65.5 -2.5t-58 -2.5
t-60 -2t-71.5 -1l-17.5 -48.5l-21 -57.5l-25 -72.5l-30.5 -93.5h-6l29 93.5l21.5 72.5l16.5 57.5l13 48.5q-37 1 -68 2.5l-69 3.5t-89 3.5t-129 1.5v6q79 0 130.5 1.5t89.5 3t70 3t71 2.5l72 219q-42 0 -73.5 0.5t-60 2t-56 2.5t-62 2.5t-78 2t-103.5 0.5v7q60 0 104 0.5
t78.5 2t63 2.5t58 2.5t63 2t78.5 0.5q7 22 16.5 47.5t20.5 58l25 73.5l32 95h6z" />
    <glyph glyph-name="lessequal" unicode="&#x2264;" 
d="M920 379l-207.5 65l-156.5 47.5l-121.5 36l-102.5 30l-100 30l-113 35.5q-17 5 -17 16t17 16l113 35.5l100 30l102.5 30l122 36l156.5 47.5l207 65l2 -6l-200.5 -65l-152 -50l-118.5 -39.5l-99 -33.5l-94 -32l-104 -34l104 -34.5l94 -32l99 -34l118.5 -39.5l152 -50
l200.5 -64zM922 195q-62 0 -108 -1t-81 -2t-62.5 -2.5t-53 -2.5l-51.5 -2t-58 -1q-35 0 -62 1l-52 2t-51 2.5t-59.5 2.5t-77.5 2t-104 1v6q60 0 104 0.5t77.5 2t59.5 2.5t51 2.5t52 2t62 0.5q32 0 58 -0.5t51.5 -2t53 -2.5t62.5 -2.5t81 -2t108 -0.5v-6z" />
    <glyph glyph-name="greaterequal" unicode="&#x2265;" 
d="M102 201q62 0 108 0.5t81 2t62.5 2.5t53 2.5t51.5 2t58 0.5q35 0 62 -0.5t52 -2t51 -2.5t59.5 -2.5t77.5 -2t104 -0.5v-6q-60 0 -104 -1t-77.5 -2t-59.5 -2.5t-51 -2.5l-52 -2t-62 -1q-32 0 -58 1l-51.5 2t-53 2.5t-62.5 2.5t-81 2t-108 1v6zM102 385l200.5 64l152 50
l118.5 39.5l99 34l94 32l104 34.5l-104 34l-94 32l-99 33.5l-118.5 39.5l-152 50l-200.5 65l2 6l207 -65l156.5 -47.5l122 -36l102.5 -30l99.5 -30l113.5 -35.5q17 -5 17 -16t-17 -16l-113.5 -35.5l-99.5 -30l-102.5 -30l-121.5 -36l-156.5 -47.5l-207.5 -65z" />
    <glyph glyph-name="partialdiff" unicode="&#x2202;" horiz-adv-x="1120" 
d="M557 -20q-104 0 -190 39t-147 107.5t-94.5 161.5t-33.5 201q0 109 35 206.5t97.5 170.5t147 115.5t183.5 42.5q93 0 159.5 -39.5t106.5 -99.5q-34 123 -87 217t-116 161t-130.5 108t-129.5 59v8q71 -20 148 -59t151.5 -97t141.5 -134t118 -169t81 -203t30 -235
q0 -131 -34.5 -234.5t-96.5 -176.5t-148.5 -111.5t-191.5 -38.5zM862 528q0 103 -11 190t-41 150t-83 98t-137 35q-80 0 -141 -37.5t-102.5 -104t-63 -158.5t-21.5 -201q0 -108 20.5 -201.5t61 -162t101 -107.5t141.5 -39q67 0 119 38.5t86.5 109t52.5 169.5t18 221z" />
    <glyph glyph-name="uni2206" horiz-adv-x="1235" 
d="M16 0l537 1458h129l535 -1458h-1201zM618 1235l-397 -1100h793z" />
    <glyph glyph-name="product" unicode="&#x220f;" horiz-adv-x="1161" 
d="M338 1427v-1421h127v-6h-424v6h129v1421h-129v7h1079v-7h-127v-1421h127v-6h-424v6h129v1421h-487z" />
    <glyph glyph-name="summation" unicode="&#x2211;" horiz-adv-x="1083" 
d="M582 551l-428 -746h477q84 0 149 5.5t114 23t82.5 49t53.5 82.5h6l-104 -295h-862l503 881l-503 883h862l104 -295h-6q-20 51 -53.5 82.5t-82.5 48.5t-114 22.5t-149 5.5h-477z" />
    <glyph glyph-name="radical" unicode="&#x221a;" horiz-adv-x="1092" 
d="M1098 1536v-6h-189l-370 -1530h-78l-346 1032h-115v6h279l288 -886l336 1384h195z" />
    <glyph glyph-name="infinity" unicode="&#x221e;" horiz-adv-x="1038" 
d="M92 537q0 47 17 88t46.5 71.5t69.5 48t86 17.5q37 0 70 -11.5t60 -31.5t46.5 -48t30.5 -61q11 33 30.5 61t46 48t59 31.5t69.5 11.5q47 0 87.5 -17.5t70.5 -48t47.5 -71.5t17.5 -88q0 -46 -17.5 -86.5t-47.5 -70.5t-70.5 -47.5t-87.5 -17.5q-37 0 -69.5 11t-59 30.5
t-46 47t-30.5 59.5q-22 -65 -77 -106.5t-130 -41.5q-46 0 -86 17.5t-69.5 47.5t-46.5 70.5t-17 86.5zM539 537q0 -44 11.5 -83t35 -68.5t58 -46.5t79.5 -17q46 0 80.5 17t57.5 46.5t34.5 68.5t11.5 83t-11.5 84t-34.5 70t-57.5 47.5t-80.5 17.5q-45 0 -79.5 -17.5t-58 -47.5
t-35 -70t-11.5 -84zM131 537q0 -44 11 -83t33.5 -68.5t56.5 -46.5t79 -17q46 0 81.5 17t59.5 46.5t36 68.5t12 83t-12 84t-36 70t-59.5 47.5t-81.5 17.5q-45 0 -79 -17.5t-56.5 -47.5t-33.5 -70t-11 -84z" />
    <glyph glyph-name="integral" unicode="&#x222b;" horiz-adv-x="588" 
d="M160 1087q0 88 17.5 159.5t52 122.5t85 78.5t115.5 27.5q56 0 97.5 -16.5t68.5 -45.5t40 -67.5t13 -81.5q0 -27 -8.5 -50t-23.5 -40.5t-34.5 -27t-41.5 -9.5q-48 0 -76.5 28.5t-28.5 71.5q0 25 8.5 45t22.5 33.5t33 20.5t39 7q24 0 40 -8t21 -8q10 0 10 10q0 16 -9 39
t-30 44t-55.5 35.5t-85.5 14.5q-46 0 -84.5 -16t-66 -45t-43 -68.5t-15.5 -87.5q0 -46 7 -84.5t18 -76l23 -77t23 -87.5t18 -108t7 -138v-616q0 -79 -17 -152.5t-50 -130.5t-82 -91t-113 -34q-40 0 -74.5 11.5t-60 33.5t-40.5 53.5t-15 71.5q0 28 9 52.5t24 41.5t35 27
t42 10q50 0 76.5 -29.5t26.5 -72.5q0 -26 -9 -45.5t-23 -32.5t-33 -20t-38 -7q-24 0 -40 8.5t-21 8.5q-10 0 -10 -11q0 -14 11 -30.5t31 -31t47.5 -24.5t61.5 -10q36 0 72 14t65 39.5t47.5 62.5t18.5 83t-7.5 86.5t-18 80.5t-23.5 83t-23.5 94t-18 113t-7.5 141v628z" />
    <glyph glyph-name="underscore" unicode="_" 
d="M1028 -213h-1032v6h1032v-6z" />
    <glyph glyph-name="degree" unicode="&#xb0;" horiz-adv-x="733" 
d="M143 1227q0 47 17.5 88t47.5 71.5t70.5 48t86.5 17.5t87 -17.5t72 -48t48.5 -71.5t17.5 -88q0 -46 -17.5 -86.5t-48.5 -70.5t-72 -47t-87 -17t-86.5 17t-70.5 47t-47.5 70.5t-17.5 86.5zM182 1227q0 -44 11.5 -83t34.5 -68.5t57.5 -46.5t79.5 -17q46 0 80.5 17t58 46.5
t35.5 68.5t12 83q0 45 -12 84.5t-35.5 69.5t-58 47.5t-80.5 17.5q-45 0 -79.5 -17.5t-57.5 -47.5t-34.5 -69.5t-11.5 -84.5z" />
    <glyph glyph-name="quotesingle" unicode="'" horiz-adv-x="455" 
d="M311 1350q0 -34 -12.5 -68l-27.5 -72t-27.5 -80.5t-12.5 -93.5h-6q0 51 -13 93.5t-28 80.5l-28 72t-13 68q0 45 25 69.5t59 24.5q35 0 59.5 -24.5t24.5 -69.5z" />
    <glyph glyph-name="quotedbl" unicode="&#x22;" horiz-adv-x="754" 
d="M311 1350q0 -34 -12.5 -68l-27.5 -72t-27.5 -80.5t-12.5 -93.5h-6q0 51 -13 93.5t-28 80.5l-28 72t-13 68q0 45 25 69.5t59 24.5q35 0 59.5 -24.5t24.5 -69.5zM610 1350q0 -34 -12.5 -68l-27.5 -72t-27.5 -80.5t-12.5 -93.5h-6q0 51 -13 93.5t-28 80.5l-28 72t-13 68
q0 45 25 69.5t59 24.5q35 0 59.5 -24.5t24.5 -69.5z" />
    <glyph glyph-name="uni00B5" horiz-adv-x="1139" 
d="M836 0v117q-111 -129 -291 -129q-82 0 -147 23.5t-113 68.5v-551h-105v1458h105v-612q0 -144 69.5 -219.5t202.5 -75.5t206 77t73 218v612h104v-987h-104z" />
    <glyph glyph-name="lozenge" unicode="&#x25ca;" horiz-adv-x="1092" 
d="M41 713l440 721h86l469 -713l-440 -721h-86zM137 856l502 -770l301 489l-502 773z" />
    <glyph glyph-name="_32" unicode=" " horiz-adv-x="522" 
 />
    <glyph glyph-name="uniF8FF" unicode="&#xf8ff;" horiz-adv-x="0" 
 />
    <glyph glyph-name="itilde" unicode="&#x129;" horiz-adv-x="455" 
d="M317 6h127v-6h-413v6h129v1026h-129v6h286v-1032zM401 1346q63 0 104.5 29.5t73.5 101.5h6q-17 -39 -35.5 -69.5t-42 -51t-53.5 -31t-69 -10.5q-44 0 -76.5 10.5t-59 27t-49 35l-44.5 35t-47 27t-56 10.5q-63 0 -104.5 -30t-73.5 -101h-6q17 39 35.5 69.5t42 51t53.5 31
t69 10.5q35 0 61.5 -10.5t50 -27t46 -35t48 -35t56 -27t70.5 -10.5z" />
    <glyph glyph-name="_45" horiz-adv-x="872" 
d="M168 492v96h537v-96h-537z" />
    <glyph glyph-name="udieresis" unicode="&#xfc;" horiz-adv-x="1104" 
d="M297 223q0 -103 54.5 -158t148.5 -55q58 0 105 23.5t80 61.5t51 87.5t18 102.5v747h-127v6h282v-895q0 -49 26.5 -72.5t61.5 -23.5q34 0 60.5 26.5t29.5 69.5h7q-2 -22 -12.5 -50.5t-32 -53.5t-54 -42t-77.5 -17q-70 0 -113 56t-51 150q-14 -38 -41.5 -74.5t-68 -66
t-93 -47.5t-115.5 -18q-76 0 -132.5 27.5t-93.5 78.5t-55 122.5t-18 160.5v663h-127v6h287v-815zM449 1339q0 -45 -29.5 -74.5t-71.5 -29.5q-43 0 -70.5 28.5t-27.5 73.5q0 47 29 77t69 30q45 0 73 -29t28 -76zM774 1339q0 -45 -29 -74.5t-71 -29.5q-44 0 -71.5 28.5
t-27.5 73.5q0 23 8 42.5t21.5 34t31.5 22.5t38 8q45 0 72.5 -29t27.5 -76z" />
    </font>
</defs>
</svg>
